<svg xmlns="http://www.w3.org/2000/svg" width="82" height="82" viewBox="0 0 82 82">
  <g id="App_store-btn" data-name="App store-btn" transform="translate(547 -2096)">
    <rect id="Rectangle_17399" data-name="Rectangle 17399" width="82" height="82" rx="15" transform="translate(-547 2096)" fill="#eb2d2d"/>
    <g id="Group_7017" data-name="Group 7017" transform="translate(-791.432 -626.531)">
      <path id="Path_30" data-name="Path 30" d="M37.183,32.015A29.224,29.224,0,0,0,34.526,34.4a9.5,9.5,0,0,0-2.408,7.4,10,10,0,0,0,5.854,8.649c.332.167.415.292.291.71a27.008,27.008,0,0,1-6.27,10.279,5.967,5.967,0,0,1-6.685,1.379,34.918,34.918,0,0,0-3.529-1.17,8.272,8.272,0,0,0-4.816.376c-.664.209-1.287.5-1.91.71-3.031,1.128-5.066.669-7.266-1.713A29.536,29.536,0,0,1,.147,44.257,17.494,17.494,0,0,1,1.475,34.4a11.507,11.507,0,0,1,9.093-6.853,10.214,10.214,0,0,1,5.107.794c.872.334,1.744.585,2.616.919a3.3,3.3,0,0,0,2.367,0,36.14,36.14,0,0,1,5.73-1.755,10.632,10.632,0,0,1,10.131,3.761C36.768,31.513,36.976,31.764,37.183,32.015Z" transform="translate(266.465 2723.794)" fill="#fff"/>
      <path id="Path_37" data-name="Path 37" d="M45.876,10.12a10.466,10.466,0,0,1,6.3-9.109A15.686,15.686,0,0,1,54.9.117c.681-.17.851,0,.851.681a10.863,10.863,0,0,1-5.874,9.748,6.969,6.969,0,0,1-3.235.766c-.638,0-.851-.213-.766-.766Z" transform="translate(240.107 2739.476)" fill="#fff"/>
    </g>
  </g>
</svg>
