<svg xmlns="http://www.w3.org/2000/svg" width="272.931" height="283.172" viewBox="0 0 272.931 283.172"><defs><style>.a{fill:#e0e0e0;}.b{fill:#fff;}.c{fill:#ebebeb;}.d{fill:#f5f5f5;}.e{fill:#263238;}.f{fill:#455a64;}.g{opacity:0.1;}.h{fill:#ff725e;}.i{fill:#ae7461;}.j{opacity:0.6;}.k{fill:#6f4439;}.l{fill:#e92a30;}.m{fill:#c52128;}</style></defs><g transform="translate(0 0)"><rect class="a" width="2.541" height="43.45" transform="translate(64.983 10.344)"/><rect class="b" width="41.638" height="51.278" transform="matrix(0.001, -1, 1, 0.001, 13.598, 53.006)"/><path class="c" d="M108.074,96.451,54.85,96.374l.1-43.584,53.224.077ZM56.8,94.435l49.352.1.051-39.686-49.339-.1Z" transform="translate(-42.234 -42.395)"/><rect class="a" width="14.37" height="11.189" transform="translate(33.388 26.513)"/><rect class="a" width="38.867" height="2.272" transform="matrix(0.001, -1, 1, 0.001, 253.829, 115.661)"/><rect class="b" width="37.247" height="45.869" transform="matrix(0.001, -1, 1, 0.001, 207.967, 114.848)"/><path class="c" d="M406.23,195.482l-47.611-.07.058-38.982,47.611.064Zm-45.863-1.805,44.128.064.045-35.506-44.128-.064Z" transform="translate(-151.561 -79.695)"/><rect class="a" width="10.011" height="12.853" transform="matrix(0.001, -1, 1, 0.001, 225.589, 101.232)"/><rect class="a" width="4.724" height="23.498" transform="translate(243.683 8.788) rotate(-0.31)"/><rect class="c" width="12.226" height="12.968" transform="translate(202.775 8.888) rotate(-0.31)"/><rect class="d" width="12.226" height="12.968" transform="translate(214.943 8.828) rotate(-0.31)"/><path class="a" d="M351.95,55.838c8.129.064,16.278,0,24.4-.115a.134.134,0,0,0,0-.262c-8.129-.045-16.278,0-24.4.154a.115.115,0,0,0,0,.224Z" transform="translate(-149.129 -43.35)"/><rect class="c" width="22.218" height="10.568" transform="translate(195.15 21.705) rotate(-0.31)"/><rect class="d" width="22.218" height="10.568" transform="translate(217.265 21.579) rotate(-0.31)"/><path class="a" d="M339.95,74.768c14.722.166,29.566,0,44.327-.218a.134.134,0,0,0,0-.262c-14.761-.077-29.573-.064-44.327.256a.115.115,0,0,0,0,.224Z" transform="translate(-144.81 -50.118)"/><rect class="a" width="86.074" height="3.789" transform="translate(186.857 32.28)"/><rect class="a" width="3.495" height="12.924" transform="translate(200.946 34.104)"/><rect class="a" width="3.495" height="12.924" transform="translate(253.108 34.104)"/><rect class="c" width="4.724" height="32.319" transform="translate(248.289 0.026) rotate(-0.31)"/><rect class="d" width="7.336" height="26.186" transform="translate(253.052 6.055) rotate(-0.31)"/><path class="a" d="M437.732,53.778a52.629,52.629,0,0,1-7.342,0A52.63,52.63,0,0,1,437.732,53.778Z" transform="translate(-177.391 -42.704)"/><path class="a" d="M437.732,52.062a52.63,52.63,0,0,1-7.342,0A55.536,55.536,0,0,1,437.732,52.062Z" transform="translate(-177.391 -42.089)"/><path class="a" d="M437.732,80.658a52.63,52.63,0,0,1-7.342,0A52.628,52.628,0,0,1,437.732,80.658Z" transform="translate(-177.391 -52.378)"/><path class="a" d="M437.732,78.928a52.63,52.63,0,0,1-7.342,0A52.63,52.63,0,0,1,437.732,78.928Z" transform="translate(-177.391 -51.756)"/><path class="a" d="M436.238,68.623c-.07,0-.128-2.644-.128-5.9s.058-5.9.128-5.9.128,2.644.128,5.9S436.308,68.623,436.238,68.623Z" transform="translate(-179.45 -43.845)"/><rect class="c" width="7.988" height="19.766" transform="translate(260.418 12.463)"/><path class="a" d="M427.2,44.427a1.357,1.357,0,1,1-1.357-1.357h0A1.357,1.357,0,0,1,427.2,44.427Z" transform="translate(-175.268 -38.897)"/><rect class="a" width="0.839" height="19.222" transform="translate(250.157 9.262)"/><rect class="d" width="118.674" height="54.728" transform="translate(0 186.877)"/><path class="a" d="M152.511,382.288H39.38V333H152.511Zm-112.395-.755H151.794v-47.8H40.116Z" transform="translate(-36.666 -143.243)"/><rect class="a" width="28.99" height="54.728" transform="translate(118.674 186.877)"/><path class="a" d="M39.918,356.654H152.287a.147.147,0,0,0,0-.294H39.918a.147.147,0,0,0,0,.294Z" transform="translate(-36.807 -151.65)"/><path class="a" d="M128.046,348.161a123.921,123.921,0,0,0,0-14.87.154.154,0,0,0-.3,0,123.921,123.921,0,0,0,.038,14.87.115.115,0,0,0,.23,0Z" transform="translate(-68.395 -143.304)"/><path class="a" d="M173.862,344.136a1.536,1.536,0,1,1-1.536-1.536h.006a1.53,1.53,0,0,1,1.53,1.53Z" transform="translate(-83.961 -146.698)"/><path class="a" d="M81.712,344.136a1.536,1.536,0,1,1-1.536-1.536h.006a1.53,1.53,0,0,1,1.53,1.53Z" transform="translate(-50.796 -146.698)"/><path class="a" d="M128.42,370.63a1.53,1.53,0,1,1-1.53-1.53,1.53,1.53,0,0,1,1.53,1.53Z" transform="translate(-67.61 -156.235)"/><path class="a" d="M54.082,414.01,48.36,447.058H51.8L62.673,414.01Z" transform="translate(-39.898 -172.399)"/><path class="a" d="M202.59,414.01l5.108,33.048h-3.437L194,414.01Z" transform="translate(-92.314 -172.399)"/><path class="a" d="M238.43,414.01l6.075,33.048h-3.437L229.84,414.01Z" transform="translate(-105.213 -172.399)"/><path class="a" d="M128.28,394.826a1.533,1.533,0,1,1,0-.006Z" transform="translate(-67.56 -164.941)"/><path class="a" d="M39.931,383.131H152.3a.154.154,0,0,0,0-.3H39.931a.154.154,0,0,0,0,.3Z" transform="translate(-36.82 -161.177)"/></g><g transform="translate(0.832 274.25)"><path class="e" d="M302.158,465.186c0,.09-59.491.166-132.852.166s-132.865-.077-132.865-.166S95.918,465,169.3,465,302.158,465.1,302.158,465.186Z" transform="translate(-36.44 -465)"/></g><g transform="translate(204.925 127.162)"><path class="f" d="M402.38,329.161V321.6c9.441,0,7.86-5.831,7.86-25.245,0-13.333-.416-20.406,4.916-20.406,4.922,0,6.1,3.457,6.1,18.627C421.257,322.664,417.5,329.161,402.38,329.161Z" transform="translate(-372.236 -249.872)"/><path class="f" d="M376.387,365.731v-7.56c-9.441,0-7.86-5.831-7.86-25.245,0-13.333.416-20.406-4.916-20.406-4.916,0-6.1,3.457-6.1,18.627C357.516,359.234,361.267,365.731,376.387,365.731Z" transform="translate(-356.087 -263.034)"/><path class="f" d="M390.394,238.53c7.47,0,6.919,9.781,6.919,21.763v95.189H383.475v-95.2C383.475,248.311,382.924,238.53,390.394,238.53Z" transform="translate(-365.429 -236.405)"/><path class="e" d="M398.619,355.618v-4.634c0-3-.045-7.31-.077-12.629-.1-10.677-.237-25.4-.39-41.664s-.371-30.987-.493-41.664c-.038-2.669-.07-5.082-.224-7.2a35.267,35.267,0,0,0-.775-5.383,22.477,22.477,0,0,0-1.018-3.284c-.141-.365-.275-.64-.358-.819s-.134-.269-.134-.269a2.854,2.854,0,0,0,.1.288c.07.186.192.461.326.826a23.671,23.671,0,0,1,.947,3.29,35.044,35.044,0,0,1,.711,5.37c.141,2.106.154,4.519.173,7.182.1,10.677.237,25.405.39,41.67s.371,30.987.493,41.664c.083,5.313.147,9.6.192,12.623.032,1.479.051,2.631.07,3.437v.89A.562.562,0,0,0,398.619,355.618Z" transform="translate(-369.634 -236.239)"/><path class="e" d="M390.226,355.6v-4.615c0-2.983-.032-7.278-.058-12.572-.083-10.632-.192-25.29-.32-41.485s-.314-30.859-.422-41.491c-.032-2.656-.058-5.057.038-7.156a45.584,45.584,0,0,1,.5-5.377c.23-1.459.5-2.56.691-3.335l.243-.858c.051-.192.07-.294.07-.294a23.307,23.307,0,0,0-1.146,4.481,44.4,44.4,0,0,0-.557,5.383c-.109,2.112-.1,4.519-.09,7.169.083,10.632.2,25.3.32,41.491s.314,30.853.422,41.485c.07,5.3.128,9.6.173,12.578,0,1.466.045,2.618.064,3.418v.89A.422.422,0,0,0,390.226,355.6Z" transform="translate(-367.481 -236.365)"/><path class="e" d="M383.221,391.12a43.213,43.213,0,0,0,.269-7.72A41.658,41.658,0,0,0,383.221,391.12Z" transform="translate(-365.315 -288.544)"/><path class="e" d="M366.336,312.65a3.17,3.17,0,0,0-.038.551c0,.384,0,.909-.038,1.562,0,1.4-.045,3.348-.07,5.761,0,4.89-.064,11.579-.109,18.979a54.406,54.406,0,0,0,.64,10.44,17.009,17.009,0,0,0,3.521,7.745,11.674,11.674,0,0,0,4.57,3.476,7.47,7.47,0,0,0,2.035.557,19.936,19.936,0,0,1-1.984-.685,11.94,11.94,0,0,1-4.429-3.5,16.993,16.993,0,0,1-3.393-7.681,53.534,53.534,0,0,1-.64-10.376V320.5c0-2.4-.032-4.353-.045-5.761v-1.562Q366.358,312.912,366.336,312.65Z" transform="translate(-359.171 -263.081)"/><path class="e" d="M405.013,346.82a54.743,54.743,0,0,0,0,8.693A52.826,52.826,0,0,0,405.013,346.82Z" transform="translate(-373.121 -275.379)"/><path class="e" d="M416.849,276a3.12,3.12,0,0,0,0,.557v1.587c.045,1.421.1,3.405.173,5.85.141,4.935.429,11.752.333,19.28-.09,3.764-.058,7.374-.839,10.53a17.74,17.74,0,0,1-3.649,7.681,10.888,10.888,0,0,1-4.718,3.252,14.436,14.436,0,0,1-2.08.448,6.389,6.389,0,0,0,2.125-.32,10.743,10.743,0,0,0,4.858-3.2,17.8,17.8,0,0,0,3.777-7.79c.807-3.2.787-6.843.871-10.6.1-7.547-.224-14.364-.435-19.3-.115-2.439-.211-4.423-.275-5.838-.038-.64-.07-1.2-.09-1.587A3.243,3.243,0,0,0,416.849,276Z" transform="translate(-373.564 -249.89)"/><g class="g" transform="translate(31.853 71.371)"><path d="M406.938,354.481l-.282-7.771-1.607.275V354.6S406.689,354.506,406.938,354.481Z" transform="translate(-405.05 -346.71)"/></g><path class="e" d="M429.52,316.07a8.252,8.252,0,0,0,3.341.5,4.212,4.212,0,0,0-1.645-.422A4.153,4.153,0,0,0,429.52,316.07Z" transform="translate(-382.004 -264.292)"/><path class="e" d="M429.78,303.961a4.23,4.23,0,0,0,1.709-.16,4.5,4.5,0,0,0,1.639-.506,4.229,4.229,0,0,0-1.709.16A4.32,4.32,0,0,0,429.78,303.961Z" transform="translate(-382.097 -259.705)"/><path class="e" d="M432.786,285.55a3.477,3.477,0,0,0-1.683.73c-.858.563-1.389,1.21-1.325,1.28a7.753,7.753,0,0,0,1.517-.986A8.056,8.056,0,0,0,432.786,285.55Z" transform="translate(-382.094 -253.327)"/><path class="e" d="M426.158,273.54a4.819,4.819,0,0,0-.832,1.607,4.9,4.9,0,0,0-.506,1.735A9.328,9.328,0,0,0,426.158,273.54Z" transform="translate(-380.312 -249.005)"/><path class="e" d="M416.17,274.34a14.879,14.879,0,0,0,2.176,4.013,7.657,7.657,0,0,0-.935-2.093A7.286,7.286,0,0,0,416.17,274.34Z" transform="translate(-377.199 -249.293)"/><path class="e" d="M412.55,288.417a3.571,3.571,0,0,0,1.459.589,3.712,3.712,0,0,0,1.549.25,3.572,3.572,0,0,0-1.459-.589A3.69,3.69,0,0,0,412.55,288.417Z" transform="translate(-375.896 -254.357)"/><path class="e" d="M418.554,302.529c.07.064.5-.294.96-.8s.781-.973.711-1.043-.506.294-.967.807S418.477,302.458,418.554,302.529Z" transform="translate(-378.053 -258.772)"/><path class="e" d="M413.617,317.431c.07.07.685-.4,1.376-1.043s1.2-1.229,1.127-1.28a4.691,4.691,0,0,0-1.37,1.043C414.059,316.8,413.553,317.361,413.617,317.431Z" transform="translate(-376.278 -263.964)"/><path class="e" d="M428.217,325.24c-.07.07.474.685,1.216,1.383a4.9,4.9,0,0,0,1.453,1.12c.07-.07-.474-.685-1.216-1.383A4.9,4.9,0,0,0,428.217,325.24Z" transform="translate(-381.532 -267.612)"/><path class="e" d="M425.9,337.156c.09-.032,0-.64-.25-1.28s-.493-1.229-.589-1.2,0,.64.256,1.28S425.808,337.189,425.9,337.156Z" transform="translate(-380.385 -271.009)"/><path class="e" d="M424.024,351.743a14.084,14.084,0,0,0-1.824-4.013,7.109,7.109,0,0,0,.749,2.08A6.962,6.962,0,0,0,424.024,351.743Z" transform="translate(-379.369 -275.706)"/><path class="e" d="M415.754,358.841a10.967,10.967,0,0,0-.678-3.841,5.428,5.428,0,0,0,.166,1.952A5.589,5.589,0,0,0,415.754,358.841Z" transform="translate(-376.796 -278.323)"/><path class="e" d="M411.49,337.3a4.057,4.057,0,0,0,1.626-.179,3.951,3.951,0,0,0,1.543-.525,3.891,3.891,0,0,0-1.619.179A3.835,3.835,0,0,0,411.49,337.3Z" transform="translate(-375.515 -271.693)"/><path class="e" d="M412.55,328.318c0,.1.64.064,1.37-.077s1.325-.326,1.28-.422a2.756,2.756,0,0,0-1.37.077C413.1,328.037,412.531,328.222,412.55,328.318Z" transform="translate(-375.896 -268.52)"/><g class="g" transform="translate(34.15 26.5)"><path d="M417.786,276.61c-.237,0-.378,3-.186,7.822.09,2.413.256,5.281.448,8.449s.4,6.663.48,10.3a40.651,40.651,0,0,1-.858,10.082,28.142,28.142,0,0,1-1.248,4.205,15.7,15.7,0,0,1-1.792,3.3,10.883,10.883,0,0,1-4.109,3.495c-1.171.563-1.92.743-1.882.883s.794.154,2.138-.25a10.289,10.289,0,0,0,4.833-3.361,15.577,15.577,0,0,0,2.151-3.489,26.555,26.555,0,0,0,1.485-4.4,37.757,37.757,0,0,0,1.037-10.491c-.077-3.706-.346-7.208-.64-10.382s-.57-6.03-.819-8.417C418.33,279.561,418.036,276.6,417.786,276.61Z" transform="translate(-408.638 -276.61)"/></g><path class="e" d="M372.48,366.639a6.8,6.8,0,0,0,3.047,0A6.553,6.553,0,0,0,372.48,366.639Z" transform="translate(-361.475 -282.447)"/><path class="e" d="M372.62,354.907a3.2,3.2,0,0,0,1.472-.141c.794-.173,1.415-.39,1.4-.486a6.4,6.4,0,0,0-2.868.64Z" transform="translate(-361.525 -278.063)"/><path class="e" d="M372.07,342.226a8.764,8.764,0,0,0,3.488-.288A9.078,9.078,0,0,0,372.07,342.226Z" transform="translate(-361.327 -273.601)"/><path class="e" d="M373.879,330.39c.038.09.64-.1,1.37-.422s1.28-.64,1.229-.743-.64.1-1.37.422S373.84,330.3,373.879,330.39Z" transform="translate(-361.978 -269.037)"/><path class="e" d="M372.758,320.2a3.229,3.229,0,0,0,1.434-.871c.711-.6,1.146-1.216,1.075-1.28s-.64.429-1.28,1.018S372.707,320.114,372.758,320.2Z" transform="translate(-361.574 -265.021)"/><path class="e" d="M369.408,312.817c.083.038.435-.506.787-1.223s.557-1.331.467-1.376-.442.506-.787,1.223S369.319,312.773,369.408,312.817Z" transform="translate(-360.362 -262.205)"/><path class="e" d="M359.874,311.757c-.077.064.256.6.64,1.248s.717,1.191.807,1.152-.1-.64-.512-1.338S359.951,311.7,359.874,311.757Z" transform="translate(-356.934 -262.758)"/><path class="e" d="M355.41,324.321a3.3,3.3,0,0,0,1.658.422,3.243,3.243,0,0,0,1.677-.134,5.694,5.694,0,0,0-1.651-.218A5.606,5.606,0,0,0,355.41,324.321Z" transform="translate(-355.331 -267.269)"/><path class="e" d="M355.549,333.44c-.045.09.582.512,1.4.954a4.23,4.23,0,0,0,1.562.64,4.2,4.2,0,0,0-1.4-.954A4.264,4.264,0,0,0,355.549,333.44Z" transform="translate(-355.38 -270.563)"/><path class="e" d="M355.289,347.64c.045.083.64-.1,1.28-.422s1.178-.64,1.133-.743-.64.1-1.28.422S355.251,347.55,355.289,347.64Z" transform="translate(-355.287 -275.245)"/><path class="e" d="M356.119,356.5c-.038.083.429.4,1.043.691s1.152.467,1.2.384-.422-.4-1.043-.7S356.164,356.407,356.119,356.5Z" transform="translate(-355.586 -278.853)"/><path class="e" d="M358.325,372.748c.077.064.531-.326,1.031-.871s.832-1.037.762-1.1-.531.32-1.024.871S358.254,372.684,358.325,372.748Z" transform="translate(-356.377 -283.998)"/><path class="e" d="M363.966,387.035q.523-1.727.9-3.495a3.548,3.548,0,0,0-.749,1.671A3.484,3.484,0,0,0,363.966,387.035Z" transform="translate(-358.389 -288.594)"/><path class="e" d="M373.925,394.905a8.327,8.327,0,0,0-.25-3.405,4.29,4.29,0,0,0-.051,1.715A4.216,4.216,0,0,0,373.925,394.905Z" transform="translate(-361.864 -291.459)"/><path class="e" d="M374.728,378.243c.051.083.678-.23,1.4-.7s1.28-.915,1.2-1a3.671,3.671,0,0,0-1.4.7C375.215,377.718,374.677,378.166,374.728,378.243Z" transform="translate(-362.283 -286.075)"/><path class="e" d="M361.716,351.006c.064.07.531-.23,1.056-.672s.89-.864.826-.941-.538.23-1.056.672S361.652,350.93,361.716,351.006Z" transform="translate(-357.598 -276.301)"/><path class="e" d="M369,333.326c-.07.064.358.6.954,1.191s1.139,1.011,1.21.947-.365-.608-.96-1.2S369.041,333.255,369,333.326Z" transform="translate(-360.218 -270.519)"/><path class="e" d="M361,318.709c-.051.083.358.41.915.73s1.05.512,1.095.429-.365-.416-.922-.73S361.062,318.626,361,318.709Z" transform="translate(-357.341 -265.255)"/><path class="e" d="M369.294,385.281c.09.038.358-.384.6-.941s.365-1.043.275-1.082-.358.384-.6.941S369.2,385.243,369.294,385.281Z" transform="translate(-360.318 -288.492)"/><path class="e" d="M402.56,287.816a4.975,4.975,0,0,0,1.888.077,5.24,5.24,0,0,0,1.875-.269,5.012,5.012,0,0,0-1.92-.077A5.183,5.183,0,0,0,402.56,287.816Z" transform="translate(-372.301 -254.025)"/><path class="e" d="M403.49,270.293a4.819,4.819,0,0,0,1.747-.531,4.751,4.751,0,0,0,1.619-.851,4.88,4.88,0,0,0-1.754.531A4.756,4.756,0,0,0,403.49,270.293Z" transform="translate(-372.635 -247.339)"/><path class="e" d="M401.94,249a4.385,4.385,0,0,0,3.367-1.779,18.561,18.561,0,0,0-1.645.967C402.746,248.692,401.921,248.923,401.94,249Z" transform="translate(-372.077 -239.532)"/><path class="e" d="M398.05,238.4a4.839,4.839,0,0,0,1.024-1.511,4.675,4.675,0,0,0,.711-1.683,5,5,0,0,0-1.018,1.517A4.9,4.9,0,0,0,398.05,238.4Z" transform="translate(-370.677 -235.21)"/><path class="e" d="M384.64,237.318a5.43,5.43,0,0,0,1.082,1.581c.64.807,1.28,1.415,1.344,1.351a5.124,5.124,0,0,0-1.075-1.575C385.319,237.862,384.717,237.26,384.64,237.318Z" transform="translate(-365.851 -235.967)"/><path class="e" d="M381.238,251.85c-.058.083.518.589,1.28,1.133a4.147,4.147,0,0,0,1.491.839c.058-.077-.525-.582-1.28-1.127A4.423,4.423,0,0,0,381.238,251.85Z" transform="translate(-364.625 -241.199)"/><path class="e" d="M379.66,271.994a6.7,6.7,0,0,0,2.976.794,3.583,3.583,0,0,0-1.44-.57A3.5,3.5,0,0,0,379.66,271.994Z" transform="translate(-364.059 -248.445)"/><path class="e" d="M380.6,288.912a4.662,4.662,0,0,0,1.786.083,4.768,4.768,0,0,0,1.779-.269A9.131,9.131,0,0,0,380.6,288.912Z" transform="translate(-364.397 -254.436)"/><path class="e" d="M380.28,306.35a6.215,6.215,0,0,0,1.7,1.139,6.07,6.07,0,0,0,1.869.839,6.054,6.054,0,0,0-1.7-1.146A5.9,5.9,0,0,0,380.28,306.35Z" transform="translate(-364.282 -260.813)"/><path class="e" d="M404.12,314.3a5.329,5.329,0,0,0,1.92-.23,5.218,5.218,0,0,0,1.844-.57,10.362,10.362,0,0,0-3.757.8Z" transform="translate(-372.862 -263.387)"/><path class="e" d="M403.54,329.8a6.3,6.3,0,0,0,1.466,1.434,6.167,6.167,0,0,0,1.683,1.165c.064-.077-.589-.717-1.459-1.434A5.869,5.869,0,0,0,403.54,329.8Z" transform="translate(-372.653 -269.253)"/><path class="e" d="M403.19,373.08a15.321,15.321,0,0,0,3.572-2.97,7.62,7.62,0,0,0-1.92,1.351A7.971,7.971,0,0,0,403.19,373.08Z" transform="translate(-372.527 -283.761)"/><path class="e" d="M403.8,387.41c-.064.077.461.64,1.171,1.229a4.226,4.226,0,0,0,1.4.954c.064-.077-.461-.64-1.171-1.223A4.317,4.317,0,0,0,403.8,387.41Z" transform="translate(-372.744 -289.987)"/><path class="e" d="M381.55,359.22a5.914,5.914,0,0,0,1.485,1.325,5.811,5.811,0,0,0,1.69,1.043,5.816,5.816,0,0,0-1.479-1.325A5.457,5.457,0,0,0,381.55,359.22Z" transform="translate(-364.739 -279.841)"/><path class="e" d="M381.21,337.6a3.293,3.293,0,0,0,1.632,1.082,3.2,3.2,0,0,0,1.92.3,18.362,18.362,0,0,0-1.805-.64A15.883,15.883,0,0,0,381.21,337.6Z" transform="translate(-364.617 -272.06)"/><path class="e" d="M380.89,321.134a7.357,7.357,0,0,0,2.976-1.184A7.348,7.348,0,0,0,380.89,321.134Z" transform="translate(-364.502 -265.708)"/><path class="e" d="M379.69,401.89a6.333,6.333,0,0,0,1.811,1.05,6.521,6.521,0,0,0,1.959.73,6.348,6.348,0,0,0-1.811-1.05A6.543,6.543,0,0,0,379.69,401.89Z" transform="translate(-364.07 -295.198)"/><path class="e" d="M403.78,299.9a8.352,8.352,0,0,0,1.92-1.453,8.058,8.058,0,0,0,1.664-1.722,8.43,8.43,0,0,0-1.92,1.459A8.322,8.322,0,0,0,403.78,299.9Z" transform="translate(-372.74 -257.351)"/><path class="e" d="M379.05,293.66a5.666,5.666,0,0,0,1.587,1.235,5.762,5.762,0,0,0,1.779.941,6.02,6.02,0,0,0-1.594-1.235A5.813,5.813,0,0,0,379.05,293.66Z" transform="translate(-363.839 -256.246)"/><path class="e" d="M404.42,259.672a2.912,2.912,0,0,0,1.408,0c.768-.109,1.376-.275,1.363-.371a2.922,2.922,0,0,0-1.415,0C405.015,259.41,404.407,259.576,404.42,259.672Z" transform="translate(-372.97 -243.849)"/><path class="e" d="M380.9,261.17a3.328,3.328,0,0,0,1.331.64,3.247,3.247,0,0,0,1.44.333,6.615,6.615,0,0,0-2.772-.973Z" transform="translate(-364.505 -244.553)"/><path class="e" d="M393.26,298a5.125,5.125,0,0,0,1.05,1.594,5.515,5.515,0,0,0,1.331,1.376,5.236,5.236,0,0,0-1.056-1.594A5.559,5.559,0,0,0,393.26,298Z" transform="translate(-368.954 -257.808)"/><path class="e" d="M393.277,280.453c.051.077.7-.307,1.216-1.063a2.356,2.356,0,0,0,.563-1.511c-.1-.032-.365.64-.851,1.312S393.213,280.376,393.277,280.453Z" transform="translate(-368.958 -250.566)"/><path class="e" d="M393.587,259c-.064.077.486.608,1.018,1.363a11.691,11.691,0,0,0,.96,1.408,2.741,2.741,0,0,0-.672-1.613C394.323,259.354,393.638,258.925,393.587,259Z" transform="translate(-369.069 -243.768)"/><path class="e" d="M394.886,319.641c.1-.032-.051-.678-.326-1.447a3.7,3.7,0,0,0-.64-1.325,3.687,3.687,0,0,0,.326,1.447C394.515,319.084,394.8,319.673,394.886,319.641Z" transform="translate(-369.184 -264.599)"/><path class="e" d="M398.92,351.785a18.039,18.039,0,0,0,2.2-4.545A18.04,18.04,0,0,0,398.92,351.785Z" transform="translate(-370.991 -275.53)"/><path class="e" d="M392.73,359.53a10.908,10.908,0,0,0,1.139,2.56,11.086,11.086,0,0,0,1.453,2.388,23.142,23.142,0,0,0-2.56-4.942Z" transform="translate(-368.763 -279.953)"/><path class="e" d="M393,392.423a8.361,8.361,0,0,0,1.28-2.093,8.829,8.829,0,0,0,.947-2.26,8.61,8.61,0,0,0-1.28,2.1A8.863,8.863,0,0,0,393,392.423Z" transform="translate(-368.86 -290.225)"/><path class="e" d="M395.13,405.668a4.868,4.868,0,0,0,.845,1.581c.551.819,1.056,1.447,1.139,1.389a4.584,4.584,0,0,0-.845-1.581C395.725,406.238,395.213,405.617,395.13,405.668Z" transform="translate(-369.627 -296.557)"/><g class="g" transform="translate(21.477 4.212)"><path d="M389.717,241.79c-.486,0-.877,25.642-.877,57.27s.39,57.263.877,57.263.877-25.6.877-57.263S390.223,241.79,389.717,241.79Z" transform="translate(-388.84 -241.79)"/></g><g class="g" transform="translate(5.553 50.433)"><path d="M364.876,314c-.243,0-.525,2.925-.64,7.681s-.122,11.272-.25,18.486a44.73,44.73,0,0,0,.858,10.318,21.344,21.344,0,0,0,1.491,4.353,32.05,32.05,0,0,0,1.92,3.457,8.316,8.316,0,0,0,2.343,2.445,7.743,7.743,0,0,0,2.311,1.018c1.325.346,2.068.352,2.093.25s-.64-.371-1.856-.89a8.664,8.664,0,0,1-1.971-1.171,7.9,7.9,0,0,1-1.863-2.3,37.29,37.29,0,0,1-1.651-3.412,21.783,21.783,0,0,1-1.235-4.09,49.291,49.291,0,0,1-.71-9.954c.128-7.233-.1-13.788-.262-18.512S365.119,314,364.876,314Z" transform="translate(-363.962 -314)"/></g><path class="h" d="M363.7,426.634h36.486a3.923,3.923,0,0,0,3.924-3.924V422.7h0a3.917,3.917,0,0,0-3.911-3.924H363.7a3.924,3.924,0,0,0-3.924,3.924h0A3.931,3.931,0,0,0,363.7,426.634Z" transform="translate(-356.904 -301.277)"/><path class="h" d="M402.652,428.62l-5.511,23.472H370.576L364.95,428.62Z" transform="translate(-358.765 -304.819)"/><path class="e" d="M365.91,431c0,.083,8.321.147,18.563.147s18.563-.064,18.563-.147-8.321-.147-18.563-.147S365.91,430.946,365.91,431Z" transform="translate(-359.11 -305.621)"/><path class="b" d="M371.075,447.985v-.1a1.388,1.388,0,0,1,0-.3,3.7,3.7,0,0,1,.211-1.133,4.365,4.365,0,0,1,.935-1.575,4.1,4.1,0,0,1,2.1-1.216,4.483,4.483,0,0,1,2.919.326,8.109,8.109,0,0,1,2.471,2.285,9.3,9.3,0,0,0,1.235,1.28,2.7,2.7,0,0,0,1.626.64,2.611,2.611,0,0,0,1.684-.64,10.028,10.028,0,0,0,1.376-1.421,12.76,12.76,0,0,1,1.408-1.472,3.562,3.562,0,0,1,1.824-.851,3.961,3.961,0,0,1,1.92.262,7.171,7.171,0,0,1,1.613.89c.96.717,1.735,1.523,2.56,2.144a5.4,5.4,0,0,0,2.56,1.191,5.029,5.029,0,0,0,2.317-.218,5.291,5.291,0,0,0,1.562-.851,6.27,6.27,0,0,0,1.05-1.114,1.942,1.942,0,0,1-.2.352,4.424,4.424,0,0,1-.775.858,5.177,5.177,0,0,1-3.988,1.2,5.61,5.61,0,0,1-2.682-1.2c-.851-.64-1.645-1.434-2.56-2.112a4.865,4.865,0,0,0-3.322-1.088,3.328,3.328,0,0,0-1.664.794,11.633,11.633,0,0,0-1.363,1.434,10.9,10.9,0,0,1-1.421,1.459,2.932,2.932,0,0,1-1.888.717,3.014,3.014,0,0,1-1.811-.711,9.819,9.819,0,0,1-1.28-1.325,7.743,7.743,0,0,0-2.368-2.24,4.241,4.241,0,0,0-2.752-.346,3.973,3.973,0,0,0-2.016,1.12,4.433,4.433,0,0,0-.947,1.491A5.659,5.659,0,0,0,371.075,447.985Z" transform="translate(-360.966 -310.191)"/></g><path class="e" d="M267.028,285.9l-74.891-.045c-9.006,0-16.3-7.681-16.3-17.148V71.445c0-9.467,7.31-17.142,16.323-17.135l74.891.045c9.006,0,16.3,7.681,16.3,17.142l-.032,197.265C283.344,278.229,276.041,285.9,267.028,285.9Z" transform="translate(-85.778 -42.942)"/><path class="b" d="M269.821,65.28H255.31a3.713,3.713,0,0,0-3.527,3.841v2.765a3.706,3.706,0,0,1-3.527,3.841h-28.3a3.713,3.713,0,0,1-3.521-3.879V69.121a3.713,3.713,0,0,0-3.527-3.841H195.1c-6.311,0-11.426,5.37-11.432,12V269.823c0,6.625,5.121,12,11.413,12.008l74.725.045c6.3,0,11.426-5.37,11.426-12l.006-192.612A11.72,11.72,0,0,0,269.821,65.28Z" transform="translate(-88.596 -46.89)"/><path class="a" d="M205.142,379.438v5.652a.64.64,0,0,1-.954.525l-4.442-2.842a.64.64,0,0,1,0-1.05l4.442-2.829a.64.64,0,0,1,.872.244A.651.651,0,0,1,205.142,379.438Z" transform="translate(-94.283 -159.73)"/><path class="a" d="M260.976,381.935a3.9,3.9,0,1,1,0-.006Z" transform="translate(-113.613 -159.449)"/><rect class="a" width="7.188" height="7.201" rx="1.87" transform="translate(175.323 219.086)"/><g transform="translate(17.646 39.738)"><path class="i" d="M102.18,451.314l.967-5.5,9.755-.019-1.063,6.395-3.489,2.1Z" transform="translate(-76.914 -223.575)"/><path class="f" d="M111.7,453.644v.64s10.645,4.4,10.741,6.4l-21.219-.314.39-7.041A12.163,12.163,0,0,0,111.7,453.644Z" transform="translate(-76.568 -226.288)"/><g class="j" transform="translate(26.509 229.327)"><path class="b" d="M104.773,456.9a.87.87,0,0,0-.64.986.832.832,0,0,0,.967.64.922.922,0,0,0,.64-1.043.87.87,0,0,0-1.075-.531" transform="translate(-104.121 -456.9)"/></g><g class="j" transform="translate(24.652 232.399)"><path class="b" d="M101.22,463.4l.09-1.7,20.31.922s.935.422.819,1.088Z" transform="translate(-101.22 -461.7)"/></g><path class="e" d="M116.607,454.844c0,.1-.518.141-1.037.467s-.794.755-.883.717.064-.64.7-1.024S116.633,454.748,116.607,454.844Z" transform="translate(-81.406 -226.797)"/><path class="e" d="M120.357,456.365c0,.1-.429.269-.787.7s-.467.9-.57.89-.16-.6.294-1.127S120.357,456.262,120.357,456.365Z" transform="translate(-82.941 -227.364)"/><path class="e" d="M123,459.581c-.09,0-.23-.5.045-1.063s.762-.781.807-.7-.262.39-.48.851S123.113,459.574,123,459.581Z" transform="translate(-84.366 -227.898)"/><path class="i" d="M98.2,434.742l-1.683,16.38-7.508-1.248L88.84,433.75Z" transform="translate(-72.113 -219.241)"/><path class="f" d="M88.414,454.09s4.967,4.186,7.848,1.28l.525,1.607,1.971,11.279a1.466,1.466,0,0,1-1.018,1.683,1.51,1.51,0,0,1-1.523-.435c-1.991-2.24-9.288-10.5-9.109-11.522l.288-2.695a1.377,1.377,0,0,1,1.018-1.178Z" transform="translate(-71.488 -226.562)"/><g class="j" transform="translate(15.628 230.46)"><path class="b" d="M97.478,471.606,87.2,458.67l-.058.589a1.645,1.645,0,0,0,.422,1.357c.807,1.28,3.1,4.257,8.622,10.5a1.492,1.492,0,0,0,1.28.493Z" transform="translate(-87.123 -458.67)"/></g><g class="j" transform="translate(16.167 228.652)"><path class="b" d="M89.338,456.06a.845.845,0,0,1,.141,1.146.864.864,0,0,1-1.165.141A.826.826,0,1,1,89.266,456a.78.78,0,0,1,.136.12" transform="translate(-87.964 -455.846)"/></g><path class="e" d="M99.062,468.122a4.434,4.434,0,0,1,1.351-.967,4.531,4.531,0,0,1,1.671-.154c0-.038-.154-.16-.486-.237a2.352,2.352,0,0,0-1.28.1,2.233,2.233,0,0,0-1.037.768C99.068,467.9,99.017,468.109,99.062,468.122Z" transform="translate(-75.786 -231.107)"/><path class="e" d="M100.386,471.516a11.925,11.925,0,0,1,1.319-.486,12,12,0,0,1,1.415-.045,1.658,1.658,0,0,0-1.479-.256C100.777,470.876,100.316,471.452,100.386,471.516Z" transform="translate(-76.266 -232.524)"/><path class="e" d="M96.45,464.143a14.5,14.5,0,0,1,1.984-.883,14.234,14.234,0,0,1,2.164-.282,3.3,3.3,0,0,0-2.253,0A3.246,3.246,0,0,0,96.45,464.143Z" transform="translate(-74.851 -229.69)"/><path class="e" d="M96.55,459.407c0,.09.851-.16,1.882-.1s1.824.371,1.863.288A3.745,3.745,0,0,0,96.55,459.407Z" transform="translate(-74.887 -228.326)"/><path class="e" d="M99.193,458.049a1.272,1.272,0,0,0,0-.525,3.568,3.568,0,0,0-.563-1.344,1.669,1.669,0,0,0-.787-.717.589.589,0,0,0-.64.186.89.89,0,0,0-.166.64A2.074,2.074,0,0,0,99.027,458a2.4,2.4,0,0,0,2.24-1.427.792.792,0,0,0,0-.679.583.583,0,0,0-.64-.243,2.031,2.031,0,0,0-.9.557,3.937,3.937,0,0,0-.871,1.165,1.123,1.123,0,0,0-.173.5,6.283,6.283,0,0,1,1.2-1.5,1.818,1.818,0,0,1,.794-.467.3.3,0,0,1,.339.128.523.523,0,0,1,0,.448,2.144,2.144,0,0,1-1.959,1.216,1.8,1.8,0,0,1-1.709-1.434.64.64,0,0,1,.1-.454.326.326,0,0,1,.358-.109,1.561,1.561,0,0,1,.679.6A5.475,5.475,0,0,1,99.193,458.049Z" transform="translate(-75.06 -227.045)"/><path class="e" d="M134.672,258.22a69.893,69.893,0,0,1,3.924,21.514c.192,11.81-10.741,45.268-12.373,52.949-1.114,5.223-5.882,31.365-11.861,47.143L105.4,379.5s7.483-53.128,7.483-58.71-.813-35.205-.813-35.205l-1.984-22.57Z" transform="translate(-78.073 -156.068)"/><path class="e" d="M78.942,255.61c.64.25,22.128,5.422,22.128,5.422s5.447,61.193,5.761,69.227-12.591,48.3-12.591,48.3H81.951s.525-25.809,2.394-34.021c2.164-9.518,4.193-11.637,3.284-16.8S77.31,297.658,74.967,283.954,78.942,255.61,78.942,255.61Z" transform="translate(-66.932 -155.129)"/><path class="f" d="M134.906,278.739a1.551,1.551,0,0,0-.461.045,11.765,11.765,0,0,0-1.223.288,16.487,16.487,0,0,0-3.8,1.671,16.215,16.215,0,0,0-3.245,2.56,11.852,11.852,0,0,0-.826.947,1.564,1.564,0,0,0-.256.384c.038,0,.467-.461,1.235-1.178a19.278,19.278,0,0,1,3.252-2.471,19.574,19.574,0,0,1,3.7-1.722A15.913,15.913,0,0,0,134.906,278.739Z" transform="translate(-85.163 -163.452)"/><path class="f" d="M85.9,390.923h3.3l9.211.045h.07V390.9c1.466-4.967,3.335-11.381,5.434-18.774s4.481-15.74,6.676-24.669c.224-.967.454-1.92.64-2.9a15.17,15.17,0,0,0,.243-2.938c0-1.92,0-3.841-.045-5.722-.07-3.751-.2-7.361-.32-10.8-.243-6.887-.518-13.09-.762-18.294s-.461-9.416-.64-12.328c-.09-1.44-.16-2.56-.211-3.348a6.038,6.038,0,0,0-.077-.871c-.026-.2-.038-.294-.038-.294.038.819.288,6.587.743,16.854.218,5.2.467,11.4.7,18.288.115,3.444.23,7.041.3,10.8.038,1.875.07,3.783.045,5.716a15.041,15.041,0,0,1-.25,2.88c-.173.96-.4,1.92-.64,2.893-2.189,8.91-4.583,17.283-6.644,24.663s-3.93,13.807-5.351,18.793l.09-.07-9.2.09H86.079A.765.765,0,0,0,85.9,390.923Z" transform="translate(-71.054 -167.491)"/><path class="f" d="M95.7,278.7c0,.058,1.018,0,2.65.058a22.554,22.554,0,0,1,6.222,1.28,25.215,25.215,0,0,1,3.2,1.44,22.173,22.173,0,0,1,2.413,1.53c1.319.967,2.042,1.683,2.087,1.639a3.7,3.7,0,0,0-.486-.525,7.025,7.025,0,0,0-.64-.57c-.25-.218-.525-.467-.858-.711a20.319,20.319,0,0,0-2.407-1.607,20.911,20.911,0,0,0-6.644-2.394,19.762,19.762,0,0,0-2.88-.288H97.243a4.367,4.367,0,0,0-.832.045A3.285,3.285,0,0,0,95.7,278.7Z" transform="translate(-74.582 -163.385)"/><path class="e" d="M93.9,127.59a20.907,20.907,0,0,0,6.676,15.785l2.976-8.641" transform="translate(-73.931 -109.054)"/><path class="e" d="M115.358,99.981a12.665,12.665,0,0,0-8.513-1.031,26.753,26.753,0,0,0-8.052,3.329,13.2,13.2,0,0,0-3.841,3c-1.856,2.343-3.693,6.183-3.841,9.166-.147,2.407.781,8.449,1.8,10.638.935,2.01,5.313,3.54,7.47,4.033l19.843-23.044A10.012,10.012,0,0,0,115.358,99.981Z" transform="translate(-72.924 -98.632)"/><path class="e" d="M131.7,105.115l-4.756-.845c2.6,6.183,3.3,20.336,4.788,26.884,1.754-2.56,5.825-10.28,5.607-13.365S137.342,104.59,131.7,105.115Z" transform="translate(-85.825 -100.661)"/><path class="i" d="M124.412,115.679c-.307-4.743-3.463-10.562-8.2-10.056l-10.946,2.791a8.123,8.123,0,0,0-6.107,7.476v.1l2.445,28.344,8.212,16.3h0l7.252-15.446v-5.793c0,.013,6.062-1.024,7.3-8.961C124.969,126.522,124.758,120.953,124.412,115.679Z" transform="translate(-75.827 -101.137)"/><path class="e" d="M132.179,130.984a1.011,1.011,0,0,1-.979,1.024.967.967,0,0,1-1.048-.878l0-.031a1.018,1.018,0,0,1,.979-1.031.98.98,0,0,1,1.049.9Z" transform="translate(-86.98 -109.945)"/><path class="e" d="M134.5,125.6c-.128.134-.9-.435-1.991-.429s-1.92.55-2.01.416.07-.294.416-.55a2.793,2.793,0,0,1,1.613-.5,2.649,2.649,0,0,1,1.581.506C134.446,125.3,134.554,125.545,134.5,125.6Z" transform="translate(-87.096 -107.956)"/><path class="e" d="M117.863,130.983a1.011,1.011,0,0,1-.979,1.024.96.96,0,0,1-1.041-.872c0-.013,0-.025,0-.037a1.018,1.018,0,0,1,.973-1.031.967.967,0,0,1,1.047.878C117.861,130.959,117.862,130.971,117.863,130.983Z" transform="translate(-81.83 -109.944)"/><path class="e" d="M118.287,125.6c-.128.134-.9-.435-1.991-.429s-1.92.55-2.01.416.07-.294.422-.55a2.767,2.767,0,0,1,1.607-.5,2.649,2.649,0,0,1,1.581.506C118.236,125.3,118.351,125.545,118.287,125.6Z" transform="translate(-81.262 -107.956)"/><path class="e" d="M125.592,134.485a7.075,7.075,0,0,1,1.773-.32c.275,0,.538-.09.589-.282a1.408,1.408,0,0,0-.192-.826l-.819-2.119a36.925,36.925,0,0,1-1.869-5.55,36.237,36.237,0,0,1,2.311,5.383c.275.749.544,1.459.794,2.138a1.6,1.6,0,0,1,.147,1.095.729.729,0,0,1-.454.41,1.973,1.973,0,0,1-.474.064A6.871,6.871,0,0,1,125.592,134.485Z" transform="translate(-85.149 -108.262)"/><path class="k" d="M110.71,154s2.56,5.434,10.5,4.679v-1.863A19.98,19.98,0,0,1,110.71,154Z" transform="translate(-79.984 -118.559)"/><path class="e" d="M117.2,119.549c-.109.3-1.2.16-2.484.32s-2.317.506-2.484.243c-.077-.128.1-.41.518-.7a4.172,4.172,0,0,1,1.843-.64,4.223,4.223,0,0,1,1.92.224C117.018,119.2,117.255,119.427,117.2,119.549Z" transform="translate(-80.525 -105.871)"/><path class="e" d="M134.107,120.358c-.192.25-.941,0-1.85,0s-1.671.173-1.85-.09c-.077-.122.045-.371.378-.64a2.563,2.563,0,0,1,1.5-.41,2.6,2.6,0,0,1,1.479.493C134.088,119.968,134.19,120.224,134.107,120.358Z" transform="translate(-87.065 -106.04)"/><path class="e" d="M121.153,106.748a3.488,3.488,0,0,0-3.079-1.971,6.785,6.785,0,0,0-3.649,1.063c-4.718,2.727-7.137,9.307-11.8,12.162-1.146.691-2.637.058-3.61.973a3.363,3.363,0,0,0-1.069,3.61,10.843,10.843,0,0,1-1.613-2.733,3.734,3.734,0,0,1,.128-3.085c.4-.7,1.114-1.229,1.28-2.01a10.98,10.98,0,0,0-.07-2.119,4.644,4.644,0,0,1,.723-2.016,20.574,20.574,0,0,1,7.566-7.963,13.442,13.442,0,0,1,6.945-1.8,10.24,10.24,0,0,1,6.612,2.624c1.043.973,2.138,1.978,1.6,3.3" transform="translate(-74.712 -99.433)"/><path class="i" d="M98.459,130.4c-.083-.224-4.212-1.715-4.269,2.676-.051,4.263,4.25,3.424,4.257,3.3S98.459,130.4,98.459,130.4Z" transform="translate(-74.038 -109.913)"/><path class="k" d="M97.746,135.523a1.718,1.718,0,0,1-.2.109.718.718,0,0,1-.557,0,1.85,1.85,0,0,1-.839-1.664,2.444,2.444,0,0,1,.224-1.056.845.845,0,0,1,.563-.57.377.377,0,0,1,.435.211c.058.115,0,.2.051.211s.09-.07.058-.25a.481.481,0,0,0-.166-.269.544.544,0,0,0-.41-.109,1.043,1.043,0,0,0-.781.64,2.516,2.516,0,0,0-.269,1.184,1.92,1.92,0,0,0,1.069,1.85.8.8,0,0,0,.679-.1C97.74,135.632,97.759,135.536,97.746,135.523Z" transform="translate(-74.637 -110.688)"/><path class="f" d="M98.21,119.153a2.257,2.257,0,0,0,.256-.141c.16-.1.416-.243.717-.454a14.648,14.648,0,0,0,2.3-2.1A40.853,40.853,0,0,0,104.3,112.8a33.5,33.5,0,0,1,3.521-4.378,13.18,13.18,0,0,1,2.266-1.8,11.09,11.09,0,0,1,2.452-1.107,12.094,12.094,0,0,1,4.519-.557,11.606,11.606,0,0,1,3.028.6,6.6,6.6,0,0,1,.787.288,1.763,1.763,0,0,0,.282.1,2.251,2.251,0,0,0-.262-.134,7.835,7.835,0,0,0-.781-.333,11.287,11.287,0,0,0-3.04-.64,12.235,12.235,0,0,0-4.583.525,10.889,10.889,0,0,0-2.5,1.12,13.6,13.6,0,0,0-2.311,1.818,33.082,33.082,0,0,0-3.527,4.417,44.087,44.087,0,0,1-2.772,3.668,15.957,15.957,0,0,1-2.24,2.125c-.294.224-.538.371-.691.486A1.4,1.4,0,0,0,98.21,119.153Z" transform="translate(-75.485 -100.854)"/><path class="e" d="M99.857,125.705a6.58,6.58,0,0,0,.416,3.425,2.284,2.284,0,0,0,2.912,1.165,3.228,3.228,0,0,0,1.21-2.477c.4-2.714.589-5.46,1.018-8.168Z" transform="translate(-76.063 -106.196)"/><path class="k" d="M121.445,142.761a2.112,2.112,0,0,0,1.056,3.3,1.284,1.284,0,0,0,.794,0,1.773,1.773,0,0,0,.845-1.1l.442-1.107a.48.48,0,0,0,.045-.384.514.514,0,0,0-.358-.211l-2.74-.64" transform="translate(-83.691 -114.463)"/><path class="e" d="M123.078,145.816a2.451,2.451,0,0,1-1.242-.16,1.919,1.919,0,0,1-1.095-.883,1.473,1.473,0,0,1-.166-.845,2.521,2.521,0,0,1,.218-.877,2.324,2.324,0,0,1,.512-.711l.077-.07h.09c1.811.64,3.2.967,3.2,1.043a11.133,11.133,0,0,1-3.316-.736l.16-.032a1.916,1.916,0,0,0-.435.608A1.755,1.755,0,0,0,121,144.6a1.836,1.836,0,0,0,.909.813C122.6,145.72,123.091,145.752,123.078,145.816Z" transform="translate(-83.532 -114.337)"/><path class="f" d="M121.52,106.769a7.59,7.59,0,0,0-1.063-.09,7.319,7.319,0,0,0-2.823.512,9.661,9.661,0,0,0-1.767.909,19.467,19.467,0,0,0-1.824,1.4,22.082,22.082,0,0,0-3.572,3.841c-.538.762-1.018,1.543-1.536,2.266a11.106,11.106,0,0,1-1.709,1.92,19.141,19.141,0,0,1-3.6,2.407c-1.095.576-2,.979-2.631,1.28l-.73.307a1.534,1.534,0,0,1-.262.1.913.913,0,0,1,.237-.134l.711-.352c.64-.307,1.517-.736,2.56-1.325a19.951,19.951,0,0,0,3.54-2.426,10.918,10.918,0,0,0,1.664-1.92c.506-.717.986-1.5,1.536-2.266a21.2,21.2,0,0,1,3.623-3.879,19.018,19.018,0,0,1,1.856-1.4,9.4,9.4,0,0,1,1.818-.9,7.135,7.135,0,0,1,2.887-.448,5.736,5.736,0,0,1,.787.109A1.892,1.892,0,0,1,121.52,106.769Z" transform="translate(-76.129 -101.483)"/><path class="f" d="M97.044,121.93a1.981,1.981,0,0,1-.378.256l-1.082.64-.365.211a1.285,1.285,0,0,1-.467.154.505.505,0,0,1-.288-.07.4.4,0,0,1-.16-.282.96.96,0,0,1,.2-.538l1.28-2.01.166.16a4.481,4.481,0,0,1-1.37.685,4.625,4.625,0,0,1-1.523.179,1.23,1.23,0,0,1-.39-.07.5.5,0,0,1-.326-.288.455.455,0,0,1,.07-.429,1.67,1.67,0,0,1,.243-.269,8.859,8.859,0,0,0,1.453-1.831,16.6,16.6,0,0,0,.922-1.959,2.453,2.453,0,0,1-.134.57,7.923,7.923,0,0,1-.64,1.479,8.649,8.649,0,0,1-1.44,1.92c-.16.154-.32.326-.256.461s.294.2.518.2a4.313,4.313,0,0,0,1.44-.173,4.123,4.123,0,0,0,1.28-.64l.512-.371-.339.531-1.28,1.991a.814.814,0,0,0-.179.416.2.2,0,0,0,.212.184.169.169,0,0,0,.031,0,2.163,2.163,0,0,0,.768-.314l1.114-.57A1.778,1.778,0,0,1,97.044,121.93Z" transform="translate(-73.365 -105.052)"/><path class="h" d="M129.194,187.817c.07-.4-1.338-5.185-4.244-12.309a23.32,23.32,0,0,0-4.289-6.4c-.845-.871-5.166-2.336-6.279-2.791l-9.768-2.2s.941,5.05-8.065,4.429c-6.708-.467-7.483-5.614-7.483-5.614S75.4,164.53,72.174,167.6,64.8,187.855,64.8,187.855l13.82,3.514L79.8,211.309,75.086,221.96s11.714,9.493,26.244,9.5c8.59,0,18.947-6.99,18.947-6.99L115.8,212.147l2.56-23.1Z" transform="translate(-63.461 -121.773)"/><path class="e" d="M84.423,183.08c-.25-.038-.134,3.841.147,8.545.141,2.368.294,4.481.422,6.049.07.736.122,1.351.166,1.824a3.311,3.311,0,0,0,.1.672,4.288,4.288,0,0,0,0-.679c0-.48-.051-1.095-.083-1.831-.1-1.594-.218-3.713-.358-6.049s-.25-4.449-.346-6.043A14.572,14.572,0,0,1,84.423,183.08Z" transform="translate(-70.473 -129.025)"/><path class="e" d="M100.32,237.47a5.035,5.035,0,0,0,.723.365c.23.115.525.243.864.378s.73.3,1.171.448a30.232,30.232,0,0,0,3.117.935,32.518,32.518,0,0,0,3.924.64,33.1,33.1,0,0,0,3.975.154,30.433,30.433,0,0,0,3.2-.269c.461-.058.871-.141,1.229-.2s.672-.128.922-.192a5.766,5.766,0,0,0,.781-.2,4.609,4.609,0,0,0-.794.115c-.256.045-.563.1-.928.147s-.775.122-1.229.16a31.475,31.475,0,0,1-3.2.218,37.2,37.2,0,0,1-3.943-.166,35.063,35.063,0,0,1-3.9-.64c-1.184-.275-2.24-.576-3.117-.871-.442-.134-.826-.288-1.171-.41s-.64-.243-.883-.339A5.524,5.524,0,0,0,100.32,237.47Z" transform="translate(-76.244 -148.6)"/><path class="e" d="M108.643,171.17l-1.575,17.923a1.139,1.139,0,0,0,1.037,1.21l11.471,1.21a1.159,1.159,0,0,0,1.28-.986l2.3-18.7a1.139,1.139,0,0,0-.99-1.271,1.121,1.121,0,0,0-.131-.009l-12.2-.41A1.159,1.159,0,0,0,108.643,171.17Z" transform="translate(-78.672 -124.367)"/><path class="i" d="M105.627,186.66c-.314,0-7.111,1.171-7.111,1.171l-9.64,4.852L84.19,199.36,89,208l2.631-7.464a12.41,12.41,0,0,0,4.4.64c2.068-.186,8.635-.64,8.635-.64l3.386-1.792a9.243,9.243,0,0,0,1.095-2.183.768.768,0,0,0-1.184-.64,17.616,17.616,0,0,1-6.612,0s6.913-.461,7.8-1.549.6-1.92-.486-1.92-5.038.557-6.222.454-2.663-.1-2.957-.64.6-1.043.6-1.043l1.28-.947s5.031-.839,5.332-1.882a1.222,1.222,0,0,0-1.075-1.735Z" transform="translate(-70.439 -130.313)"/><path class="i" d="M117.2,186.125s5.761.915,6.132,1.28,7.6,8.961,7.6,8.961l1.76,1.626-4.564,5.921-.922-.538-6.491-3.412a10.662,10.662,0,0,0-2.061-.64s-6.561-1.018-6.983-1.773-.179-.941.307-1.056a39.249,39.249,0,0,1,5.281.486,14.2,14.2,0,0,0,2.618,0s-2.727-.64-3.341-.832-6.715-1.536-6.619-2.56.864-1.434,4.679-.429a28.263,28.263,0,0,0,6.439,1.011l-8.436-2.855s-3.4-1.063-2.3-2,8.385,1.018,8.385,1.018l3.2,1.178-.9-1.876a43.158,43.158,0,0,1-5.166-1.76c-.723-.55-.826-1.056-.275-1.5A2.479,2.479,0,0,1,117.2,186.125Z" transform="translate(-79.699 -130.105)"/><path class="i" d="M154.41,202l-9.6,1.088-.262,2.362-2.2-2.311-3.994,6.452s1.415,4.41,2.176,6.849c2.036,6.529,5.358,13.833,9.454,13.442,4.916-.435,7.3-5.543,7.227-9.173C157.15,217.465,154.41,202,154.41,202Z" transform="translate(-89.931 -135.834)"/><path class="i" d="M65.148,201.857l8.667,2.132,2.644.557L78.9,201.07l3.911,7.425s-1.427,4.41-2.2,6.843c-2.055,6.523-5.4,13.826-9.493,13.442-4.916-.442-8.5-6.055-8.411-9.685C62.767,215.8,65.148,201.857,65.148,201.857Z" transform="translate(-62.707 -135.499)"/><path class="k" d="M130.9,196.234s-.064-.09-.192-.25l-.6-.717-2.26-2.74-3.636-4.3-.55-.64-.288-.32a1.279,1.279,0,0,0-.429-.2c-.582-.166-1.184-.288-1.811-.416-1.242-.25-2.56-.474-3.949-.7h0a3.212,3.212,0,0,0-1.075-.051,1.377,1.377,0,0,0-.531.179,1.159,1.159,0,0,0-.4.4.7.7,0,0,0-.064.576,1.4,1.4,0,0,0,.32.48,2.174,2.174,0,0,0,.461.358,5.619,5.619,0,0,0,.525.23c1.421.538,2.944.992,4.481,1.453l-.064-.051.909,1.875.134-.141-3.2-1.178h0c-1.383-.358-2.8-.685-4.269-.947a21.5,21.5,0,0,0-2.253-.294,7,7,0,0,0-1.159,0,2,2,0,0,0-.6.134.767.767,0,0,0-.448.467.641.641,0,0,0,.2.608,2.4,2.4,0,0,0,.467.384,7.088,7.088,0,0,0,1.056.531c.736.3,1.491.518,2.24.781l4.577,1.543,2.484.839.038-.218a29.539,29.539,0,0,1-5.966-.89,28.326,28.326,0,0,0-2.887-.64,4.286,4.286,0,0,0-1.485,0,1.1,1.1,0,0,0-.64.39,1.2,1.2,0,0,0-.224.711.525.525,0,0,0,.186.371,1.428,1.428,0,0,0,.288.23,4.251,4.251,0,0,0,.64.339c.429.2.871.352,1.28.506.877.288,1.754.531,2.618.762l1.28.326c.416.109.832.25,1.28.346.839.211,1.664.4,2.477.582v-.192a11.4,11.4,0,0,1-2.848-.038c-.935-.134-1.843-.23-2.74-.32-.448-.038-.89-.077-1.325-.1h-.64a2.226,2.226,0,0,0-.346,0,1.715,1.715,0,0,0-.32.109.48.48,0,0,0-.25.275.7.7,0,0,0,0,.346c.032.1.077.2.115.294l.077.134a.49.49,0,0,0,.115.141,3.83,3.83,0,0,0,1.139.486,40.768,40.768,0,0,0,4.372.947l1,.166a9.426,9.426,0,0,1,2.631.781l4.7,2.426,1.242.64.32.16c.077.032.109.051.115.045l-.1-.058-.314-.173-1.229-.64-4.673-2.477a12.163,12.163,0,0,0-3.661-.986,41.924,41.924,0,0,1-4.353-.96,3.73,3.73,0,0,1-1.069-.461.266.266,0,0,1-.077-.09l-.07-.128a2.394,2.394,0,0,1-.1-.269.307.307,0,0,1,.131-.414l.017-.008a1.2,1.2,0,0,1,.282-.09,1.475,1.475,0,0,1,.3,0h.64l1.319.115c.89.083,1.805.186,2.727.32a11.541,11.541,0,0,0,2.9.051.1.1,0,0,0,.1-.108h0a.109.109,0,0,0-.077-.09h0c-.807-.186-1.632-.378-2.464-.589-.422-.1-.826-.23-1.28-.346l-1.28-.333c-.864-.224-1.735-.467-2.605-.762a13.654,13.654,0,0,1-1.28-.493,4.929,4.929,0,0,1-.6-.326c-.173-.115-.378-.275-.378-.429a1.079,1.079,0,0,1,.179-.576.892.892,0,0,1,.538-.307,4.293,4.293,0,0,1,1.4,0,26.005,26.005,0,0,1,2.861.64,29.419,29.419,0,0,0,6.023.9.109.109,0,0,0,.115-.1v-.006a.1.1,0,0,0-.077-.109h0l-2.484-.839-4.577-1.543c-.749-.262-1.511-.486-2.221-.775a6.649,6.649,0,0,1-1.024-.512,2.261,2.261,0,0,1-.422-.346.436.436,0,0,1-.147-.4c.1-.294.474-.41.839-.435a6.623,6.623,0,0,1,1.127,0c.749.051,1.491.166,2.221.288,1.459.262,2.88.582,4.257.935h0l3.2,1.171a.115.115,0,0,0,.141-.058.124.124,0,0,0,0-.083l-.909-1.869a.14.14,0,0,0-.064-.058c-1.568-.454-3.1-.9-4.481-1.434-.173-.07-.346-.141-.506-.218a1.8,1.8,0,0,1-.41-.326c-.25-.237-.41-.57-.23-.839a1.05,1.05,0,0,1,.8-.5,3.079,3.079,0,0,1,1,.045h0c1.389.218,2.708.442,3.949.685.64.122,1.229.243,1.792.4a1.108,1.108,0,0,1,.371.16c.1.1.192.2.282.314.192.211.371.422.55.64l3.674,4.276,2.324,2.708.64.7A.99.99,0,0,0,130.9,196.234Z" transform="translate(-79.663 -130.03)"/><path class="k" d="M145.079,204.45c-.064.051,2.919,3.655,6.67,8.046s6.849,7.905,6.919,7.854-2.919-3.655-6.67-8.052S145.15,204.392,145.079,204.45Z" transform="translate(-92.353 -136.716)"/><path class="k" d="M71.26,217.506c.051,0,.39-.787,1.1-2.023a42.2,42.2,0,0,1,3.156-4.583c1.338-1.722,2.618-3.239,3.5-4.372.442-.563.794-1.031,1.024-1.357a2.221,2.221,0,0,0,.326-.531,3.069,3.069,0,0,0-.422.461l-1.095,1.28c-.922,1.1-2.228,2.592-3.572,4.327a32.4,32.4,0,0,0-3.1,4.66,14.432,14.432,0,0,0-.717,1.536A2.423,2.423,0,0,0,71.26,217.506Z" transform="translate(-65.786 -136.784)"/></g><path class="l" d="M272.333,221.34a14.7,14.7,0,0,1-16.539.765,8.54,8.54,0,0,0,.482-3.254s0,0,.008,0a14.742,14.742,0,0,0,16.049,2.493" transform="translate(-114.554 -102.159)"/><path class="l" d="M299.918,219.534c3.894-9.114-6.749-9-6.749-9,.778-8.124-4.691-11.3-5.011-11.478a9.815,9.815,0,0,1,6.6,9.89c12.8.819,5.162,10.585,5.162,10.585" transform="translate(-126.201 -95.037)"/><path class="l" d="M268.657,206.91v0c-1.546-14.594-14.782-8.336-14.782-8.336,2,2.228,1.217,5.494,1.217,5.494s-1.554-.058-1.633-.063c0-.058,0-.116.008-.17,0-.083,0-.17,0-.253a7.131,7.131,0,0,0-6.665-7.135c-.145-.008-.291-.012-.44-.012h-.075a7.081,7.081,0,0,0-.9.067,10.95,10.95,0,0,0-1.77.486,7.15,7.15,0,0,0-4.347,6.092v.012c-.013.166-.017.328-.017.49a7.036,7.036,0,0,0,.312,2.082l.037.124s0,.008,0,.013v.033a9.557,9.557,0,0,0,.328,1.068c4.409,9.994,16.431,4.883,16.431,4.883-.86-2.918,2.107-3.977,2.107-3.977l4.348-2.119a.053.053,0,0,1,.069.02l.524.893a.054.054,0,0,1-.022.075l-4.325,2.161a.449.449,0,0,0-.22.582l.033.079a.443.443,0,0,0,.615.224l4.241-2.162a.052.052,0,0,1,.071.023l.425.815a.053.053,0,0,1-.022.072l-4.116,2.124a.449.449,0,0,0-.191.61l.05.088a.447.447,0,0,0,.611.183l3.889-2.14a.054.054,0,0,1,.072.021l.4.713a.053.053,0,0,1-.02.072l-3.88,2.156a.451.451,0,0,0-.233.395.44.44,0,0,0,.067.233.449.449,0,0,0,.607.149l3.908-2.274a.053.053,0,0,1,.074.02l.339.623a.053.053,0,0,1-.015.069c-.133.093-.732.492-3.375,2.169-3.93,2.493-5.494-.415-5.494-.415s-.012,0-.017.008a14.7,14.7,0,0,1-16.539.765,7.968,7.968,0,0,1-3.919,4.32,2.22,2.22,0,0,1-1.027.251H224.237a1.518,1.518,0,0,0-1.482,1.836,1.567,1.567,0,0,0,1.551,1.194h19.872a1.555,1.555,0,0,1,1.574,1.42,1.518,1.518,0,0,1-1.51,1.605H214.381a1.515,1.515,0,0,0,0,3.03h40.213a1.561,1.561,0,0,1,1.546,1.191,1.516,1.516,0,0,1-1.479,1.833H231.107a1.52,1.52,0,0,0-1.511,1.434,1.569,1.569,0,0,0,1.592,1.6h22.254c.086,0,.175,0,.261-.009a15.256,15.256,0,0,0,5.425-1.428c5.676-2.685,8.36-8.2,8.892-9.413a.489.489,0,0,0-.035-.453c-2.258-3.738-.438-7.931-.4-8.021h2a7.825,7.825,0,0,0-.053,7.172.369.369,0,0,0,.424.191,8.729,8.729,0,0,0,6.382-7.008c.008-.055.013-.109.017-.164.428-7.559-7.56-7.7-7.7-7.7m-17.292,17.242a1.5,1.5,0,0,1-1.068.444h-2.2a1.515,1.515,0,0,1,0-3.03h2.2a1.514,1.514,0,0,1,1.068,2.585m21.455-5.564c3.894-9.114-6.749-9-6.749-9,.778-8.124-4.691-11.3-5.011-11.478a9.815,9.815,0,0,1,6.6,9.89c12.8.819,5.162,10.585,5.162,10.585" transform="translate(-99.105 -94.091)"/><path class="m" d="M272.333,221.34a14.7,14.7,0,0,1-16.539.765,8.54,8.54,0,0,0,.482-3.254s0,0,.008,0a14.742,14.742,0,0,0,16.049,2.493" transform="translate(-114.554 -102.159)"/><path class="l" d="M225.262,232.591a1.514,1.514,0,1,1-1.514-1.514,1.514,1.514,0,0,1,1.514,1.514" transform="translate(-102.475 -106.561)"/><path class="l" d="M233.6,253.025h-1.573a1.514,1.514,0,1,1,0-3.027H233.6a1.514,1.514,0,1,1,0,3.027" transform="translate(-105.454 -113.37)"/><path class="m" d="M303.593,199.964s-2.034-4.838,1.8-7.109c0,0,2.152,4.868-1.8,7.109" transform="translate(-131.562 -92.804)"/><path class="m" d="M306.46,202.709s2.336-7.482,9.667-6.212c0,0-1.454,7.4-9.667,6.212" transform="translate(-132.789 -94.063)"/><path class="m" d="M299.918,219.534c3.894-9.114-6.749-9-6.749-9,.778-8.124-4.691-11.3-5.011-11.478a9.815,9.815,0,0,1,6.6,9.89c12.8.819,5.162,10.585,5.162,10.585" transform="translate(-126.201 -95.037)"/></svg>