<svg xmlns="http://www.w3.org/2000/svg" width="386.57" height="260.492" viewBox="0 0 386.57 260.492"><defs><style>.a{fill:#fff;}.b{fill:#ebebeb;}.c{fill:#dbdbdb;}.d{fill:#263238;}.e{fill:#a6a6a6;}.f{fill:#ff3c4d;}.g,.n{opacity:0.1;}.g,.o{isolation:isolate;}.h{fill:#37474f;}.i{fill:#c7c7c7;}.j{fill:#d3766a;}.k{fill:#ff9abb;}.l{fill:#ad6359;}.m{fill:#455a64;}.o{opacity:0.2;}</style></defs><g transform="translate(0 0)"><rect class="a" width="58.085" height="126.974" transform="translate(25.204 10.662)"/><path class="b" d="M1314.2,236.924H1249V102.83h65.2Zm-58.085-7.12h50.965V109.95h-50.965Z" transform="translate(-1227.351 -95.728)"/><rect class="b" width="58.085" height="3.595" transform="translate(25.204 72.146)"/><rect class="b" width="58.085" height="3.595" transform="translate(25.204 45.341)"/><rect class="b" width="3.263" height="55.735" transform="translate(66.261 17.473)"/><rect class="b" width="3.263" height="55.735" transform="translate(52.615 17.473)"/><rect class="b" width="3.263" height="55.735" transform="translate(38.969 17.473)"/><rect class="b" width="71.304" height="13.017" transform="translate(18.594 6.515)"/><rect class="c" width="71.304" height="9.078" transform="translate(18.594 6.515)"/><rect class="b" width="80.281" height="13.017" transform="translate(14.103)"/><rect class="a" width="58.085" height="126.974" transform="translate(135.535 10.662)"/><path class="b" d="M1500.169,236.924h-65.2V102.83h65.2Zm-58.085-7.12h50.965V109.95h-50.965Z" transform="translate(-1302.984 -95.728)"/><rect class="b" width="58.085" height="3.595" transform="translate(135.535 72.146)"/><rect class="b" width="58.085" height="3.595" transform="translate(135.535 45.341)"/><rect class="b" width="3.263" height="55.735" transform="translate(176.598 17.467)"/><rect class="b" width="3.263" height="55.735" transform="translate(162.952 17.467)"/><rect class="b" width="3.263" height="55.735" transform="translate(149.306 17.467)"/><rect class="b" width="71.304" height="13.017" transform="translate(128.932 6.515)"/><rect class="c" width="71.304" height="9.078" transform="translate(128.932 6.515)"/><rect class="b" width="80.281" height="13.017" transform="translate(124.441)"/><path class="b" d="M1583.475,390.476l7.927-.166,3.9-.065c1.3-.03,2.587,0,3.88-.036l-.261.267-.036-6.639.3.3-7.873-.006c-2.616,0-5.233-.071-7.855-.1l.166-.16c0,1.086-.053,2.177-.083,3.287Zm0,0-.083-3.287c0-1.1-.065-2.225-.077-3.352v-.16h.16c2.623-.03,5.239-.095,7.855-.1l7.855-.036h.3v7.2h-.267c-1.323,0-2.652,0-3.969-.036l-3.951-.065Z" transform="translate(-1363.316 -209.89)"/><path class="b" d="M1598.245,404.586l7.927-.166,3.9-.065c1.3-.03,2.587,0,3.88-.036l-.261.267-.03-6.639.291.3-7.855-.036c-2.617,0-5.233-.071-7.856-.1l.166-.16c0,1.086-.053,2.177-.077,3.287Zm0,0-.083-3.287c0-1.1-.065-2.225-.077-3.352v-.16h.16c2.622-.03,5.239-.095,7.856-.1l7.855-.036h.3v.3l-.03,6.639v.267h-.3c-1.323,0-2.647,0-3.97-.036l-3.951-.065Z" transform="translate(-1369.323 -215.629)"/><path class="b" d="M1568.685,404.586l7.927-.166,3.9-.065c1.293-.03,2.587,0,3.88-.036l-.261.267-.024-6.639.3.3-7.855-.036c-2.616,0-5.239-.071-7.855-.1l.16-.16c0,1.086-.047,2.177-.077,3.287Zm0,0-.083-3.287c-.03-1.1-.065-2.225-.077-3.352v-.16h.16c2.616-.03,5.239-.095,7.855-.1l7.855-.036h.3v.3l.012,6.639v.267h-.261c-1.323,0-2.652,0-3.969-.036l-3.952-.065Z" transform="translate(-1357.301 -215.629)"/><path class="b" d="M1227.411,404.586l7.921-.166,3.9-.065c1.3-.03,2.593,0,3.886-.036l-.267.267-.03-6.639.3.3-7.838-.036c-2.623,0-5.239-.071-7.855-.1l.16-.16c0,1.086-.053,2.177-.077,3.287Zm0,0-.089-3.287c0-1.1-.065-2.225-.077-3.352v-.16h.166c2.617-.03,5.233-.095,7.855-.1l7.855-.036h.3v.3l-.036,6.639v.267h-.261c-1.323,0-2.652,0-3.975-.036l-3.952-.065Z" transform="translate(-1218.505 -215.629)"/><path class="b" d="M1227.411,102.64l7.921-.166,3.9-.071c1.3,0,2.593,0,3.886-.03l-.267.261-.03-6.633.3.291-7.838-.036c-2.623,0-5.239-.065-7.855-.095l.16-.16c0,1.086-.053,2.177-.077,3.281Zm0,0-.089-3.287c0-1.109-.065-2.231-.077-3.352v-.16h.166c2.617,0,5.233-.095,7.855-.095l7.855-.036h.3v.3l-.036,6.633v.267h-4.236l-3.952-.071Z" transform="translate(-1218.505 -92.832)"/><path class="b" d="M1212.681,116.784l7.921-.16,3.9-.071h3.886l-.285.231v-6.633l.3.291-7.891-.059c-2.622,0-5.239-.065-7.855-.095l.16-.16c0,1.086-.053,2.177-.077,3.281Zm0,0-.089-3.281c0-1.109-.065-2.231-.077-3.352v-.16h.166c2.616,0,5.233-.095,7.855-.095l7.855-.036h.3v.3l-.059,6.621v.267h-4.236l-3.952-.071Z" transform="translate(-1212.515 -98.587)"/><path class="b" d="M1598.245,102.646l7.927-.166,3.9-.065c1.3,0,2.587,0,3.88-.036l-.261.267-.03-6.639.291.3-7.855-.042c-2.617,0-5.233-.065-7.856-.095l.166-.16c0,1.086-.053,2.177-.077,3.281Zm0,0-.083-3.287c0-1.109-.065-2.225-.077-3.352v-.16h.16c2.622,0,5.239-.089,7.856-.095l7.832-.042h.3v.3l-.03,6.639v.267h-.273c-1.323,0-2.647,0-3.97-.03l-3.951-.065Z" transform="translate(-1369.323 -92.832)"/><path class="b" d="M1414.618,229.163l-7.927.166-3.9.065H1398.9l.267-.261.03,6.639-.3-.3,7.861.036c2.616,0,5.233.065,7.855.095l-.166.166c0-1.086.053-2.183.077-3.287Zm0,0,.083,3.281c0,1.109.065,2.231.077,3.358v.16h-.16c-2.622.03-5.239.095-7.855.095l-7.861.042h-.3v-.3l.03-6.639v-.267h.261c1.329,0,2.652,0,3.975.036l3.951.065Z" transform="translate(-1288.196 -146.996)"/><path class="b" d="M1399.814,215.057l-7.921.166-3.9.065c-1.3.03-2.593,0-3.886.03l.267-.261V221.7l-.3-.3,7.856.036c2.622,0,5.239.065,7.855.095l-.16.166c0-1.086.053-2.183.077-3.287Zm0,0,.089,3.281c0,1.109.065,2.231.077,3.358v.16h-.166c-2.616.03-5.233.095-7.855.095l-7.855.042h-.308v-.3l.035-6.639v-.267h.261c1.323,0,2.652,0,3.975.036l3.951.065Z" transform="translate(-1282.173 -141.261)"/></g><g transform="translate(4.699 232.274)"><ellipse class="b" cx="141.593" cy="14.109" rx="141.593" ry="14.109" transform="translate(0)"/></g><g transform="translate(6.532 230.779)"><path class="d" d="M1223.525,480.121l47.5-.142,47.506-.053,95.012-.095,95.012.095,47.506.053,47.5.142-47.5.148-47.506.053-95.012.095-95.012-.095-47.506-.053Z" transform="translate(-1223.525 -479.83)"/></g><g transform="translate(217.045 10.199)"><path class="c" d="M1612.131,183.094l-13.314-71.5-12.305,71.494-.587-.1,12.869-74.757,13.919,74.751Z" transform="translate(-1581.423 -108.123)"/><path class="c" d="M1611.02,308.188l-9.612-35.29-8.888,35.284-.576-.142,9.44-37.479,10.2,37.473Z" transform="translate(-1583.871 -174.141)"/><path class="e" d="M1608.019,109.272a1.222,1.222,0,1,1-1.222-1.222h0a1.216,1.216,0,0,1,1.222,1.21Z" transform="translate(-1589.414 -108.05)"/><path class="f" d="M1611.894,331.96l-.374,4.96-.9,11.813h-19.033l-.9-11.813-.38-4.96Z" transform="translate(-1583.208 -199.112)"/><path class="g" d="M1611.894,331.96l-.374,4.96h-20.825l-.38-4.96Z" transform="translate(-1583.208 -199.112)"/><rect class="f" width="24.189" height="3.851" transform="translate(5.802 131.258)"/><path class="h" d="M1612.519,324.708a1.186,1.186,0,0,1-1.3,1.063h-.006a1.229,1.229,0,0,1-1.383.4,3.025,3.025,0,0,0-2.213,2.533.878.878,0,0,1-.908.623,1.447,1.447,0,0,1-1.068-.748,1.1,1.1,0,0,1-1.546.215c-.028-.021-.054-.043-.08-.066a.9.9,0,0,1-.2-.985.94.94,0,0,1-.214-.137,1.394,1.394,0,0,1-.379-1.187,1.316,1.316,0,0,1-.985,0,.765.765,0,0,1-.688.593,1.335,1.335,0,0,1-.225,1.187,1.417,1.417,0,0,1-1.24.469,1.685,1.685,0,0,1-.421,1.821.95.95,0,0,1-.973.095,1.234,1.234,0,0,1-1.445.98l-.08-.018a1.6,1.6,0,0,1-.148,1.187,1.074,1.074,0,0,1-.813.528c0,.635-.273,1.323-1.014,1.311a.749.749,0,0,1-.722-.773.827.827,0,0,1,.016-.129.943.943,0,0,1-.48-1.56,1.364,1.364,0,0,1-.225-1.916,1.338,1.338,0,0,1,.225-.225A.9.9,0,0,1,1594,328.7l.047-.045a1.218,1.218,0,0,1-.433-.949,1.324,1.324,0,0,1,.688-1.062.594.594,0,0,1-.333-.332.464.464,0,0,1,0-.1.871.871,0,0,1-.7,0,.766.766,0,0,1-.35-.32,1.448,1.448,0,0,1-1.388.344,1.187,1.187,0,0,1-1.61.475,1.21,1.21,0,0,1-.17-.113c-.433.392-1.032.771-1.6.415a.713.713,0,0,1-.32-.641.8.8,0,0,1-.724-.427.753.753,0,0,1,.2-.92.706.706,0,0,1-.273-.409.836.836,0,0,1,.736-.926c.026,0,.051,0,.077-.005a1.187,1.187,0,0,1,.225-1.187,1.68,1.68,0,0,1,1.359-.486,1.472,1.472,0,0,1,.724-1.525,1.186,1.186,0,0,1,1.471.356,1.915,1.915,0,0,1,3.038-.2.949.949,0,0,1,1.187-.481,1.555,1.555,0,0,1,.9,1.554,1.856,1.856,0,0,1,1.893.148,1.894,1.894,0,0,1,.73,1.572,1.685,1.685,0,0,1,1.78.107,3.692,3.692,0,0,1,1.887-1.442,1.78,1.78,0,0,1,1.542.326,2.112,2.112,0,0,1,3.845-.487,1.489,1.489,0,0,1,1.566-.2,2.813,2.813,0,0,1,1.377,1.78,1.145,1.145,0,0,1,1.157,1.133C1612.52,324.676,1612.52,324.692,1612.519,324.708Z" transform="translate(-1581.869 -194.245)"/><path class="f" d="M1613.036,234.75l-.5,6.633-1.2,15.782H1585.9l-1.2-15.782-.51-6.633Z" transform="translate(-1580.719 -159.578)"/><path class="g" d="M1613.036,234.75l-.5,6.633h-27.826l-.51-6.633Z" transform="translate(-1580.719 -159.578)"/><rect class="f" width="32.329" height="5.15" transform="translate(1.738 73.048)"/><path class="h" d="M1611.662,226.6a1.881,1.881,0,0,1,.392,1.78,3.429,3.429,0,0,1-1.976,1.78,2.112,2.112,0,0,1-.464,2.95,2.012,2.012,0,0,1-.242.152c.771.9,1.086,1.928.089,2.593a2.32,2.32,0,0,1-.59,3.227c-.036.025-.073.049-.11.072.219.712-.469,2.842-1.928,2.842a1.543,1.543,0,0,1-1.341-2.284,1.779,1.779,0,0,1-.415-2.854s-.9.19-1.335-.267a1.233,1.233,0,0,1-.071-1.216,2.065,2.065,0,0,1,.316-2.9c.049-.039.1-.076.153-.111a1.7,1.7,0,0,1,0-2.551,2.373,2.373,0,0,1-1-.86c-.742.356-1.187.042-1.59-.653a1.721,1.721,0,0,1-1.845.487,2.029,2.029,0,0,1-2.516,1.379,2.007,2.007,0,0,1-.45-.193,2.825,2.825,0,0,1-.558,1.513,4.992,4.992,0,0,1-.339.368,2.856,2.856,0,0,0-.326.534,2.377,2.377,0,0,1-.671.771,1.258,1.258,0,0,1-1.679-.071.972.972,0,0,1-.154-1,1.293,1.293,0,0,1-.807-1.638,1.573,1.573,0,0,1-1.548-.9,1.661,1.661,0,0,1-1.27.635,1.869,1.869,0,0,1-1.062,2.373,1.923,1.923,0,0,1-.648,2.64,1.787,1.787,0,0,1-.177.095,1.347,1.347,0,0,1-.392,1.78,1.781,1.781,0,0,1-.065,1.549,1.128,1.128,0,0,1-1.05.5.825.825,0,0,1-.5-1.234,2.083,2.083,0,0,1-.753-3.429,1.7,1.7,0,0,1-1-2.587,1.78,1.78,0,0,1-1.335-1.353,1.723,1.723,0,0,1,.368-1.371,1.015,1.015,0,0,1-.926-.344.916.916,0,0,1-.19-.593,1.311,1.311,0,0,1-1.418-.593,1.281,1.281,0,0,1,.261-1.5,1.092,1.092,0,0,1-.73-.783,1.03,1.03,0,0,1,.083-.659,1.264,1.264,0,0,1-1.5-.975c-.007-.028-.011-.058-.016-.087a1.026,1.026,0,0,1,.688-1.074,1.291,1.291,0,0,1-.095-.825c.19-.783,1.1-1.026,1.815-1.115a1.614,1.614,0,0,1,1.78-2.112,1.668,1.668,0,0,1,.771-1.549,1.573,1.573,0,0,1,1.745.136h.047a1.964,1.964,0,0,1,1.661,1.9,2.023,2.023,0,0,1,1.922,0,2.841,2.841,0,0,1,1.329,1.958,2.291,2.291,0,0,1,3.679.475,2.1,2.1,0,0,1,3.625,1.187,5.208,5.208,0,0,1,4.889-.961,14.156,14.156,0,0,0,5.838-2.5,3.447,3.447,0,0,1,2.593,2.148,2.331,2.331,0,0,1,2.047,3.067,1.7,1.7,0,0,1-.939,2.208Z" transform="translate(-1578.336 -152.257)"/></g><g transform="translate(263.073 0)"><rect class="i" width="95.938" height="222.099" transform="translate(8.573 8.971)"/><rect class="e" width="95.938" height="24.195" transform="translate(8.573 206.875)"/><rect class="c" width="5.025" height="222.099" transform="translate(8.573 8.971)"/><path class="b" d="M1733.437,316.563l-54.6,11.516V105.98l54.6,16.233Z" transform="translate(-1665.236 -97.009)"/><path class="e" d="M1691.234,367.14c.059,2.094.095,4.195.137,6.295s.071,4.2.095,6.3q.089,6.3.119,12.6c.03,4.2,0,8.4.03,12.6s0,8.407-.041,12.614l-.327-.522q3.275-.5,6.526-.949l3.281-.409c1.092-.136,2.183-.267,3.275-.368-1.092.279-2.183.528-3.275.783l-3.281.742q-3.275.718-6.526,1.359l-.326.065v-.593c0-4.2-.036-8.407-.047-12.614s0-8.419.036-12.632.053-8.425.107-12.637q.036-3.157.1-6.319C1691.145,371.347,1691.18,369.246,1691.234,367.14Z" transform="translate(-1670.13 -203.221)"/><path class="e" d="M1708.115,400.825c-.059-2.32-.1-4.646-.131-6.971s-.077-4.646-.1-6.977q-.083-6.977-.119-13.966c-.036-4.663,0-9.321-.048-13.984s0-9.327.036-13.99l.338.558q-4.076.077-8.146.065-2.029,0-4.07-.047c-1.353,0-2.711-.042-4.07-.095,1.359-.136,2.717-.243,4.07-.344s2.717-.208,4.07-.285q4.076-.261,8.146-.427h.332v.593c.036,4.652.036,9.309.047,13.961s0,9.309-.03,13.966-.053,9.315-.107,13.972q-.036,3.495-.1,7C1708.2,396.156,1708.168,398.493,1708.115,400.825Z" transform="translate(-1670.511 -193.956)"/><path class="e" d="M1730.055,364.86c.059,1.982.095,3.969.136,5.933s.077,3.975.1,5.963q.089,5.933.119,11.92c.036,3.969,0,7.944.042,11.92s0,7.956-.036,11.937l-.332-.487c2.189-.344,4.373-.67,6.562-.961l3.275-.421c1.092-.136,2.189-.273,3.281-.38-1.092.279-2.183.528-3.281.771l-3.275.736q-3.287.712-6.562,1.347l-.326.065v-.552q-.053-5.974-.053-11.943V388.753c0-3.987.053-7.974.107-11.961q.036-2.966.095-5.981C1729.966,368.817,1730,366.854,1730.055,364.86Z" transform="translate(-1685.925 -202.293)"/><path class="e" d="M1746.939,396.585c-.059-2.189-.095-4.385-.13-6.58s-.083-4.385-.107-6.586q-.089-6.586-.124-13.189c-.036-4.4-.036-8.8-.054-13.207s0-8.8.03-13.207l.332.522q-4.07.077-8.14.071c-1.353,0-2.711,0-4.07-.036s-2.711-.036-4.07-.083c1.359-.13,2.717-.231,4.07-.332s2.717-.2,4.07-.279c2.717-.16,5.429-.3,8.14-.409h.332v.54c.036,4.4.036,8.793.053,13.183s0,8.787,0,13.189-.053,8.793-.1,13.2c0,2.2-.053,4.408-.089,6.609S1746.992,394.378,1746.939,396.585Z" transform="translate(-1686.291 -193.513)"/><path class="e" d="M1691.217,198.53c.059,2.112.1,4.218.131,6.325s.077,4.218.1,6.325q.078,6.307.113,12.62c0,4.207,0,8.407.036,12.608s0,8.4-.042,12.6l-.332-.593c2.184.172,4.367.356,6.526.593l3.269.35c1.092.125,2.184.243,3.275.4h-6.544c-2.183,0-4.366-.089-6.526-.166h-.32V249q-.042-6.319-.047-12.632c0-4.207,0-8.419.03-12.62s.059-8.413.113-12.614c0-2.1.053-4.195.095-6.295S1691.157,200.63,1691.217,198.53Z" transform="translate(-1670.125 -134.648)"/><path class="e" d="M1708.039,236.82c-.053-2.332-.089-4.663-.131-7s-.077-4.669-.1-7q-.077-7.007-.119-14c-.03-4.669-.03-9.327-.042-13.99s0-9.327,0-13.978l.338.635c-2.711-.593-5.417-1.187-8.128-1.833-1.353-.314-2.706-.653-4.058-1s-2.711-.67-4.064-1.044c1.353.178,2.705.4,4.064.593s2.706.427,4.058.665q4.07.694,8.128,1.465l.332.065V181c.036,4.657.036,9.309.047,13.966s0,9.309,0,13.955-.053,9.3-.107,13.955c0,2.326-.053,4.646-.095,6.971S1708.093,234.524,1708.039,236.82Z" transform="translate(-1670.483 -126.145)"/><path class="e" d="M1729.955,205.29c.06,2,.1,3.993.136,5.986s.077,3.993.1,5.986q.089,5.969.119,11.943c.036,3.981.036,7.956.042,11.931s0,7.95-.036,11.926l-.332-.564c2.183.166,4.367.35,6.526.564l3.269.344c1.092.119,2.183.231,3.275.38h-3.275l-3.269-.03c-2.183-.03-4.367-.095-6.526-.178h-.32v-.552c-.036-3.987-.041-7.968-.053-11.955s0-7.962,0-11.943.053-7.962.107-11.937q.036-2.966.095-5.933C1729.867,209.253,1729.9,207.266,1729.955,205.29Z" transform="translate(-1685.885 -137.398)"/><path class="e" d="M1746.789,241.577c-.059-2.207-.095-4.408-.136-6.609s-.077-4.408-.1-6.609q-.089-6.615-.124-13.219c-.036-4.408-.036-8.811-.053-13.213s0-8.8,0-13.2l.332.593q-4.058-.872-8.122-1.827c-1.353-.309-2.711-.641-4.064-.979s-2.706-.67-4.064-1.032c1.359.184,2.712.4,4.064.593s2.705.427,4.064.665q4.058.706,8.122,1.483l.332.065v.54c.036,4.4.036,8.793.047,13.189s0,8.787,0,13.177-.047,8.781-.1,13.171q-.035,3.293-.095,6.586C1746.878,237.181,1746.842,239.382,1746.789,241.577Z" transform="translate(-1686.23 -129.341)"/><path class="e" d="M1691.215,136.32c.113,2.213.184,4.408.237,6.6s.089,4.385.113,6.574l-.35-.694c1.092.22,2.184.463,3.269.712s2.177.528,3.269.831,2.177.593,3.269.949,2.177.7,3.269,1.127c-1.092-.077-2.177-.214-3.269-.38s-2.178-.344-3.269-.552-2.177-.439-3.269-.676-2.177-.5-3.269-.789l-.35-.089v-.593c0-2.183.053-4.355.107-6.526S1691.1,138.474,1691.215,136.32Z" transform="translate(-1670.129 -109.348)"/><path class="e" d="M1708.026,149.821c-.059-1.222-.095-2.444-.13-3.661s-.077-2.439-.1-3.649q-.089-3.649-.119-7.292l.344.67c-1.353-.309-2.711-.682-4.064-1.026s-2.706-.736-4.058-1.151-2.705-.825-4.058-1.276c-.676-.22-1.359-.463-2.035-.712s-1.353-.487-2.029-.765c.676.089,1.353.208,2.029.326s1.359.231,2.035.374c1.353.273,2.706.593,4.058.9s2.705.676,4.058,1.026,2.706.736,4.064,1.151l.344.1v.593q0,3.613-.106,7.221-.036,1.78-.095,3.6C1708.115,147.424,1708.079,148.623,1708.026,149.821Z" transform="translate(-1670.499 -107.168)"/><path class="e" d="M1729.925,146.4c.112,2.094.184,4.153.237,6.253s.1,4.153.119,6.224l-.35-.664c1.092.225,2.177.463,3.269.718s2.177.528,3.269.825,2.177.593,3.263.937,2.183.694,3.269,1.109c-1.086-.089-2.177-.231-3.263-.4s-2.184-.356-3.269-.593-2.177-.445-3.269-.682-2.177-.5-3.269-.783l-.356-.089v-.593c0-2.065.053-4.124.107-6.176S1729.812,148.435,1729.925,146.4Z" transform="translate(-1685.872 -113.448)"/><path class="e" d="M1746.736,159.384c-.059-1.187-.1-2.308-.13-3.459s-.077-2.3-.107-3.447c-.053-2.3-.095-4.592-.113-6.882l.338.635c-1.353-.314-2.705-.682-4.058-1.032s-2.711-.736-4.064-1.145-2.706-.819-4.058-1.264c-.676-.22-1.353-.463-2.029-.706s-1.353-.481-2.029-.754c.677.095,1.353.22,2.029.338s1.353.243,2.029.386c1.353.279,2.706.593,4.058.908s2.706.682,4.064,1.032,2.705.736,4.058,1.145l.344.107v.534q0,3.406-.1,6.811c0,1.133-.053,2.266-.095,3.4S1746.8,158.257,1746.736,159.384Z" transform="translate(-1686.242 -111.386)"/><path class="a" d="M1746.355,297.9l.018,21.063,6.888-.089-.018-20.7Z" transform="translate(-1692.696 -175.061)"/><path class="b" d="M1749.125,305.76v4.758l5.251-.593-.006-4.017Z" transform="translate(-1693.823 -178.258)"/><path class="a" d="M1749.125,301.75v4.758l9.131.2-.006-4.646Z" transform="translate(-1693.823 -176.627)"/><path class="d" d="M1769.006,90.86V321.93h-8.579V99.831h-95.944v222.1h-8.568V90.86Z" transform="translate(-1655.915 -90.86)"/><path class="j" d="M1753.022,448.779c1.187.344,36.151-1.489,37.378-2.373a56.77,56.77,0,0,0-.148-7.588l.742-25.8-22.095.9-.92,22.356s-4.877,2.474-8.9,4.628h0a47.7,47.7,0,0,0-5.109,2.967C1752.7,444.97,1751.818,448.44,1753.022,448.779Z" transform="translate(-1695.175 -221.88)"/><path class="f" d="M1753.022,466.462c1.187.344,36.15-1.489,37.379-2.373a56.821,56.821,0,0,0-.148-7.588c-8.568,2.243-31.446,6.224-32.223,4.432-.291-.706.225-1.555,1.02-2.344a47.718,47.718,0,0,0-5.108,2.967C1752.7,462.653,1751.817,466.123,1753.022,466.462Z" transform="translate(-1695.174 -239.563)"/><path class="h" d="M1807.379,254.61s-5.553,66.723-5.648,67.536c0,.107,1.068,48.55,1.068,48.55l-24.5.985s.765-42.362,1.4-51.855c.807-12.1,5.34-64.4,5.34-64.4Z" transform="translate(-1705.686 -157.456)"/><path class="d" d="M1780.655,442.414c6.307-.5,20.926-.665,21.763-.665.214,0,.107.184.047.19-2,.273-15.912.736-21.828.73C1780.572,442.67,1780.589,442.414,1780.655,442.414Z" transform="translate(-1706.622 -233.564)"/><path class="d" d="M1809.592,322.14v.546l-11.967-67.424,17.615-.653S1809.687,321.328,1809.592,322.14Z" transform="translate(-1713.547 -157.456)"/><path class="j" d="M1832.024,412.38l-.059-.2.059-.024Z" transform="translate(-1727.513 -221.53)"/><path class="j" d="M1829.541,462.11c-.036.089-.071.172-.1.261v8.306a20.658,20.658,0,0,1-2.456,1.009c-1.246.154-1.78-3.388-1.027-4.907a47.647,47.647,0,0,1,3.483-4.568Z" transform="translate(-1724.929 -241.844)"/><path class="f" d="M1829.44,462.351a2.262,2.262,0,0,0,0,2.231v6.1a20.607,20.607,0,0,1-2.456,1.009c-1.246.154-1.78-3.388-1.027-4.907a47.64,47.64,0,0,1,3.483-4.568l.1-.125C1829.505,462.191,1829.47,462.274,1829.44,462.351Z" transform="translate(-1724.929 -241.836)"/><path class="h" d="M1815.147,254.43V354.486c-3-10.81-6.764-24.818-8.449-32.887-.356-1.715-.593-3.156-.759-4.248-1.335-10.181-3.032-31.03-4-46.171h0s-2.9-1.78-4.972-3.275a12.789,12.789,0,0,1-1.827-1.507l-.047-.053c-.908-1.074-1.922-4.8-3.6-8.745-.077-.178-.154-.362-.237-.546s-.148-.338-.231-.51-.232-.51-.356-.759c-.059-.142-.13-.279-.2-.415l2.545-.095,1.7-.065,17.615-.653,1.068-.042Z" transform="translate(-1710.635 -157.382)"/><path class="d" d="M1797.128,274.067a23.152,23.152,0,0,1,4.29,2.462c1.424.943,2.723,2.041,4.094,3.056.053.036,0,.125-.053.089-1.442-.9-2.967-1.679-4.367-2.6a27.756,27.756,0,0,1-4.029-2.9C1797.015,274.133,1797.068,274.044,1797.128,274.067Z" transform="translate(-1713.311 -165.367)"/><path class="d" d="M1796.565,259.165c.2.979.445,1.94.67,2.907s.362,1.839.593,2.741a4.666,4.666,0,0,0,1.305,2.278c.362.332.76.593,1.145.92.208.16.433.314.647.481a2.266,2.266,0,0,0-.077-.392c-.071-.374-.136-.742-.2-1.115-.148-.819-.291-1.643-.427-2.468-.273-1.614-.522-3.251-.878-4.853a.053.053,0,0,1,.1,0c.421,1.584.89,3.15,1.264,4.747.178.783.842,4.663.878,4.936s.059.593.071.854a3.582,3.582,0,0,1,0,.872.071.071,0,0,1-.094.037.07.07,0,0,1-.037-.037h0a3.5,3.5,0,0,1-.261-.843c-.071-.279-.136-.558-.19-.837a1.945,1.945,0,0,0-.053-.314c-.385-.225-.747-.528-1.1-.783s-.789-.54-1.187-.842a4.393,4.393,0,0,1-1.424-2.166,16.417,16.417,0,0,1-.493-2.783c-.136-1.1-.237-2.213-.409-3.311C1796.458,259.129,1796.553,259.1,1796.565,259.165Z" transform="translate(-1713.051 -159.293)"/><path class="d" d="M1812.8,180.2h0v6.96l-1-.095c-.059-.16-.125-.332-.19-.516l-.172-.51c-.077-.237-.154-.492-.231-.759-.053-.166-.1-.332-.142-.51s-.136-.5-.2-.759c-.042-.166-.083-.338-.119-.51s-.113-.5-.16-.759c-.036-.166-.065-.338-.089-.51s-.089-.5-.125-.759l-.071-.51c0-.249-.059-.5-.083-.759a2.156,2.156,0,0,0-.041-.51,4.765,4.765,0,0,1-.042-.759c-.006-.255,0-.338,0-.51h0c0,.047-.042.231-.095.51s-.083.463-.142.759a3.418,3.418,0,0,1-.089.51c-.03.178-.083.492-.13.759a3.4,3.4,0,0,1-.083.51c-.03.178-.083.5-.125.759l-.071.51c-.042.249-.077.5-.113.759l-.071.51-.089.759a4.786,4.786,0,0,1-.059.51c0,.261-.047.516-.065.759s-.03.344-.036.51v.214l-.326-.036-.332-.036-.32-.036h-.142l-.837-.095h-.053c-.036-.166-.065-.332-.1-.5s-.083-.5-.125-.759l-.071-.51c-.03-.243-.059-.5-.077-.759,0-.166-.03-.338-.042-.51s0-.445,0-.676a.411.411,0,0,1,0-.083.536.536,0,0,1,0-.095v.095a7.419,7.419,0,0,1-.148.759,3.079,3.079,0,0,1-.089.51c-.036.19-.089.487-.136.759a4.1,4.1,0,0,1-.077.51c-.024.178-.083.5-.125.759l-.053.374-3.317-.374-2.569-.3-.694-.083-3.18-.38-4.248-.51-1.05-.125c.048-.214.089-.427.125-.635s.059-.338.089-.51.071-.51.095-.759.042-.344.053-.51c0-.261.042-.516.048-.759v-.51a.364.364,0,0,0,0-.113.053.053,0,0,0,0-.03v-.771c-.059-2.083-.463-3.287-.457-2.919a13.713,13.713,0,0,1-.748,4.746,10.669,10.669,0,0,1-1.252,2.5h-.273l-3.744-.457c-.807-.089,2.593-2.373,2.658-4.883s-1.4-5.162.125-8.757a18.87,18.87,0,0,1,1.489-2.83,18.957,18.957,0,0,0,2.64-4.794h0v-.053a3.818,3.818,0,0,0,.131-.753c.184-1.78,0-5.34.854-8.591.083-.338.184-.67.291-1a10.429,10.429,0,0,1,.647-1.531,6.959,6.959,0,0,1,4.408-3.708h.042a8.769,8.769,0,0,1,9.214,2.694c4.4,1.833,3.323,8.306,2.86,11.866a4.9,4.9,0,0,0,0,1.187,8.034,8.034,0,0,0,2.112,4.082v.03l.516.665v12.59A.368.368,0,0,0,1812.8,180.2Z" transform="translate(-1708.277 -113.55)"/><path class="d" d="M1829.985,176.154v1l-.208-.22-.309-.326v-.03a11.059,11.059,0,0,1-1.869-2.545,6.083,6.083,0,0,1-.593-3.56,6.637,6.637,0,0,0,.35,2.005,6.049,6.049,0,0,0,.629,1.329A12.127,12.127,0,0,0,1829.985,176.154Z" transform="translate(-1725.474 -123.237)"/><path class="d" d="M1792.725,153.53a18.279,18.279,0,0,0-1.388,4.153c-.326,1.436-.593,2.889-.813,4.331l-.368,2.16a10.741,10.741,0,0,1-.528,2.041,11.741,11.741,0,0,1-2.314,3.518,16.13,16.13,0,0,0-1.359,1.78,10.22,10.22,0,0,0-1,2.065,14.607,14.607,0,0,0-.534,2.207,9.448,9.448,0,0,0-.095,2.278c.059.759.2,1.489.309,2.2a11.271,11.271,0,0,1,.13,2.142,4.515,4.515,0,0,1-2.118,3.53,4.586,4.586,0,0,0,2.575-3.489,10.935,10.935,0,0,0,0-2.249c-.053-.748-.166-1.465-.178-2.172a11.677,11.677,0,0,1,.736-4.153,10.315,10.315,0,0,1,.937-1.863,15.79,15.79,0,0,1,1.305-1.7,20.851,20.851,0,0,0,1.377-1.78,8.9,8.9,0,0,0,1.056-2.047,11.6,11.6,0,0,0,.5-2.219c.113-.736.2-1.46.279-2.189.178-1.454.327-2.907.54-4.355A21.1,21.1,0,0,1,1792.725,153.53Z" transform="translate(-1707.455 -116.347)"/><path class="j" d="M1795.816,191.755c-1.418,8.069-4,21.246-9.03,27.648a29,29,0,0,1-15.871,10.009V212.046c.51-.273,6.2-2.439,8.253-4.325,1.715-1.578,4.551-8.342,11.647-17.087C1793.983,186.723,1796.51,187.8,1795.816,191.755Z" transform="translate(-1702.685 -130.442)"/><path class="f" d="M1789.155,202.824l11.231,5.227s2.3-8.953,3.127-15.379c.86-6.681-2.373-7.161-7.072-.932A100.265,100.265,0,0,0,1789.155,202.824Z" transform="translate(-1710.103 -130.102)"/><path class="d" d="M1801.806,214.5c-1.531-.884-6.526-2.878-7.316-3.216-.433-.184-2.183-.819-2.61-1-.053,0-.083.065,0,.089.813.344,1.6.777,2.415,1.127s5.8,2.569,7.511,3.061C1801.818,214.586,1801.841,214.52,1801.806,214.5Z" transform="translate(-1711.189 -139.431)"/><path class="f" d="M1814.061,196.123h0v33.67h-3.079c-5.8,0-12.288-.036-16.921-.083h-1.05c-.985,0-1.863,0-2.611-.036h-2.634l.077-.516.071-.51.113-.759.071-.51.113-.759.071-.51.113-.759.071-.51.113-.759.077-.51.042-.3.065-.457.077-.51.107-.759.077-.51.107-.754.077-.516.107-.754.077-.516.113-.753.071-.516.113-.754.072-.516.112-.754.071-.516.113-.754.077-.516.107-.754.053-.368h0a.189.189,0,0,1-.03-.053.1.1,0,0,0-.041-.077h0a.392.392,0,0,1-.036-.071l-.071-.125c-.071-.142-.166-.332-.273-.558l-.231-.516c-.095-.231-.2-.481-.3-.754-.059-.166-.125-.338-.178-.516s-.16-.492-.231-.753c-.048-.166-.089-.338-.131-.516s-.107-.5-.148-.754a2.724,2.724,0,0,0-.071-.421v-.095c0-.249-.053-.5-.065-.754s0-.338,0-.51a5.154,5.154,0,0,1,.042-.759c.042-.249.042-.338.071-.51a.478.478,0,0,1,.042-.237,5.2,5.2,0,0,1,.136-.522c.048-.16.107-.332.172-.51s.083-.231.136-.35h0a4.139,4.139,0,0,1,.167-.386h0c.071-.166.148-.338.231-.51s.237-.5.368-.759l.267-.51.142-.255a.11.11,0,0,1,.042-.083l.237-.421c.089-.166.19-.338.291-.51s.291-.5.445-.759l.309-.51.475-.759c.042-.065.083-.136.131-.2s.13-.2.2-.309l.089-.142.4-.593.338-.51c.166-.255.338-.51.51-.759l.344-.51.522-.759.178-.255.107-.154.071-.1c.178-.261.356-.51.534-.754l.368-.516.546-.754.38-.516c.2-.267.385-.522.563-.753l.392-.516c.225-.3.421-.546.593-.754s.3-.38.4-.481h0l.059-.065.3-.291.077-.065a4.978,4.978,0,0,1,.4-.332c.154-.119.308-.237.469-.338a2.817,2.817,0,0,1,.279-.178,6.568,6.568,0,0,1,5.874-.617,6.914,6.914,0,0,1,.973.463,5.6,5.6,0,0,1,.54.32,3.162,3.162,0,0,1,.291.2,9.375,9.375,0,0,1,.759.593h0l.178.16.065.059h0l.178.166c.1.095.2.19.3.291s.225.225.332.344l.362.409a.8.8,0,0,1,.06.077l.344.427h0c.178.237.362.487.534.754q.178.249.338.516c.154.243.309.492.463.754.095.172.2.344.3.516l.4.754.255.51c.125.249.249.5.374.759.077.166.16.338.237.51s.231.5.344.759c.071.154.143.32.214.481h0S1814.054,196.117,1814.061,196.123Z" transform="translate(-1709.537 -129.477)"/><path class="g" d="M1787.946,229.227l-.071.51h26.218v-.51Zm.184-1.27-.071.51h26.035v-.51Zm.184-1.27-.071.51h25.851v-.51Zm.184-1.27-.071.51h25.667v-.516Zm.19-1.27-.077.51h25.483v-.51Zm.184-1.27-.077.51h25.3v-.51Zm.184-1.27-.077.51h25.115v-.51Zm.184-1.27-.077.516h24.919v-.516Zm.184-1.27-.077.516h24.747v-.516Zm.184-1.27-.071.516h24.557V217.8Zm.184-1.27-.071.516h24.373v-.534Zm.184-1.27-.071.516h24.189v-.516Zm.19-1.27-.077.516h24.005v-.516Zm.077-1.27h0a.1.1,0,0,0,.041.077.183.183,0,0,0,.03.053h0l-.053.368h23.821V212.7Zm7.47-1.27h-7.938a4.94,4.94,0,0,0,.208.516h7.523Zm-8.081,0,.231.516h24.231v-.516Zm-.475-1.27c.053.178.119.35.178.516h24.759v-.516Zm-.362-1.27c.042.178.083.35.131.516h25.168v-.516Zm-.225-1.27a.073.073,0,0,0,0,.036,1.706,1.706,0,0,0,.071.481h25.447v-.516Zm21.857-.754c-.059-.16-.113-.326-.178-.51h-9.961c-.042.184-.083.356-.125.51Zm-21.952-.51v.51h25.589v-.51Zm22.184-.759c-.059-.172-.118-.338-.172-.51h-.67l.166.51Zm-22.071-.51a5.049,5.049,0,0,1-.071.51h25.56v-.51Zm.35-1.27c-.065.178-.125.35-.172.51h25.311v-.51Zm.54-1.27c-.083.172-.16.344-.231.51h24.83v-.51Zm.635-1.27-.267.51h24.231v-.51Zm18.808,1.27h-14.5l1.234.51h13.421l-.1-.368Zm-18.1-2.539c-.1.172-.2.344-.291.51h23.542v-.51Zm.753-1.27-.308.51h22.807v-.51Zm16.565,1.27h0c.065.166.13.332.2.5h.036c-.048-.172-.089-.338-.131-.51Zm-15.764-2.539c-.065.107-.136.208-.2.309s-.089.136-.13.2h22.024v-.51Zm21.7-.783h0c-.071-.16-.142-.326-.214-.481h-20.641l-.338.51h21.223a.1.1,0,0,0-.012-.03Zm-.8-1.78h-19.223l-.344.51h19.8c-.059-.148-.142-.32-.219-.487Zm-.629-1.27h-17.7l-.071.1-.107.154-.178.255h18.333Zm-18.541,1.27-.237.386-.083.125h8.182c.035-.172.065-.344.1-.51Zm17.841-2.539h-16.1l-.368.516h16.779a2.774,2.774,0,0,1-.3-.492Zm-.8-1.27h-14.37l-.38.516h15.106q-.16-.243-.338-.492Zm-.54-.765-.344-.427a.817.817,0,0,0-.059-.077h-12.459l-.427.558h13.308Zm-1.394-1.549-.184-.166-.065-.059H1798.75c-.095.1-.225.261-.4.481h11.207a.94.94,0,0,1-.326-.231Zm-9.985,1.044a2.42,2.42,0,0,0,.208.516h7.458a4.032,4.032,0,0,1,.124-.516Zm8.5-2.219a5.607,5.607,0,0,0-.54-.32h-6.859a2.923,2.923,0,0,0-.279.178c-.16.1-.314.22-.469.338h8.455a3.225,3.225,0,0,0-.291-.172Z" transform="translate(-1709.582 -130.085)"/><path class="d" d="M1792.841,202.18c.854-1.424,1.721-2.842,2.628-4.23h0q-1.02,1.442-2.005,2.931c.03-.065.053-.136.083-.2.184-.38.356-.759.54-1.127m-.03,0a10.179,10.179,0,0,0-.593,1.115c-.1.214-.184.433-.279.653-.931,1.436-1.833,2.9-2.652,4.39a11.381,11.381,0,0,0-1.305,7.458,11.071,11.071,0,0,0,.593,2.083,13.939,13.939,0,0,0,1.032,1.928.048.048,0,1,0,.083-.047,11.2,11.2,0,0,1-1.24-3.6,12.3,12.3,0,0,1-.089-3.845c.32-2.789,1.833-5.168,3.234-7.511Z" transform="translate(-1710.069 -134.413)"/><path class="j" d="M1814.1,181.95c-.2.534-2.539,2.676-4.984,1.94-1.187-.35-1.044-3.251-1.044-3.251l-.03-.344-.439-4.782,5.933-2.8.848-.362s.036,1.317.059,2.967v2.433A31.428,31.428,0,0,1,1814.1,181.95Z" transform="translate(-1717.606 -124.001)"/><path class="d" d="M1814.434,175.351a9.636,9.636,0,0,1-6.39,4.984l-.439-4.782,5.933-2.8.848-.362S1814.41,173.707,1814.434,175.351Z" transform="translate(-1717.606 -124.018)"/><path class="j" d="M1797.3,159.071c-.671,8.413,4.3,9.76,6.1,9.9,1.65.131,7.268.362,8.8-7.933s-2.165-11.273-5.933-11.759S1797.973,150.664,1797.3,159.071Z" transform="translate(-1713.391 -114.59)"/><path class="d" d="M1799.533,162.189a3.244,3.244,0,0,0,.593-.113.975.975,0,0,0,.594-.231.3.3,0,0,0,0-.368.742.742,0,0,0-.73-.178,1.068,1.068,0,0,0-.688.38.321.321,0,0,0,.232.51Z" transform="translate(-1714.203 -119.494)"/><path class="d" d="M1808.2,162.678c-.2-.03-.374-.083-.593-.131a.9.9,0,0,1-.552-.237.3.3,0,0,1,0-.368.754.754,0,0,1,.736-.166,1.08,1.08,0,0,1,.682.392.32.32,0,0,1-.273.51Z" transform="translate(-1717.356 -119.687)"/><path class="d" d="M1806.761,166.89a.043.043,0,0,1,.042.053c-.036.593,0,1.234.534,1.442v.03C1806.7,168.308,1806.642,167.424,1806.761,166.89Z" transform="translate(-1717.243 -121.781)"/><path class="d" d="M1807.31,165.91c.926-.042.937,1.81.077,1.851S1806.533,165.939,1807.31,165.91Z" transform="translate(-1717.252 -121.382)"/><path class="d" d="M1808.243,166.029c.166.1.326.285.522.3s.391-.172.54-.362h.03c0,.356-.125.718-.5.777s-.593-.267-.688-.623C1808.125,166.083,1808.178,165.988,1808.243,166.029Z" transform="translate(-1717.823 -121.407)"/><path class="d" d="M1801.164,166.38s-.042.03-.042.053c0,.593-.042,1.234-.558,1.43m0,.036c.635-.1.73-.979.6-1.519Z" transform="translate(-1714.743 -121.573)"/><path class="d" d="M1800.2,165.379c-.926-.053-.967,1.78-.113,1.851S1800.975,165.427,1800.2,165.379Z" transform="translate(-1714.299 -121.166)"/><path class="d" d="M1799.394,165.453c-.148.095-.3.273-.475.279s-.35-.2-.475-.392h0c0,.356.089.724.427.8s.546-.225.641-.593C1799.5,165.542,1799.453,165.453,1799.394,165.453Z" transform="translate(-1713.881 -121.15)"/><path class="d" d="M1806.826,174.5c-.119.154-.225.356-.427.4a1.639,1.639,0,0,1-.635-.053h0a.766.766,0,0,0,.765.2.592.592,0,0,0,.374-.593A.058.058,0,0,0,1806.826,174.5Z" transform="translate(-1716.851 -124.857)"/><path class="d" d="M1802.3,166.889s-.125.86-.125,1.264c0,.036.095.053.231.065h0a1.9,1.9,0,0,0,1.869-.706c.03-.042,0-.083-.059-.059a2.859,2.859,0,0,1-1.78.492,14.436,14.436,0,0,0,.2-1.465,3.789,3.789,0,0,0-.92.2c.2-1.78.694-3.56.872-5.34,0-.065-.089-.083-.107,0a29.056,29.056,0,0,0-1.187,5.7C1801.307,167.257,1802.137,166.96,1802.3,166.889Z" transform="translate(-1715.04 -119.502)"/><path class="d" d="M1803.225,172.349a2.457,2.457,0,0,0,.931.8,1.034,1.034,0,0,0,.659.077c.48-.095.516-.534.451-.914a2.694,2.694,0,0,0-.178-.593A3.145,3.145,0,0,1,1803.225,172.349Z" transform="translate(-1715.825 -123.745)"/><path class="k" d="M1804.8,173.556a1.033,1.033,0,0,0,.659.077c.48-.095.516-.534.451-.914A1.127,1.127,0,0,0,1804.8,173.556Z" transform="translate(-1716.463 -124.152)"/><path class="d" d="M1812.282,159.616c-.914-.053-3.287-2.569-3.358-6.971a32.437,32.437,0,0,0,.635,4.533c.3.581-1.329-1.418-1.436-4.966a14.431,14.431,0,0,1-3.643,1.887,5.626,5.626,0,0,1-2.83.332c-.125-.119,2.373-.9,3.02-1.667,0,0-4.462,2.071-6.526,2.231-.237,0-.522-4.877,2.658-6.954s8.223.166,9.576,1.477c0,0,1.59.225,3.317,2.581S1813.267,159.676,1812.282,159.616Z" transform="translate(-1713.704 -113.771)"/><path class="j" d="M1818.823,168.655s1.691-2.729,2.925-2.142.06,4.474-1.311,5.079a1.43,1.43,0,0,1-1.928-.61l-.024-.049Z" transform="translate(-1722.031 -121.594)"/><path class="d" d="M1821.939,168.43v.042a3.56,3.56,0,0,0-1.732,2.373.79.79,0,0,1,1.054-.366.765.765,0,0,1,.132.081v.059a.872.872,0,0,0-.949.356,4.533,4.533,0,0,0-.416.807c-.042.089-.2.053-.172-.047h0C1819.726,170.441,1820.6,168.632,1821.939,168.43Z" transform="translate(-1722.583 -122.407)"/><path class="a" d="M1819.793,174.457a.593.593,0,1,0,0-.056A.532.532,0,0,0,1819.793,174.457Z" transform="translate(-1722.562 -124.595)"/><path class="j" d="M1827.257,197.635h0v18.707l-.065-.178-.267-.753c-.065-.172-.125-.344-.184-.516l-.267-.754-.184-.516-.267-.754c-.059-.172-.119-.344-.184-.516s-.172-.5-.261-.754-.119-.344-.184-.516-.172-.5-.261-.754l-.178-.516-.16-.481v-.047h0l-.071-.2-.178-.516c-.089-.255-.172-.5-.255-.753a.585.585,0,0,0-.06-.172.6.6,0,0,1,0-.089c-.029-.083-.059-.166-.083-.249-.089-.255-.172-.51-.255-.759s-.119-.338-.172-.51-.172-.51-.255-.759-.113-.344-.166-.51-.131-.392-.19-.593a.7.7,0,0,0-.059-.178c-.053-.172-.113-.344-.166-.51-.083-.255-.166-.51-.243-.759l-.16-.51c-.083-.255-.166-.51-.237-.759s-.113-.344-.16-.51c-.083-.261-.16-.51-.231-.759s-.107-.344-.154-.51c-.077-.261-.154-.51-.225-.759s-.1-.344-.148-.51c-.077-.261-.148-.516-.214-.759s-.095-.344-.142-.51-.113-.427-.167-.635a.964.964,0,0,1,0-.125c-.047-.178-.089-.344-.124-.51-.065-.261-.119-.516-.166-.759s-.065-.344-.095-.51c-.047-.261-.083-.516-.113-.753s-.042-.35-.053-.516c0-.267-.035-.516-.035-.753v-.516a6.774,6.774,0,0,1,.083-.754,2.969,2.969,0,0,1,.125-.516,2.194,2.194,0,0,1,.379-.754,1.288,1.288,0,0,1,.944-.5,1.691,1.691,0,0,1,.439.059h0a6.75,6.75,0,0,1,2.966,2.13c.688.759,1.394,1.578,2.1,2.456v3.459S1827.252,197.629,1827.257,197.635Z" transform="translate(-1722.735 -130.988)"/><path class="f" d="M1827.091,197.491h0V208l-.866.4-1.127.516-.475.214h0l-.593.255s-.065-.166-.178-.481c-.053-.142-.113-.314-.184-.516s-.166-.469-.261-.754c-.059-.16-.113-.326-.178-.51l-.249-.759-.166-.51c-.071-.243-.154-.492-.238-.759-.053-.166-.1-.332-.154-.51l-.2-.653a.748.748,0,0,0-.03-.107c-.047-.166-.1-.332-.154-.51s-.143-.5-.214-.759c-.047-.166-.095-.338-.148-.51s-.136-.5-.208-.759-.089-.338-.13-.51-.136-.5-.2-.759c-.042-.166-.089-.338-.131-.51s-.125-.5-.19-.759-.083-.338-.119-.51-.065-.255-.095-.386-.059-.249-.083-.374-.083-.338-.119-.51l-.071-.32c-.036-.148-.065-.3-.095-.439s-.071-.344-.1-.51c-.047-.261-.095-.516-.13-.759s-.053-.344-.077-.51c-.03-.261-.059-.51-.083-.754l-.036-.516v-1.27a6.672,6.672,0,0,1,.089-.754,4.034,4.034,0,0,1,.125-.516,2.532,2.532,0,0,1,.338-.754,1.468,1.468,0,0,1,.546-.516,1.43,1.43,0,0,1,.878-.16h0c.979.107,2.284.979,3.833,2.682.475.528.961,1.086,1.454,1.667v3.916A.333.333,0,0,0,1827.091,197.491Z" transform="translate(-1722.568 -130.845)"/><path class="d" d="M1825.021,214.639a2.023,2.023,0,0,1-.492.142c-.071-.451-.653-2.373-.8-2.86-.3-1.02-.593-2.029-.907-3.05-.594-2.035-1.187-4.076-1.78-6.105,0-.042-.071,0-.065,0,.261,1.442.593,2.866.955,4.278-.1-.243-.2-.492-.3-.742-.19-.492-.368-.985-.593-1.471a.03.03,0,1,0-.059,0h0a10.017,10.017,0,0,0,.516,1.519c.16.38.344.754.522,1.127.13.492.261.985.4,1.477.279,1.026.593,2.047.89,3.056.154.487.314.967.475,1.448a8.909,8.909,0,0,0,.677,1.5,3.76,3.76,0,0,0,.593-.273C1825.134,214.693,1825.086,214.616,1825.021,214.639Z" transform="translate(-1723.043 -136.364)"/><path class="d" d="M1829.926,217.25v.338l-.451.208-.148.065c-.552.249-1.115.463-1.673.694-.261.107-.522.219-.777.338h0c-.053,0-.1-.053-.047-.083h.029l.487-.249,1.471-.759c.214-.107.392-.2.5-.249l.546-.261Z" transform="translate(-1725.415 -142.262)"/><path class="d" d="M1806.776,188.034h.036a3.1,3.1,0,0,0,.765,2.967c.872.765,2.172.546,3.174.338a7.293,7.293,0,0,0,2.89-1.282,2.037,2.037,0,0,0,.712-2.694c0-.047,0-.071.035-.036a1.833,1.833,0,0,1,.291,2.106,4.261,4.261,0,0,1-2.112,1.78,7.972,7.972,0,0,1-2.967.748,2.658,2.658,0,0,1-2.438-.955A3.335,3.335,0,0,1,1806.776,188.034Z" transform="translate(-1717.193 -130.086)"/><path class="e" d="M1832.083,203.188Z" transform="translate(-1727.56 -136.542)"/><path class="e" d="M1832.166,452.11c-.035.089-.071.172-.1.261v-.136Z" transform="translate(-1727.553 -237.777)"/></g><g transform="translate(27.874 30.141)"><path class="l" d="M1355.419,473.549c-1.359.439-39.918-.059-41.372-1.015-.564-.35-.813-5.975-.925-12.78v-.214c0-1.4-.042-2.842-.047-4.307v-.593l1.875-20,25.791.255-2.545,19.817v.789l-.154,4.1v.421s14.673,6.793,16.162,8.01S1356.772,473.14,1355.419,473.549Z" transform="translate(-1281.286 -260.813)"/><path class="b" d="M1355.419,487.259c-1.359.439-39.918-.059-41.372-1.015-.564-.35-.813-5.975-.925-12.78v-.214c0-1.4-.042-2.842-.047-4.307v-.593l25.121.071v.789l-.154,4.1v.421s14.673,6.793,16.162,8.01S1356.772,486.849,1355.419,487.259Z" transform="translate(-1281.286 -274.523)"/><path class="f" d="M1355.456,490.622c-.694.225-11.172.2-21.413,0-2.059-.042-4.105-.089-6.058-.142-7.3-.2-13.337-.5-13.9-.866s-.807-5.814-.92-12.5v-.5h.03l24.853.042v.427s14.678,6.787,16.162,8S1356.809,490.213,1355.456,490.622Z" transform="translate(-1281.322 -277.886)"/><path class="d" d="M1356.866,497.39c-6.5-.243-32.733-.593-39.159-.362-.053,0-.053.042,0,.042,6.432.386,32.668.54,39.159.427C1357,497.5,1357,497.4,1356.866,497.39Z" transform="translate(-1283.153 -286.155)"/><path class="d" d="M1354.519,476.724c-2.551-.51-5.69-.16-7.666,1.638-.077.071,0,.178.107.154a35.792,35.792,0,0,1,7.541-1.471.16.16,0,1,0,.018-.32Z" transform="translate(-1295.01 -277.842)"/><path class="d" d="M1357.523,478.642c-2.551-.516-5.684-.16-7.66,1.638-.077.065,0,.178.107.148a36.14,36.14,0,0,1,7.553-1.466.16.16,0,0,0,0-.32Z" transform="translate(-1296.234 -278.621)"/><path class="d" d="M1360.653,480.554c-2.551-.51-5.684-.16-7.66,1.638-.077.071,0,.178.107.154a35.791,35.791,0,0,1,7.541-1.466.166.166,0,0,0,.012-.326Z" transform="translate(-1297.507 -279.399)"/><path class="d" d="M1334.043,490.612c-2.059-.041-4.105-.089-6.058-.142-7.3-.2-13.337-.5-13.9-.866s-.807-5.814-.92-12.5v-.5h.03C1316.589,479,1328.585,486.981,1334.043,490.612Z" transform="translate(-1281.322 -277.882)"/><path class="m" d="M1330.014,383.519h-27.773s5.589-64.849,5.375-65.994c-.279-1.454-10.644-42.036-12.631-49.707-2.967-11.5-5.34-20.428-5.34-20.428h23.536s2.741,8.692,6.2,20.006c5.636,18.393,13.159,43.7,13.907,49.838C1334.511,327.178,1330.014,383.519,1330.014,383.519Z" transform="translate(-1271.757 -184.66)"/><path class="d" d="M1338.751,468.716c-4.242-.089-3.02-.125-7.262-.166-2.077,0-15.723-.136-17.663.184a.042.042,0,0,0,0,.083c1.94.326,15.586.208,17.663.184,4.242-.042,3.02-.077,7.262-.16C1338.828,468.835,1338.828,468.716,1338.751,468.716Z" transform="translate(-1281.574 -274.593)"/><path class="d" d="M1316.406,317.6c-.914-4.011-2.272-7.944-3.459-11.866q-3.607-12-7.262-24.005-1.822-6-3.661-12-.937-3.026-1.875-6.046c-.593-1.976-1.323-3.928-1.881-5.933-.225-.813-.35-.368-.059.659.594,2.077,1.187,4.153,1.78,6.212q1.78,6.141,3.613,12.27,3.607,12.21,7.286,24.391,1.833,6.117,3.673,12.222a49.93,49.93,0,0,1,1.5,5.933,27.178,27.178,0,0,1,.226,6.3c-.267,4.248-.76,8.49-1.151,12.732s-.789,8.5-1.187,12.744q-1.187,12.685-2.326,25.364c-.1,1.068-.19,2.142-.273,3.216-.03.356.516.332.552,0,.913-8.36,1.614-16.749,2.4-25.121s1.561-16.666,2.338-25c.2-2.088.421-4.189.421-6.289A25.98,25.98,0,0,0,1316.406,317.6Z" transform="translate(-1275.17 -188.704)"/><path class="d" d="M1310.833,247.39c-1.436,11.16-3.435,48.651-3.88,66.207-2.658-10.632-10.021-39.437-11.665-45.78l-5.275-20.267h0a.78.78,0,0,0,0-.107.192.192,0,0,1,0-.036Z" transform="translate(-1271.906 -184.66)"/><path class="l" d="M1306.539,473.549c-1.353.439-39.912-.059-41.371-1.015-.558-.35-.813-5.975-.926-12.78v-.214c0-1.4-.047-2.842-.047-4.307v-.593l1.869-20,25.8.255-2.545,19.817v.789l-.154,4.1v.421s14.678,6.793,16.168,8.01S1307.892,473.14,1306.539,473.549Z" transform="translate(-1261.406 -260.813)"/><path class="b" d="M1306.539,487.259c-1.353.439-39.912-.059-41.371-1.015-.558-.35-.813-5.975-.926-12.78v-.214c0-1.4-.047-2.842-.047-4.307v-.593l25.121.071v.789l-.154,4.1v.421s14.678,6.793,16.168,8.01S1307.892,486.849,1306.539,487.259Z" transform="translate(-1261.406 -274.523)"/><path class="f" d="M1306.586,490.626c-.7.225-11.178.2-21.418,0-2.059-.042-4.106-.089-6.057-.142-7.3-.208-13.332-.5-13.9-.86s-.807-5.814-.919-12.5v-.5h0l24.854.042v.427s14.672,6.787,16.162,8S1307.933,490.217,1306.586,490.626Z" transform="translate(-1261.447 -277.89)"/><path class="d" d="M1308,497.39c-6.526-.243-32.733-.593-39.158-.362-.053,0-.053.042,0,.042,6.437.386,32.673.54,39.158.427C1308.132,497.5,1308.132,497.4,1308,497.39Z" transform="translate(-1263.278 -286.155)"/><path class="d" d="M1305.6,476.724c-2.551-.51-5.684-.16-7.66,1.638-.077.071,0,.178.107.154a35.793,35.793,0,0,1,7.541-1.471.16.16,0,0,0,.012-.32Z" transform="translate(-1275.119 -277.842)"/><path class="d" d="M1308.689,478.642c-2.551-.516-5.684-.16-7.666,1.638-.077.065,0,.178.107.148a36.159,36.159,0,0,1,7.547-1.466.16.16,0,0,0,.012-.32Z" transform="translate(-1276.372 -278.621)"/><path class="d" d="M1311.779,480.554c-2.551-.51-5.684-.16-7.666,1.638-.077.071,0,.178.107.154a35.869,35.869,0,0,1,7.541-1.466.166.166,0,0,0,.018-.326Z" transform="translate(-1277.628 -279.399)"/><path class="m" d="M1300.184,247.39s-.546,11.273-3.121,20.173c-.208.736-.433,1.465-.676,2.16a33.206,33.206,0,0,0-3.738,2.225s1.584,44.783,1.65,47.465c.231,10-7.037,64.522-7.037,64.522l-27.767.113s9.92-61.817,9.885-65.49c-.053-5.892-3.56-31.487-2.474-50.461a53.61,53.61,0,0,1,5.642-20.707Z" transform="translate(-1259.495 -184.66)"/><path class="d" d="M1287.841,469.1c-4.242-.071-3.026-.113-7.268-.136-2.077,0-15.717-.071-17.657.261a.042.042,0,0,0,0,.083c1.94.314,15.58.136,17.657.107,4.242-.059,3.026-.089,7.268-.2a.059.059,0,0,0,0-.119Z" transform="translate(-1260.87 -274.771)"/><path class="d" d="M1277.692,250.146c-3.512,6.752-4.824,14.435-5.108,21.952-.308,8.182.67,16.34,1.531,24.462.908,8.538,1.691,17.093,1.038,25.678s-2.2,17.283-3.441,25.886-2.551,17.206-3.619,25.833c-.136,1.092-.273,2.183-.4,3.275,0,.059.077.083.083,0,1.525-8.5,2.777-17.052,4.076-25.589s2.753-17.01,3.631-25.566a125.772,125.772,0,0,0-.35-25.578c-.825-8.217-1.91-16.429-1.94-24.7,0-7.713.753-15.562,3.477-22.813.362-.961.754-1.922,1.187-2.872C1277.888,250.009,1277.763,250,1277.692,250.146Z" transform="translate(-1262.83 -185.737)"/><path class="d" d="M1318.41,283.9a51.3,51.3,0,0,0-7.938,4.153.09.09,0,1,0,.083.16h0c2.676-1.3,5.411-2.551,8.016-4a.178.178,0,0,0-.16-.315Z" transform="translate(-1280.207 -199.506)"/><path class="d" d="M1320.683,267.783c-.184.985-.421,1.964-.635,2.967s-.35,1.857-.593,2.771a4.751,4.751,0,0,1-1.287,2.32c-.362.332-.76.635-1.145.937-.208.166-.433.326-.647.492a2.433,2.433,0,0,1,.071-.4c.071-.374.131-.748.2-1.121.136-.831.273-1.661.4-2.5.249-1.638.48-3.293.825-4.913,0-.065-.089-.089-.1,0-.409,1.608-.86,3.192-1.216,4.818-.172.8-.8,4.746-.825,5s-.053.593-.059.86a3.1,3.1,0,0,0,0,.878c0,.071.1.059.13,0h0a3.463,3.463,0,0,0,.249-.854c.071-.279.137-.564.184-.848a3.081,3.081,0,0,1,.047-.315c.385-.231.748-.546,1.109-.807s.783-.558,1.151-.866a4.452,4.452,0,0,0,1.412-2.2,16.111,16.111,0,0,0,.463-2.818c.125-1.115.214-2.237.368-3.346C1320.8,267.741,1320.695,267.712,1320.683,267.783Z" transform="translate(-1282.326 -192.938)"/><path class="l" d="M1320.963,189.759c.356,4.616,3.091,15.485,9.2,25.133,2.373,3.72,11.866,8.633,19.638,11.813a63.423,63.423,0,0,0,8.846,3.032h0a8.544,8.544,0,0,0,.931.166c3.708.445,6.265-5.162,6.675-9.356v-.528c.095-1.715-.2-3.115-.943-3.661a8.516,8.516,0,0,0-.825-.51q-3.352-1.727-6.865-3.115c-.682-.285-1.4-.593-2.124-.866-6.829-2.747-14.667-5.7-15.426-6.408a107.361,107.361,0,0,1-12.774-16.939C1324.191,183.173,1320.37,182.087,1320.963,189.759Z" transform="translate(-1284.469 -158.985)"/><path class="l" d="M1369.61,245.657a63.432,63.432,0,0,0,8.846,3.032h0a51.913,51.913,0,0,0,11.469,1.554c2.373,0,9.2-.706,9.339-2.527s-1.869-1.78-1.869-1.78,2.836-.73,2.812-2.575c0-1.513-2.118-1.685-2.878-1.7a.119.119,0,0,0-.113,0h-.16s2.86-.961,2.705-2.8c-.136-1.643-2.646-1.276-3.174-1.187h0c.439-.136,2.486-.884,1.78-2.2-.919-1.78-5.654.2-8.306.053-.125,0-.783-.083-1.726-.2a20.341,20.341,0,0,0-5.441-3.1,35.459,35.459,0,0,0-5.5-.5c-.682-.285-1.4-.593-2.124-.866A22.1,22.1,0,0,0,1369.61,245.657Z" transform="translate(-1304.275 -177.938)"/><path class="l" d="M1383.12,236.15l-.558,7.98v.208l-.427,6.052a10.874,10.874,0,0,0,1.412.451h0a51.894,51.894,0,0,0,11.474,1.554c2.374,0,9.2-.706,9.339-2.527s-1.869-1.78-1.869-1.78,2.836-.73,2.813-2.575c0-1.513-2.118-1.685-2.878-1.7h-.273s2.86-.961,2.706-2.8c-.137-1.643-2.646-1.276-3.174-1.187h-.018c.439-.136,2.486-.884,1.78-2.2-.92-1.78-5.654.2-8.307.053-.124,0-.783-.083-1.726-.2l-4.017-.492Z" transform="translate(-1309.372 -180.089)"/><path class="d" d="M1399.754,243.187a20.619,20.619,0,0,0,3.34.694,8.509,8.509,0,0,0,5.678-1.448c.095-.053.107-.119.077-.154h0a.162.162,0,0,0-.137,0,12.939,12.939,0,0,1-5.3,1.187,21.618,21.618,0,0,1-3.613-.4C1399.689,243.063,1399.653,243.17,1399.754,243.187Z" transform="translate(-1316.513 -182.576)"/><path class="d" d="M1399.994,249.9c3.773.706,6,.949,9.594-.712.113-.047.142-.148.089-.19a.118.118,0,0,0-.113,0h0a20.055,20.055,0,0,1-9.529.807C1399.958,249.8,1399.941,249.9,1399.994,249.9Z" transform="translate(-1316.622 -185.31)"/><path class="d" d="M1409.325,256.338a17.82,17.82,0,0,1-9.534.136.071.071,0,0,0-.079.062.072.072,0,0,0,.043.074,12.625,12.625,0,0,0,9.582-.154C1409.563,256.368,1409.557,256.285,1409.325,256.338Z" transform="translate(-1316.52 -188.293)"/><path class="l" d="M1383.022,241.839a3.809,3.809,0,0,0,.593-.113l.16-.047h0c3.05-.985,4.153-5.536,4.153-5.536a17.845,17.845,0,0,0,3.139.457,7.11,7.11,0,0,0,3.981-.641h0a1.785,1.785,0,0,0,.593-.593,1.54,1.54,0,0,0,.172-.421V234.9c.143-.842-1.59-1.833-3.667-2.628a20.218,20.218,0,0,0-6.093-1.448,36.184,36.184,0,0,0-5.417,1.062c-.754.2-1.252.338-1.252.338S1379.409,242.249,1383.022,241.839Z" transform="translate(-1308.253 -177.923)"/><path class="d" d="M1398,238.7c-2.017,1.721-5.1.777-7.458.409-.178-.03-.261.1-.255.243-.688,2.183-2.3,5.067-4.6,5.785a.053.053,0,0,0,0,.107c2.581-.433,4.391-3.139,4.99-5.577,2.409.421,5.541,1.228,7.321-.949Z" transform="translate(-1310.792 -181.126)"/><path class="f" d="M1323.323,203.546l14.738-1.655s-9.131-13.516-12.934-16.731c-4.283-3.619-5.2-.641-4.8,4.681S1323.323,203.546,1323.323,203.546Z" transform="translate(-1284.201 -158.705)"/><path class="g" d="M1323.323,203.546l14.738-1.655s-9.131-13.516-12.934-16.731c-4.283-3.619-5.2-.641-4.8,4.681S1323.323,203.546,1323.323,203.546Z" transform="translate(-1284.201 -158.705)"/><path class="d" d="M1337.569,210.02c-1.9,0-7.624.748-8.573.866-.5.059-2.48.392-2.967.451-.059,0-.041.1,0,.095.95-.107,1.917-.119,2.872-.22s6.8-.67,8.668-1.115a.041.041,0,0,0,0-.077Z" transform="translate(-1286.538 -169.462)"/><path class="d" d="M1331.29,202.658l-7.9.884s-2.593-8.383-2.966-13.705c-.291-3.862.113-6.5,2.005-6.248Z" transform="translate(-1284.241 -158.706)"/><path class="f" d="M1273.442,231.934c.083.113,38.239,4.017,38.648,3.637.594-.534-3.061-45.21-6.681-51.025-.771-1.246-6.959-2.967-9.707-1.032C1286.88,189.7,1273.145,231.519,1273.442,231.934Z" transform="translate(-1265.165 -158.329)"/><rect class="g" width="1.181" height="7.28" transform="translate(29.589 40.305) rotate(-84.35)"/><path class="f" d="M1357.266,219.846c-.2.273-4.747,8.757-4.937,9.718s-6.526,24.272-6.164,24.966,10.306,4.616,10.745,4.616,20.173-4.4,21.235-5.138,1.448-18.921,1.05-20.766-1.59-5.227-1.59-5.227l.736-1.02s-2.029-8.567-2.415-8.271S1357.693,219.247,1357.266,219.846Z" transform="translate(-1294.737 -173)"/><path class="g" d="M1356.9,259.927c-.433,0-10.365-3.928-10.739-4.622s6-24,6.164-24.96,4.746-9.445,4.936-9.724c.848,1.78,1.542,9.612,1.649,10.626S1357.1,257.832,1356.9,259.927Z" transform="translate(-1294.736 -173.773)"/><path class="g" d="M1386.086,233.433c-1.507.237-3.026.38-4.544.528s-3.044.273-4.563.374-3.043.2-4.568.273-3.05.119-4.574.172h0a.51.51,0,0,1-.368-.285,1.568,1.568,0,0,1-.142-.344,4.664,4.664,0,0,1-.166-.688,9.922,9.922,0,0,1-.154-1.382c.089.457.184.908.309,1.347a4.585,4.585,0,0,0,.219.647c.077.19.237.415.309.409h0c1.519-.131,3.038-.291,4.556-.4s3.044-.22,4.569-.3,3.044-.166,4.569-.214S1384.561,233.468,1386.086,233.433Z" transform="translate(-1303.218 -178.434)"/><path class="a" d="M1387.719,236.3l-2.83.03-1.833-5.6,2.83-.024Z" transform="translate(-1309.746 -177.877)"/><g class="n" transform="translate(52.259 48.828)"><path d="M1360.588,223.96c-.35,2.563-.76,5.114-1.187,7.66s-.884,5.091-1.329,7.636-.949,5.073-1.46,7.606l-.771,3.8c-.285,1.264-.54,2.527-.837,3.785.166-1.282.374-2.557.558-3.833l.593-3.827c.421-2.551.89-5.091,1.329-7.636s.949-5.073,1.46-7.606S1360.007,226.476,1360.588,223.96Z" transform="translate(-1350.597 -223.96)"/><path d="M1347.575,276.94c1.4-.771,2.848-1.448,4.307-2.083l.178-.077.136.154c.8.9,1.578,1.816,2.338,2.759s1.483,1.9,2.165,2.9c-.89-.825-1.732-1.691-2.545-2.575s-1.6-1.78-2.373-2.729l.314.077C1350.613,275.955,1349.112,276.495,1347.575,276.94Z" transform="translate(-1347.575 -244.628)"/></g><path class="l" d="M1300.008,190.365c-3.56,9.606-10.235,33.629-5.34,36.7,8.093,5.037,24.563,6.568,29.541,6.526,2.148,0,4.681-16.506,2.462-17.105-2.664-.718-19.763-1.246-20.1-2.611-.19-.777.38-8.6-.593-17.242C1304.861,186.6,1301.224,187.078,1300.008,190.365Z" transform="translate(-1273.096 -160.611)"/><path class="l" d="M1337.475,231.637s5.441-3.619,9.113-5.82c2.047-1.228,5.743-3.02,7.66-3.234,2.866-.314,15.058.178,15,3.139-.047,2.676-10.472.92-10.472.92s10.68.842,10.021,4.058-12.169-.338-12.169-.338,10.946,1.109,9.748,4.319c-.908,2.421-11.51-.2-11.51-.2s9.4,1.02,8.573,3.56c-.908,2.8-10.852.991-10.852.991-3.18,6.081-7.037,8.039-10.163,8.478C1341.681,247.6,1337.475,231.637,1337.475,231.637Z" transform="translate(-1291.208 -174.538)"/><path class="d" d="M1367.167,228.59c1.258.053,2.534.1,3.78.267s2.492.374,3.72.653a21.16,21.16,0,0,1,4.67,1.549,46.2,46.2,0,0,0-8.443-1.863c-1.246-.166-2.486-.392-3.732-.558C1367.132,228.637,1367.138,228.59,1367.167,228.59Z" transform="translate(-1303.274 -177.015)"/><path class="d" d="M1366.031,236.17c1.6.136,3.2.214,4.794.427s3.079.54,4.651.86c.119,0,.065.077-.053.059-1.584-.255-3.067-.368-4.651-.593s-3.162-.534-4.747-.712A.021.021,0,0,1,1366.031,236.17Z" transform="translate(-1302.814 -180.097)"/><path class="d" d="M1363.865,242.53a35.588,35.588,0,0,1,7.28,1.187c.119.03.048.095-.077.071-2.415-.451-4.3-.819-7.2-1.187C1363.805,242.589,1363.805,242.53,1363.865,242.53Z" transform="translate(-1301.923 -182.684)"/><path class="d" d="M1350.835,223.738c-2.373.546-10.567,5.684-11.469,6.485-.653-.071-3.465-.237-3.78-.19a.059.059,0,0,0,0,.113c.3.113,3.091.516,3.75.593.113,0,9.594-5.933,11.647-6.912C1351.054,223.773,1350.918,223.72,1350.835,223.738Z" transform="translate(-1290.424 -175.04)"/><path class="f" d="M1307.774,205.985l-14.429,3.423s4.028-15.806,6.526-20.119c2.812-4.853,4.681-2.373,6.1,2.783S1307.774,205.985,1307.774,205.985Z" transform="translate(-1273.262 -159.969)"/><path class="g" d="M1307.774,205.985l-14.429,3.423s4.028-15.806,6.526-20.119c2.812-4.853,4.681-2.373,6.1,2.783S1307.774,205.985,1307.774,205.985Z" transform="translate(-1273.262 -159.969)"/><path class="d" d="M1308,215.02c-1.893.19-7.505,1.554-8.431,1.78-.493.113-2.427.653-2.913.765-.065,0,0,.107.03.095.937-.214,1.893-.326,2.83-.528s6.7-1.394,8.484-2.035a.041.041,0,0,0,.023-.054A.04.04,0,0,0,1308,215.02Z" transform="translate(-1274.597 -171.496)"/><path class="d" d="M1297.177,201.322c0-.065-.083-.083-.1,0-.492,1.293-.955,2.6-1.394,3.922a12.1,12.1,0,0,1,.392-2.142s-.036-.042-.047,0a9.938,9.938,0,0,0-.451,2.474c-.3.914-.593,1.839-.878,2.759-.724,2.373-1.477,4.7-2.065,7.09a.173.173,0,0,0,.133.2.178.178,0,0,0,.081,0c.5-.136.985-.285,1.478-.457.047,0,.042-.1,0-.095-.427.047-.843.113-1.264.184.76-2.249,1.4-4.539,2.094-6.811S1296.554,203.7,1297.177,201.322Z" transform="translate(-1272.97 -165.902)"/><path class="d" d="M1316.646,205.756c0-.783.03-1.566,0-2.373h-.03q-.042.861-.071,1.727c-.148-1.139-.315-2.278-.534-3.4h0c.077,1.738.255,3.471.38,5.2s.267,3.4.421,5.1c-.32.131-.635.249-.961.368a.05.05,0,1,0,.03.095c.368-.065.736-.136,1.109-.19a.172.172,0,0,0,.16-.166C1317.061,210,1316.9,207.863,1316.646,205.756Z" transform="translate(-1282.4 -166.083)"/><path class="l" d="M1318.156,184.618c-1.353.071-5.031-2.759-6.253-5.542-.083-.2,1.311-7.416,1.436-8.9,0-.3,8.959,3.026,8.959,3.026a23.437,23.437,0,0,0-1.371,5.524,2.9,2.9,0,0,0,0,.593.6.6,0,0,1,0,.1C1321.028,180.584,1320.144,184.494,1318.156,184.618Z" transform="translate(-1280.807 -153.251)"/><path class="d" d="M1315.315,170.35c.148,2.243,1.021,8.567,6.069,9.125a5.763,5.763,0,0,0,.943.03.557.557,0,0,0,0-.1,4.113,4.113,0,0,1,0-.593,23.533,23.533,0,0,1,1.371-5.53S1317.308,170.9,1315.315,170.35Z" transform="translate(-1282.196 -153.329)"/><path class="l" d="M1315.007,146.866c-1.667,2.967-1.988,12.537-.166,15.082,2.634,3.684,7.945,5.138,11.332,1.744,3.281-3.293,3.477-15.764,1.353-18.179C1324.4,141.959,1317.463,142.476,1315.007,146.866Z" transform="translate(-1281.503 -142.275)"/><path class="d" d="M1328.274,162.03s-.048,0-.048.059c0,.641-.119,1.382-.712,1.572m0,.036c.7-.071.843-1.056.76-1.667Z" transform="translate(-1287.158 -149.945)"/><path class="d" d="M1327.249,160.857c-1.032-.119-1.187,1.958-.237,2.065S1328.116,160.957,1327.249,160.857Z" transform="translate(-1286.697 -149.466)"/><path class="d" d="M1334.966,162.7s.047,0,.041.059c-.065.641-.041,1.388.522,1.643v.036C1334.829,164.284,1334.793,163.293,1334.966,162.7Z" transform="translate(-1290.153 -150.218)"/><path class="d" d="M1335.6,161.64c1.038,0,.961,2.083,0,2.077S1334.731,161.64,1335.6,161.64Z" transform="translate(-1290.168 -149.787)"/><path class="d" d="M1326.2,158.2a7.772,7.772,0,0,0,.825-.225,1.358,1.358,0,0,0,.8-.386.439.439,0,0,0-.03-.534,1.1,1.1,0,0,0-1.086-.2,1.59,1.59,0,0,0-.979.593.475.475,0,0,0,.469.748Z" transform="translate(-1286.395 -147.814)"/><path class="d" d="M1336.442,158.976a7.544,7.544,0,0,1-.807-.273,1.4,1.4,0,0,1-.771-.445.438.438,0,0,1,.065-.528,1.1,1.1,0,0,1,1.1-.125,1.618,1.618,0,0,1,.926.688.468.468,0,0,1-.516.682Z" transform="translate(-1290.122 -148.107)"/><path class="d" d="M1326.924,172c.142.16.279.38.51.415a1.7,1.7,0,0,0,.706-.107s.042,0,0,.036a.866.866,0,0,1-.842.285.694.694,0,0,1-.463-.593C1326.853,171.983,1326.906,171.977,1326.924,172Z" transform="translate(-1286.881 -153.995)"/><path class="d" d="M1328.367,164.233a2.189,2.189,0,0,0,1.382,1.086,2.977,2.977,0,0,0,.789.1h.291a.166.166,0,0,0,.142-.136h0v-.071h0v-.059c.053-.492.065-1.246.065-1.246.172.1,1.062.593,1.068.326a32.78,32.78,0,0,0-.338-6.687c0-.071-.119-.059-.119,0-.119,2.065.13,4.153.042,6.212a4.054,4.054,0,0,0-1.009-.392c-.071,0,0,1.46-.036,1.679h0a3.031,3.031,0,0,1-2.207-.878C1328.385,164.138,1328.332,164.18,1328.367,164.233Z" transform="translate(-1287.5 -148.102)"/><path class="d" d="M1330.035,169.764a2.613,2.613,0,0,1-1.1.724,1.185,1.185,0,0,1-.712,0c-.5-.172-.48-.647-.356-1.044a3.033,3.033,0,0,1,.279-.593A3.4,3.4,0,0,0,1330.035,169.764Z" transform="translate(-1287.269 -152.719)"/><path class="k" d="M1328.931,170.894a1.185,1.185,0,0,1-.712,0c-.5-.172-.48-.647-.356-1.044A1.186,1.186,0,0,1,1328.931,170.894Z" transform="translate(-1287.269 -153.126)"/><path class="d" d="M1313.745,155.435c1.78-.22,3.489-5.731,3.489-5.731s-.386,2.373.071,2.373,2.8-2.967,3.376-5.257a18.389,18.389,0,0,0,3.94,2.741c2.035.973,4.189,1.133,4.153.765,0-1.133-.2-3.951-.92-4.812a8.146,8.146,0,0,0-7.921-2.51,7.476,7.476,0,0,0-5.737,4.545C1313.407,149.205,1313.1,155.512,1313.745,155.435Z" transform="translate(-1281.416 -142.122)"/><path class="f" d="M1328.792,147.38a21.886,21.886,0,0,0-8.306-.314c-2.409.635-6.877,3.275-7.12,3.412s0-8.271,6.894-8.781C1327.837,141.145,1328.792,147.38,1328.792,147.38Z" transform="translate(-1281.381 -141.662)"/><path class="f" d="M1314.185,151.421s5.3-5.18,7.956-6.147,8.306-.9,11.463,1.109c2.486,1.566-4.509,4.017-4.509,4.017a1.88,1.88,0,0,0-.842-1.442c-1.566-.9-4.788-.866-6.675-.528C1319.2,148.852,1314.185,151.421,1314.185,151.421Z" transform="translate(-1281.737 -142.884)"/><path class="o" d="M1314.185,151.421s5.3-5.18,7.956-6.147,8.306-.9,11.463,1.109c2.486,1.566-4.509,4.017-4.509,4.017a1.88,1.88,0,0,0-.842-1.442c-1.566-.9-4.788-.866-6.675-.528C1319.2,148.852,1314.185,151.421,1314.185,151.421Z" transform="translate(-1281.737 -142.884)"/><path class="f" d="M1324.334,164.472a2.889,2.889,0,1,1,3.56-2.872h0a2.889,2.889,0,0,1-2.811,2.966h-.026A2.812,2.812,0,0,1,1324.334,164.472Zm1.228-5.257a2.4,2.4,0,0,0-.593-.065,2.5,2.5,0,1,0,.593.065Z" transform="translate(-1284.962 -148.62)"/><path class="f" d="M1335.846,165.639c-1.074-.249-1.78-1.584-1.626-3.079a3.428,3.428,0,0,1,.837-1.946,1.78,1.78,0,0,1,3.067.35,3.5,3.5,0,0,1,.38,2.077c-.184,1.584-1.287,2.765-2.468,2.634A1.038,1.038,0,0,1,1335.846,165.639Zm.943-5.3a.62.62,0,0,0-.148,0,1.53,1.53,0,0,0-1.3.593,3.094,3.094,0,0,0-.736,1.727c-.154,1.371.5,2.581,1.471,2.688s1.881-.92,2.041-2.29a3.063,3.063,0,0,0-.332-1.845,1.582,1.582,0,0,0-1-.872Z" transform="translate(-1289.877 -149.075)"/><path class="f" d="M1331.469,163.608l-.214-.32a1.57,1.57,0,0,1,2.154.136l-.308.231C1332.548,162.908,1331.51,163.579,1331.469,163.608Z" transform="translate(-1288.679 -150.307)"/><path class="f" d="M1309.655,161.7l-.32-.214c.1-.148,1.009-1.465,1.881-1.507s5.933,1.026,6.129,1.074l-.077.38c-1.459-.309-5.4-1.1-6.034-1.068S1309.9,161.338,1309.655,161.7Z" transform="translate(-1279.765 -149.111)"/><path class="l" d="M1313.9,160.727s-1.5-3.4-3-2.919-.783,5.114.694,6.022a1.65,1.65,0,0,0,2.3-.389l.038-.056Z" transform="translate(-1280.062 -148.209)"/><path class="d" d="M1311.875,160.112a4.168,4.168,0,0,1,1.608,2.967.912.912,0,0,0-1.287-.5c-.036,0,0,.065,0,.065a1.008,1.008,0,0,1,1.026.593,4.844,4.844,0,0,1,.35.985c.036.113.226.095.208,0h0c.308-1.5-.409-3.7-1.9-4.147Z" transform="translate(-1280.797 -149.148)"/></g><g transform="translate(56.376 89.56)"><path class="h" d="M1557.675,431.02c18.446,0,29.126,12.81,29.126,27.885s-9.9,27.595-27.886,27.595c-19.905,0-29.41-15.83-29.41-27.731S1539.01,431.02,1557.675,431.02Z" transform="translate(-1397.808 -318.76)"/><path class="d" d="M1553.851,431.02c17.532,0,27.69,12.81,27.69,27.885s-9.41,27.595-26.509,27.595c-18.921,0-27.957-15.83-27.957-27.731S1536.111,431.02,1553.851,431.02Z" transform="translate(-1396.82 -318.76)"/><path class="i" d="M1561.321,449.27c10.679,0,16.874,7.808,16.874,16.992s-5.731,16.808-16.156,16.808c-11.528,0-17.034-9.647-17.034-16.9S1550.511,449.27,1561.321,449.27Z" transform="translate(-1404.112 -326.182)"/><path class="h" d="M1351.1,471.2c22.747,0,30.324-11.955,30.324-26.355s-10.573-26.651-31.232-26.651c13.486,0,21.294,12.24,21.294,26.651S1364.25,471.2,1351.1,471.2Z" transform="translate(-1324.884 -313.542)"/><path class="d" d="M1336.079,418.22c13.486,0,21.294,12.246,21.294,26.645s-7.232,26.343-20.386,26.343c-14.554,0-21.5-15.129-21.5-26.5S1322.433,418.22,1336.079,418.22Z" transform="translate(-1310.768 -313.554)"/><path class="d" d="M1332.055,444.691c0,10.994-2.795,25.512,10.163,26.456h1.394c13.148,0,20.386-11.955,20.386-26.355s-7.808-26.651-21.294-26.651h-1.056c-.208,0-.421.03-.629.047C1329.32,419.493,1332.055,433.8,1332.055,444.691Z" transform="translate(-1317.394 -313.522)"/><path class="i" d="M1340.726,435.67c7.494,0,11.836,7.464,11.836,16.239s-4.022,16.061-11.332,16.061c-8.093,0-11.955-9.22-11.955-16.15S1333.143,435.67,1340.726,435.67Z" transform="translate(-1316.377 -320.651)"/><path class="f" d="M1518.313,319.868h-7.256l-4.972-7.3h8.5Z" transform="translate(-1388.284 -270.587)"/><path class="f" d="M1506.085,312.57l2.913,4.272,2.059,3.026h7.256l-1.964-3.845-1.768-3.453Z" transform="translate(-1388.284 -270.587)"/><path class="g" d="M1506.085,312.57l2.913,4.272,7.351-.819-1.768-3.453Z" transform="translate(-1388.284 -270.587)"/><path class="f" d="M1547.13,412.357l-7.066,1.626-6.479-6,8.283-1.9Z" transform="translate(-1399.468 -308.617)"/><path class="f" d="M1533.585,407.979l3.791,3.512,2.682,2.492,7.078-1.626-2.777-3.3-2.492-2.972Z" transform="translate(-1399.468 -308.617)"/><path class="g" d="M1533.585,407.979l3.791,3.512,6.983-2.439-2.492-2.972Z" transform="translate(-1399.468 -308.617)"/><path class="m" d="M1380.155,444.82l2.029,4.491s54.863,4.195,60.073,3.417a77.61,77.61,0,0,0,10.923-16.891h-24.818a24.038,24.038,0,0,1-10.68-2.373l-3.2-.534-5.773,2.883L1402.4,444.8l-17.532-.32Z" transform="translate(-1337.069 -319.537)"/><path class="h" d="M1428.255,435.837s14.049,8.639,41.437,5.708c1.015-1.732,2.047-3.637,3.05-5.708h-24.818a24.038,24.038,0,0,1-10.68-2.373l-3.2-.534Z" transform="translate(-1356.631 -319.537)"/><path class="f" d="M1580.786,423.709l-6.871,3.607s-19.882-3.607-32.632-.878-16.192,9.54-16.192,9.54h-6.437s5.53-19.644,14.916-26.8,24.456-5.53,32.792-1.038S1580.786,423.709,1580.786,423.709Z" transform="translate(-1393.396 -307.889)"/><path class="g" d="M1578.359,433.493a34.931,34.931,0,0,0-4.307-3.821,39.018,39.018,0,0,0-4.818-3.2,29.533,29.533,0,0,0-10.549-3.459,23.692,23.692,0,0,0-20.173,6.793,46.592,46.592,0,0,0-7.167,10.941c0,.059.053.107.083.047a43.151,43.151,0,0,1,6.455-9.493,23.139,23.139,0,0,1,8.977-6.052c6.841-2.51,14.269-1.548,20.819,1.483a42.791,42.791,0,0,1,5.429,2.967c1.78,1.187,3.465,2.51,5.132,3.857a.071.071,0,0,0,.118-.065Z" transform="translate(-1398.557 -315.425)"/><path class="f" d="M1394.607,372.387V369.96l-62.054,2v5.458s-17.977,19.846-19.757,40.476l62.227,1.317,6.307-8.983,5.773-2.883,3.2.534V406.49l-2.456-2.889-.107-8.556a12.11,12.11,0,0,1-2.083-9.137C1386.324,381.34,1394.607,372.387,1394.607,372.387Z" transform="translate(-1309.674 -293.928)"/><path class="f" d="M1368.595,423.5c-.646,1.187-10.086,2.889-27.98,3.37-16.108.433-28.141.077-29.1-.961s1.442-19.4,12.347-29.345,26.373-11.374,36.554-5.441C1369.366,396.325,1376.047,409.55,1368.595,423.5Z" transform="translate(-1309.074 -301.105)"/><path class="g" d="M1380.081,405.813a22.842,22.842,0,0,0-6.348-11.433,25.457,25.457,0,0,0-11.558-6.639,29.351,29.351,0,0,0-14.833.16,33.2,33.2,0,0,0-7,2.711,39.313,39.313,0,0,0-6.6,4.468c-.546.451-1.1.9-1.638,1.365-.047.036,0,.1.071.065a42.463,42.463,0,0,1,6.639-4.788,33.168,33.168,0,0,1,6.817-2.937,29.825,29.825,0,0,1,14.554-.819,24.7,24.7,0,0,1,11.742,5.933,23.561,23.561,0,0,1,6.776,10.65,27.369,27.369,0,0,1-.481,15.426c-.2.664-.4,1.317-.629,1.97,0,.071.083.095.107.03C1379.707,416.855,1381.2,411.337,1380.081,405.813Z" transform="translate(-1317.522 -300.803)"/><path class="g" d="M1423.332,411.9l5.773-2.884,3.2.534v-1.388l-2.456-2.883-.107-8.55a12.078,12.078,0,0,1-2.082-9.137c.694-4.574,8.977-13.527,8.977-13.527h-2.4s-13.053,6.734-16.02,12.293S1414.356,404.948,1423.332,411.9Z" transform="translate(-1351.708 -295.595)"/><path class="c" d="M1326.966,451.964c-10.81,0-16.53-.332-19.431-1.483l1.347-3.388c3.394,1.347,14.02,1.323,31.119,1.127,12.631-.148,21.952-1.341,27.767-3.56l1.3,3.406c-6.289,2.373-15.782,3.631-29.025,3.785C1335.017,451.922,1330.686,451.964,1326.966,451.964Z" transform="translate(-1307.535 -324.307)"/><path class="d" d="M1472.59,315.611c-.107.243-14.435,2.883-14.435,2.883s-2.373-1.6-.908-3.631l14.37-3.1A3.334,3.334,0,0,1,1472.59,315.611Z" transform="translate(-1368.228 -270.258)"/><path class="f" d="M1516.458,287.027v17s-9.178-.8-11.623-.884-13.308,1.323-13.308,1.323l-.842-3.809s8.372-2.925,11.931-5.209,7.66-6.651,9.861-7.618A8.9,8.9,0,0,1,1516.458,287.027Z" transform="translate(-1382.021 -260.198)"/><path class="c" d="M1486.768,309.19a5.186,5.186,0,0,1,1.424,4.29s-6.841,1.252-6.924,1.252a3.886,3.886,0,0,0-2.373-3.845Z" transform="translate(-1377.225 -269.213)"/><ellipse class="c" cx="4.497" cy="8.496" rx="4.497" ry="8.496" transform="translate(130.03 26.835)"/><path class="a" d="M1528.255,296.162c0,4.153,1.727,7.577,3.851,7.577s3.85-3.394,3.85-7.577-1.726-7.582-3.85-7.582S1528.255,291.974,1528.255,296.162Z" transform="translate(-1397.3 -260.831)"/><path class="h" d="M1405.5,362.421s.112-10.365-.291-10.769-62.161-.19-64.006,0-1.685,12.264-1.525,12.827S1403.9,362.558,1405.5,362.421Z" transform="translate(-1320.573 -286.389)"/><path class="m" d="M1453.956,351.856c-.184-.16-8.016-.2-8.443-.2s-.273,11.047,0,11.03,8.5-.065,8.763-.309S1454.359,352.206,1453.956,351.856Z" transform="translate(-1363.542 -286.485)"/><path class="m" d="M1386.148,350.99a1.121,1.121,0,0,0-.4.664,5.677,5.677,0,0,0-.131.783c-.065.528-.083,1.062-.107,1.6v3.216c0,1.074,0,2.148.065,3.216a9.842,9.842,0,0,0,.184,1.572,2.558,2.558,0,0,0,.249.736.819.819,0,0,0,.593.457.837.837,0,0,1-.724-.368,2.721,2.721,0,0,1-.4-.742,8,8,0,0,1-.374-1.608,25.07,25.07,0,0,1-.2-3.263,27.167,27.167,0,0,1,.16-3.251,11.56,11.56,0,0,1,.285-1.62,5.374,5.374,0,0,1,.273-.783A1.058,1.058,0,0,1,1386.148,350.99Z" transform="translate(-1339.004 -286.212)"/><rect class="h" width="59.325" height="36.88" transform="translate(15.355 28.277)"/><rect class="d" width="42.861" height="36.88" transform="translate(15.355 28.277)"/><path class="h" d="M1435.206,241.81H1416.73l-14.465,28.277h18.476Z" transform="translate(-1346.061 -241.81)"/><path class="d" d="M1418.729,241.81h-2l-14.465,28.277h2Z" transform="translate(-1346.061 -241.81)"/><rect class="f" width="3.673" height="36.898" transform="translate(20.131 28.271)"/><rect class="f" width="3.673" height="36.898" transform="translate(47.121 28.271)"/><path class="a" d="M1350.575,306.526v-4.195a.391.391,0,0,1,.391-.392h2.326a.4.4,0,0,1,0,.789h-1.928v1.3h1.655a.4.4,0,0,1,.392.392.4.4,0,0,1-.392.4h-1.655v1.7a.4.4,0,0,1-.4.392A.392.392,0,0,1,1350.575,306.526Z" transform="translate(-1325.039 -266.264)"/><path class="a" d="M1361.372,302.459a2.617,2.617,0,0,1,0,3.6,2.327,2.327,0,0,1-1.7.759,2.409,2.409,0,0,1-1.745-.759,2.664,2.664,0,0,1,0-3.6,2.374,2.374,0,0,1,1.745-.759A2.309,2.309,0,0,1,1361.372,302.459Zm-.1,1.78a1.843,1.843,0,0,0-.48-1.246,1.537,1.537,0,0,0-2.17-.108,1.516,1.516,0,0,0-.108.108,1.821,1.821,0,0,0-.487,1.246,1.78,1.78,0,0,0,.487,1.234,1.513,1.513,0,0,0,2.278,0,1.782,1.782,0,0,0,.48-1.21Z" transform="translate(-1327.743 -266.167)"/><path class="a" d="M1371.452,302.459a2.617,2.617,0,0,1,0,3.6,2.328,2.328,0,0,1-1.7.759,2.409,2.409,0,0,1-1.744-.759,2.664,2.664,0,0,1,0-3.6,2.373,2.373,0,0,1,1.744-.759A2.309,2.309,0,0,1,1371.452,302.459Zm-.1,1.78a1.841,1.841,0,0,0-.481-1.246,1.536,1.536,0,0,0-2.17-.108,1.514,1.514,0,0,0-.108.108,1.821,1.821,0,0,0-.487,1.246,1.781,1.781,0,0,0,.487,1.234,1.513,1.513,0,0,0,2.135.144,1.453,1.453,0,0,0,.143-.144,1.779,1.779,0,0,0,.481-1.21Z" transform="translate(-1331.843 -266.167)"/><path class="a" d="M1377.515,306.526v-4.195a.386.386,0,0,1,.38-.392h.848a2.492,2.492,0,0,1,0,4.978h-.837a.392.392,0,0,1-.392-.392Zm.789-.4h.439a1.7,1.7,0,0,0,0-3.4h-.439Z" transform="translate(-1335.995 -266.264)"/><path class="a" d="M1363.763,315.238h-.8v2.67a.279.279,0,0,1-.552.081.259.259,0,0,1,0-.081v-2.67h-.813a.285.285,0,0,1-.279-.279.279.279,0,0,1,.279-.279h2.136a.28.28,0,0,1,.024.558Z" transform="translate(-1329.411 -271.446)"/><path class="a" d="M1369.482,315.054a1.806,1.806,0,0,1,.5,1.264,1.779,1.779,0,0,1-.5,1.264,1.631,1.631,0,0,1-1.186.54,1.7,1.7,0,0,1-1.228-.54,1.781,1.781,0,0,1-.492-1.264,1.827,1.827,0,0,1,.492-1.264,1.675,1.675,0,0,1,1.228-.534A1.6,1.6,0,0,1,1369.482,315.054Zm-.065,1.264a1.277,1.277,0,0,0-.338-.872,1.079,1.079,0,0,0-.789-.356,1.1,1.1,0,0,0-.813.356,1.294,1.294,0,0,0,0,1.744,1.1,1.1,0,0,0,.813.356,1.079,1.079,0,0,0,.789-.356,1.263,1.263,0,0,0,.338-.884Z" transform="translate(-1331.546 -271.38)"/><path class="a" d="M1350.529,328.046a6.01,6.01,0,0,1,5.731-4.746,4.154,4.154,0,0,1,2.848,1.038.724.724,0,0,1-.024,1.023l-.03.027a.783.783,0,0,1-1.074.136,2.966,2.966,0,0,0-1.994-.724,4.03,4.03,0,0,0-2.563.967,3.939,3.939,0,0,0-1.382,2.308,2.723,2.723,0,0,0,.593,2.29,2.842,2.842,0,0,0,2.225.973,3.962,3.962,0,0,0,1.91-.522L1357.1,329h-1.9a.593.593,0,0,1-.593-.748.92.92,0,0,1,.884-.753h2.634a.593.593,0,0,1,.629.753l-.522,2.967a1.3,1.3,0,0,1-.065.2l-.042.083h0a.915.915,0,0,1-.291.314,5.764,5.764,0,0,1-3.2,1.038h0a3.952,3.952,0,0,1-4.1-4.812Z" transform="translate(-1324.981 -274.95)"/><path class="a" d="M1369.236,331.428a4.19,4.19,0,0,1-.724-3.352,5.968,5.968,0,0,1,1.91-3.358,5.269,5.269,0,0,1,3.477-1.418,3.677,3.677,0,0,1,2.966,1.418,4.276,4.276,0,0,1,.706,3.358,5.818,5.818,0,0,1-1.9,3.352,5.269,5.269,0,0,1-3.477,1.418A3.627,3.627,0,0,1,1369.236,331.428Zm.789-3.352a2.966,2.966,0,0,0,.492,2.332,2.438,2.438,0,0,0,1.964.937,3.56,3.56,0,0,0,2.29-.937,4.152,4.152,0,0,0,1.311-2.332,2.905,2.905,0,0,0-.492-2.32,2.427,2.427,0,0,0-1.964-.943,3.482,3.482,0,0,0-2.29.943,4.155,4.155,0,0,0-1.294,2.32Z" transform="translate(-1332.297 -274.951)"/><rect class="a" width="4.207" height="0.564" transform="translate(25.536 44.819)"/><rect class="a" width="4.207" height="0.564" transform="translate(41.027 44.819)"/><path class="f" d="M1515.612,324.87c1.495,2.189,7.481,31.962,8.656,33.457a5.129,5.129,0,0,0,3.423,1.6l3.987,9.831s-9.831,3.1-15.29,7.588c-7.084,5.8-13.6,25.044-13.6,25.044-1.068.748-14.323,6.2-17.96,6.414,0,0,16.9-18.559,18.28-44.243.534-9.956-5.583-23.964-5.986-30.905-.427-7.428,1.815-8.763,5.773-8.763Z" transform="translate(-1379.637 -275.59)"/><path class="c" d="M1481.641,409.689l-2.646-2.5c14.833-15.7,20.3-40.434,19.87-47.186a57.189,57.189,0,0,0-2.516-11.427,88.354,88.354,0,0,1-3.287-14.708c-.593-5,0-8.223,1.7-10.152s4.04-1.922,5.595-1.922h14.115v3.649h-14.121c-1.359,0-2.284.047-2.872.706s-1.353,2.373-.8,7.316a86.622,86.622,0,0,0,3.168,14.1c1.234,4.29,2.4,8.348,2.646,12.2C1502.965,366.953,1497.269,393.195,1481.641,409.689Z" transform="translate(-1377.266 -274.337)"/><path class="c" d="M1551.248,390.3c.831,3.056,3.447,5.007,5.85,4.355s3.667-3.661,2.83-6.716-3.447-5.013-5.85-4.361S1550.411,387.235,1551.248,390.3Z" transform="translate(-1406.546 -299.413)"/><path class="a" d="M1552.764,390.443c.747,2.729,3.008,4.485,5.061,3.928s3.109-3.222,2.374-5.933-3.008-4.485-5.055-3.928S1552.022,387.714,1552.764,390.443Z" transform="translate(-1407.172 -299.803)"/><path class="g" d="M1529.953,369.329c-.658-3.073-1.371-6.141-1.988-9.226s-1.187-6.176-1.667-9.279c-.468-2.889-.973-5.809-1.157-8.734a16.34,16.34,0,0,1,1.483-8.9.048.048,0,0,0-.083-.047,13.893,13.893,0,0,0-2.106,7.547,51.348,51.348,0,0,0,.771,8.728,187.525,187.525,0,0,0,3.56,18.8c.861,3.506,1.97,6.954,3.156,10.359a.044.044,0,1,0,.083-.03h0Q1530.944,373.957,1529.953,369.329Z" transform="translate(-1395.746 -278.945)"/></g></svg>