<svg xmlns="http://www.w3.org/2000/svg" width="31.928" height="31.921" viewBox="0 0 31.928 31.921">
  <path id="Icon_awesome-instagram" data-name="Icon awesome-instagram" d="M15.962,10.014A8.184,8.184,0,1,0,24.147,18.2,8.171,8.171,0,0,0,15.962,10.014Zm0,13.5A5.321,5.321,0,1,1,21.283,18.2a5.33,5.33,0,0,1-5.321,5.321ZM26.39,9.679A1.909,1.909,0,1,1,24.481,7.77,1.9,1.9,0,0,1,26.39,9.679Zm5.421,1.937a9.447,9.447,0,0,0-2.578-6.688A9.509,9.509,0,0,0,22.544,2.35c-2.635-.15-10.535-.15-13.17,0A9.5,9.5,0,0,0,2.685,4.921,9.478,9.478,0,0,0,.107,11.61c-.15,2.635-.15,10.535,0,13.17a9.447,9.447,0,0,0,2.578,6.688,9.521,9.521,0,0,0,6.688,2.578c2.635.15,10.535.15,13.17,0a9.447,9.447,0,0,0,6.688-2.578,9.509,9.509,0,0,0,2.578-6.688c.15-2.635.15-10.528,0-13.163Zm-3.4,15.991a5.387,5.387,0,0,1-3.034,3.034c-2.1.833-7.087.641-9.409.641s-7.315.185-9.409-.641a5.387,5.387,0,0,1-3.034-3.034c-.833-2.1-.641-7.087-.641-9.409s-.185-7.315.641-9.409A5.387,5.387,0,0,1,6.553,5.755c2.1-.833,7.087-.641,9.409-.641s7.315-.185,9.409.641a5.387,5.387,0,0,1,3.034,3.034c.833,2.1.641,7.087.641,9.409S29.239,25.513,28.406,27.608Z" transform="translate(0.005 -2.238)" fill="#fff"/>
</svg>
