<svg xmlns="http://www.w3.org/2000/svg" width="134.5" height="76.562" viewBox="0 0 134.5 76.562"><defs><style>.a{fill:#e11023;}.b{fill:#b7091d;}</style></defs><g transform="translate(-51.93 -342.584)"><path class="a" d="M150.023,387.44c-15.794,11.223-30.125,2.675-31.973,1.478a16.5,16.5,0,0,0,.932-6.29c0-.008.008-.008.016-.008.514.514,12.62,12.428,31.025,4.82" transform="translate(-13.003 -7.874)"/><path class="a" d="M190.635,391.721c7.527-17.617-13.046-17.392-13.046-17.392,1.5-15.705-9.07-21.843-9.688-22.188,14.083,5.117,12.757,19.12,12.757,19.12,24.735,1.583,9.977,20.461,9.977,20.461" transform="translate(-22.807 -1.879)"/><path class="a" d="M159.778,368.349v-.007c-2.988-28.213-28.575-16.115-28.575-16.115,3.872,4.306,2.354,10.62,2.354,10.62s-3-.112-3.157-.121c.008-.112.008-.225.016-.329.008-.161.008-.329.008-.49a13.786,13.786,0,0,0-12.886-13.793c-.281-.016-.562-.024-.852-.024h-.145a13.817,13.817,0,0,0-1.743.129,21.243,21.243,0,0,0-3.422.94,13.82,13.82,0,0,0-8.4,11.777v.024c-.024.321-.032.635-.032.948a13.6,13.6,0,0,0,.6,4.025l.072.24c-.008.009,0,.017.008.025v.064a18.781,18.781,0,0,0,.635,2.065c8.523,19.32,31.764,9.439,31.764,9.439-1.663-5.639,4.073-7.688,4.073-7.688l8.405-4.1a.1.1,0,0,1,.134.04l1.013,1.725a.1.1,0,0,1-.043.145l-8.36,4.177a.867.867,0,0,0-.426,1.125l.064.153a.857.857,0,0,0,1.189.434l8.2-4.18a.1.1,0,0,1,.137.045l.821,1.577a.1.1,0,0,1-.043.138l-7.958,4.107a.869.869,0,0,0-.37,1.18l.1.169a.864.864,0,0,0,1.181.354l7.518-4.136a.1.1,0,0,1,.14.04l.768,1.379a.1.1,0,0,1-.04.14l-7.5,4.167a.873.873,0,0,0-.45.764.855.855,0,0,0,.129.45.867.867,0,0,0,1.173.288l7.556-4.4a.1.1,0,0,1,.142.04l.654,1.2a.1.1,0,0,1-.029.133c-.258.182-1.415.952-6.524,4.193-7.6,4.819-10.62-.8-10.62-.8s-.024.009-.032.017c-15.794,11.223-30.125,2.675-31.973,1.478a15.4,15.4,0,0,1-7.575,8.352,4.3,4.3,0,0,1-1.985.485H73.909a2.934,2.934,0,0,0-2.866,3.548,3.029,3.029,0,0,0,3,2.308h38.417a3.005,3.005,0,0,1,3.042,2.745,2.934,2.934,0,0,1-2.919,3.1H54.854a2.928,2.928,0,0,0,0,5.856h77.738a3.017,3.017,0,0,1,2.988,2.3,2.932,2.932,0,0,1-2.858,3.544H87.189a2.937,2.937,0,0,0-2.92,2.772,3.032,3.032,0,0,0,3.078,3.084h43.02c.167,0,.337,0,.5-.018a29.482,29.482,0,0,0,10.488-2.761c10.972-5.19,16.162-15.861,17.19-18.2a.947.947,0,0,0-.067-.875c-4.366-7.225-.846-15.333-.767-15.506h3.872a15.124,15.124,0,0,0-.1,13.866.712.712,0,0,0,.819.369,16.874,16.874,0,0,0,12.339-13.549c.016-.106.027-.211.033-.317.827-14.613-14.614-14.884-14.895-14.892m-33.427,33.331a2.9,2.9,0,0,1-2.065.86h-4.25a2.928,2.928,0,0,1,0-5.856h4.25a2.925,2.925,0,0,1,2.065,5m41.476-10.757c7.527-17.617-13.046-17.392-13.046-17.392,1.5-15.705-9.07-21.843-9.688-22.188,14.083,5.117,12.757,19.12,12.757,19.12,24.735,1.583,9.977,20.461,9.977,20.461" transform="translate(0 -1.083)"/><path class="b" d="M150.023,387.44c-15.794,11.223-30.125,2.675-31.973,1.478a16.5,16.5,0,0,0,.932-6.29c0-.008.008-.008.016-.008.514.514,12.62,12.428,31.025,4.82" transform="translate(-13.003 -7.874)"/><path class="a" d="M72.21,404.386a2.927,2.927,0,1,1-2.927-2.927,2.927,2.927,0,0,1,2.927,2.927" transform="translate(-2.837 -11.578)"/><path class="a" d="M85.075,436.455H82.034a2.926,2.926,0,1,1,0-5.852h3.041a2.926,2.926,0,1,1,0,5.852" transform="translate(-5.345 -17.31)"/><path class="b" d="M191.888,356.327s-3.931-9.353,3.471-13.743c0,0,4.161,9.41-3.471,13.743" transform="translate(-27.319 0)"/><path class="b" d="M196.093,360.259s4.516-14.464,18.688-12.01c0,0-2.81,14.3-18.688,12.01" transform="translate(-28.351 -1.059)"/><path class="b" d="M190.635,391.721c7.527-17.617-13.046-17.392-13.046-17.392,1.5-15.705-9.07-21.843-9.688-22.188,14.083,5.117,12.757,19.12,12.757,19.12,24.735,1.583,9.977,20.461,9.977,20.461" transform="translate(-22.807 -1.879)"/></g></svg>