<svg xmlns="http://www.w3.org/2000/svg" width="332.89" height="261.611" viewBox="0 0 332.89 261.611"><defs><style>.a{fill:#ebebeb;}.b{fill:#f0f0f0;}.c{fill:#e0e0e0;}.d{fill:#f5f5f5;}.e{fill:#fafafa;}.f{fill:#ff3c4d;}.g,.h,.j,.k{fill:#fff;}.h{opacity:0.5;}.h,.j,.k,.m{isolation:isolate;}.i{fill:#263238;}.j,.m{opacity:0.3;}.k{opacity:0.8;}.l{opacity:0.2;}</style></defs><g transform="translate(0 0)"><rect class="a" width="332.89" height="0.166" transform="translate(0 231.545)"/><rect class="a" width="22.051" height="0.166" transform="translate(216.085 236.079)"/><rect class="a" width="5.786" height="0.166" transform="translate(285.333 237.537)"/><rect class="a" width="12.776" height="0.166" transform="translate(238.809 242.257)"/><rect class="a" width="28.755" height="0.166" transform="translate(137.69 240.007)"/><rect class="a" width="4.214" height="0.166" transform="translate(127.543 240.007)"/><rect class="a" width="62.37" height="0.166" transform="translate(51.471 237.197)"/><path class="a" d="M713.915,249.663H585.36a3.8,3.8,0,0,1-3.795-3.8V65.148a3.8,3.8,0,0,1,3.795-3.768H713.915a3.8,3.8,0,0,1,3.8,3.8h0V245.861A3.8,3.8,0,0,1,713.915,249.663ZM585.36,61.513a3.635,3.635,0,0,0-3.628,3.635V245.861a3.635,3.635,0,0,0,3.628,3.635H713.915a3.642,3.642,0,0,0,3.635-3.635V65.148a3.642,3.642,0,0,0-3.635-3.635Z" transform="translate(-556.126 -47.811)"/><path class="a" d="M930.219,249.663H801.657a3.808,3.808,0,0,1-3.8-3.8V65.148a3.808,3.808,0,0,1,3.8-3.768H930.219a3.8,3.8,0,0,1,3.788,3.768V245.861A3.8,3.8,0,0,1,930.219,249.663ZM801.657,61.513a3.642,3.642,0,0,0-3.635,3.635V245.861a3.642,3.642,0,0,0,3.635,3.635H930.219a3.642,3.642,0,0,0,3.635-3.635V65.148a3.642,3.642,0,0,0-3.635-3.635Z" transform="translate(-628.414 -47.811)"/><path class="b" d="M711.642,290.208h0c-.04-.939-.12-1.891-.246-2.85a37.146,37.146,0,0,0-15.233-24.787,17.537,17.537,0,0,0-.16-2.617c-1.332-9.714-10.246-17.59-19.973-17.59a16.5,16.5,0,0,0-5.612.959c-6.811-9.081-17.663-15.14-29.108-15.14a29.536,29.536,0,0,0-10.826,2,20.65,20.65,0,0,0-16.644-9.061c-9.714,0-16.531,7.876-15.22,17.59a18.643,18.643,0,0,0,.852,3.6C587,246.306,579.159,258.39,581.09,272.7a33.992,33.992,0,0,0,1.631,6.744h0c-9.654,5.233-15.313,15.979-13.642,28.376,1.332,10.113,7.324,19.115,15.433,24.933H715.537a28.032,28.032,0,0,0,6.092-22.25A36.4,36.4,0,0,0,711.642,290.208Z" transform="translate(-551.855 -101.2)"/><path class="b" d="M937.987,265.345h0c.346-1.178.666-2.37.9-3.575,2.617-12.55-.466-23.735-7.39-31.032a26.551,26.551,0,0,0,.912-3.276c2.537-12.17-4.581-22.031-15.892-22.031a21.3,21.3,0,0,0-6.937,1.205c-4.148-11.385-14.274-18.975-27.59-18.975a38.8,38.8,0,0,0-13.442,2.5,15.688,15.688,0,0,0-15.553-11.318c-11.318,0-22.537,9.86-25.073,22.024a23.982,23.982,0,0,0-.506,4.514c-16.185,4.98-30.366,20.133-34.1,38.056a43.362,43.362,0,0,0-.912,8.449h0a52.471,52.471,0,0,0-27.736,35.539c-2.663,12.65.506,23.935,7.557,31.218H924.778a52.127,52.127,0,0,0,16.425-27.89C943.24,281.064,941.862,272.236,937.987,265.345Z" transform="translate(-617.008 -87.069)"/><rect class="c" width="5.546" height="114.96" transform="translate(30.406 52.63)"/><rect class="c" width="9.541" height="2.217" transform="translate(28.409 50.406)"/><path class="c" d="M593.076,54.535l.666-9.541L592.63,41l-1.105,3.995.666,9.541Z" transform="translate(-559.454 -41)"/><path class="d" d="M592.223,102.9h-9.541L576.025,75.38h22.856Z" transform="translate(-554.274 -52.49)"/><path class="e" d="M592.708,102.9h-4.727l-3.3-27.517H596Z" transform="translate(-557.168 -52.49)"/><path class="c" d="M597.114,351.525H581.355l3.189-58.815h9.381Z" transform="translate(-556.055 -125.127)"/><path class="c" d="M601.013,386.2V381.05H569.575V386.2" transform="translate(-552.118 -154.652)"/><path class="c" d="M586.818,56.32a12.69,12.69,0,0,0-12.683,12.69h25.373a12.689,12.689,0,0,0-12.69-12.69Z" transform="translate(-553.642 -46.12)"/><path class="c" d="M594.256,50.634A2.15,2.15,0,1,1,592.1,48.49h.007A2.151,2.151,0,0,1,594.256,50.634Z" transform="translate(-558.93 -43.503)"/></g><g transform="translate(37.357 246.538)"><ellipse class="d" cx="129.088" cy="7.537" rx="129.088" ry="7.537" transform="translate(0)"/></g><rect class="f" width="202.544" height="203.888" transform="translate(65.173 48.242)"/><rect class="g" width="100.16" height="22.856" rx="3.24" transform="translate(116.365 68.882)"/><rect class="f" width="92.324" height="16.937" rx="1.61" transform="translate(120.28 71.844)"/><path class="g" d="M730.595,160.259l5.326-.333a4.049,4.049,0,0,0,.666,2,2.969,2.969,0,0,0,2.47,1.1,2.757,2.757,0,0,0,1.851-.559,1.69,1.69,0,0,0,.666-1.332,1.657,1.657,0,0,0-.612-1.258,7.1,7.1,0,0,0-2.87-1.052,12.253,12.253,0,0,1-5.253-2.2,4.44,4.44,0,0,1-1.578-3.5,4.77,4.77,0,0,1,.806-2.663,5.407,5.407,0,0,1,2.437-1.951,11.389,11.389,0,0,1,4.454-.712,9.311,9.311,0,0,1,5.326,1.292,5.605,5.605,0,0,1,2.17,4.108l-5.28.313a2.464,2.464,0,0,0-2.571-2.351q-.086,0-.172.014a2.25,2.25,0,0,0-1.465.413,1.271,1.271,0,0,0-.5,1.005,1,1,0,0,0,.413.779,4.514,4.514,0,0,0,1.877.666,23.481,23.481,0,0,1,5.253,1.6,5.493,5.493,0,0,1,2.31,2,5.13,5.13,0,0,1,.726,2.663,5.763,5.763,0,0,1-.965,3.209,5.994,5.994,0,0,1-2.7,2.23,10.868,10.868,0,0,1-4.354.759q-4.621,0-6.4-1.778A6.989,6.989,0,0,1,730.595,160.259Z" transform="translate(-605.934 -76.69)"/><path class="g" d="M762.955,148.32h5.593v6.338h6.112V148.32h5.626v18.109h-5.626v-7.324h-6.112v7.324h-5.593Z" transform="translate(-616.75 -76.869)"/><path class="g" d="M796.932,157.231a8.581,8.581,0,0,1,9.354-9.381q4.527,0,6.964,2.43a9.225,9.225,0,0,1,2.45,6.8,11.174,11.174,0,0,1-1.072,5.206,7.643,7.643,0,0,1-3.089,3.162,10.2,10.2,0,0,1-5.007,1.125,11.555,11.555,0,0,1-5.067-.972,7.668,7.668,0,0,1-3.256-3.089A10.258,10.258,0,0,1,796.932,157.231Zm5.6,0a6.063,6.063,0,0,0,1.019,3.935,3.861,3.861,0,0,0,5.46.106q.054-.052.106-.106.992-1.171.985-4.214a5.563,5.563,0,0,0-1.032-3.735,3.522,3.522,0,0,0-2.8-1.178,3.4,3.4,0,0,0-2.716,1.2,6.349,6.349,0,0,0-1.019,4.021Z" transform="translate(-628.104 -76.711)"/><path class="g" d="M833.035,148.32h9.321a6.38,6.38,0,0,1,4.554,1.445,5.438,5.438,0,0,1,1.511,4.115,5.6,5.6,0,0,1-1.651,4.288,7.161,7.161,0,0,1-5.033,1.545h-3.063v6.718h-5.619Zm5.619,7.723h1.371a3.52,3.52,0,0,0,2.27-.566,1.8,1.8,0,0,0,.666-1.438,2,2,0,0,0-.573-1.445,2.909,2.909,0,0,0-2.137-.593h-1.591Z" transform="translate(-640.172 -76.869)"/><path class="h" d="M662.6,189.23H834.235a3.7,3.7,0,0,1,3.7,3.7V342.666H658.9V192.938a3.7,3.7,0,0,1,3.7-3.708Z" transform="translate(-581.971 -90.541)"/><path class="i" d="M636.111,317.348h-7.217a2.989,2.989,0,0,1-2.989-2.989V113.46h10.206V317.348Z" transform="translate(-570.945 -65.218)"/><path class="i" d="M952.692,317.348h-7.217V113.46h10.206V314.352a2.989,2.989,0,0,1-2.983,3Z" transform="translate(-677.752 -65.218)"/><path class="j" d="M831.638,189.23H808.7l-39.86,153.442h22.936Z" transform="translate(-618.715 -90.541)"/><path class="j" d="M863.622,189.23h-9.78L813.975,342.672h9.787Z" transform="translate(-633.802 -90.541)"/><path class="j" d="M742.459,189.23h-9.787L692.8,342.672h9.787Z" transform="translate(-593.304 -90.541)"/><rect class="f" width="7.104" height="155.773" transform="translate(162.896 96.358)"/><path class="f" d="M854.766,104.024,826.8,67.04H632.695l-27.963,36.984c-3.2,4.767-1.771,8.815,3.329,8.815s11.565-4.048,14.308-8.815h.24c-2.736,4.767-.925,8.815,4.174,8.815s11.178-4.048,13.462-8.815h.24c-2.277,4.767-.08,8.815,5.02,8.815s10.786-4.048,12.65-8.815h.24c-1.824,4.767.766,8.815,5.865,8.815a13.064,13.064,0,0,0,11.778-8.815h.233c-1.365,4.767,1.611,8.815,6.711,8.815a11.587,11.587,0,0,0,10.932-8.815h.24c-.912,4.767,2.45,8.815,7.55,8.815a10.247,10.247,0,0,0,10.087-8.815h.24a8.127,8.127,0,0,0,8.4,8.815,9.1,9.1,0,0,0,9.241-8.815h.24a9.1,9.1,0,0,0,9.241,8.815,8.127,8.127,0,0,0,8.4-8.815h.18a10.247,10.247,0,0,0,10.087,8.815c5.1,0,8.462-4.048,7.55-8.815h.24a11.563,11.563,0,0,0,10.932,8.815c5.1,0,8.076-4.048,6.711-8.815h.233a13.043,13.043,0,0,0,11.778,8.815c5.12,0,7.69-4.048,5.866-8.815h.24c1.831,4.767,7.517,8.815,12.65,8.815s7.324-4.048,5.02-8.815h.24c2.284,4.767,8.362,8.815,13.462,8.815s6.911-4.048,4.174-8.815h.24c2.743,4.767,9.208,8.815,14.308,8.815S857.961,108.791,854.766,104.024Z" transform="translate(-563.301 -49.703)"/><path class="k" d="M854.766,104.024,826.8,67.04H632.695l-27.963,36.984c-3.2,4.767-1.771,8.815,3.329,8.815s11.565-4.048,14.308-8.815h.24c-2.736,4.767-.925,8.815,4.174,8.815s11.178-4.048,13.462-8.815h.24c-2.277,4.767-.08,8.815,5.02,8.815s10.786-4.048,12.65-8.815h.24c-1.824,4.767.766,8.815,5.865,8.815a13.064,13.064,0,0,0,11.778-8.815h.233c-1.365,4.767,1.611,8.815,6.711,8.815a11.587,11.587,0,0,0,10.932-8.815h.24c-.912,4.767,2.45,8.815,7.55,8.815a10.247,10.247,0,0,0,10.087-8.815h.24a8.127,8.127,0,0,0,8.4,8.815,9.1,9.1,0,0,0,9.241-8.815h.24a9.1,9.1,0,0,0,9.241,8.815,8.127,8.127,0,0,0,8.4-8.815h.18a10.247,10.247,0,0,0,10.087,8.815c5.1,0,8.462-4.048,7.55-8.815h.24a11.563,11.563,0,0,0,10.932,8.815c5.1,0,8.076-4.048,6.711-8.815h.233a13.043,13.043,0,0,0,11.778,8.815c5.12,0,7.69-4.048,5.866-8.815h.24c1.831,4.767,7.517,8.815,12.65,8.815s7.324-4.048,5.02-8.815h.24c2.284,4.767,8.362,8.815,13.462,8.815s6.911-4.048,4.174-8.815h.24c2.743,4.767,9.208,8.815,14.308,8.815S857.961,108.791,854.766,104.024Z" transform="translate(-563.301 -49.703)"/><g class="l" transform="translate(39.726 17.337)"><path class="f" d="M633.544,67.04h13.7l-24.028,36.984H605.575Z" transform="translate(-603.876 -67.04)"/><path class="f" d="M679.248,67.04h13.7l-16.032,36.984H659.275Z" transform="translate(-621.824 -67.04)"/><path class="f" d="M724.952,67.04h13.688l-8.023,36.984H712.975Z" transform="translate(-639.771 -67.04)"/><path class="f" d="M770.66,67.04h13.688l-.027,36.984H766.685Z" transform="translate(-657.722 -67.04)"/><path class="f" d="M814.335,67.04h13.7L836,104.024H818.363Z" transform="translate(-673.648 -67.04)"/><path class="f" d="M856.025,67.04h13.7l15.972,36.984H868.056Z" transform="translate(-687.581 -67.04)"/><path class="f" d="M897.715,67.04H911.4l23.975,36.984H917.742Z" transform="translate(-701.515 -67.04)"/><path class="f" d="M927.795,122.59c2.284,4.767,8.362,8.815,13.462,8.815s6.911-4.048,4.174-8.815" transform="translate(-711.568 -85.606)"/><path class="f" d="M874.085,122.59a13.042,13.042,0,0,0,11.778,8.815c5.12,0,7.69-4.048,5.865-8.815" transform="translate(-693.617 -85.606)"/><path class="f" d="M820.355,122.59a10.247,10.247,0,0,0,10.087,8.815c5.1,0,8.462-4.048,7.55-8.815" transform="translate(-675.66 -85.606)"/><path class="f" d="M766.666,122.59a8.127,8.127,0,0,0,8.4,8.815,9.1,9.1,0,0,0,9.241-8.815" transform="translate(-657.704 -85.606)"/><path class="f" d="M712.809,122.59c-1.365,4.767,1.611,8.815,6.711,8.815a11.587,11.587,0,0,0,10.932-8.815" transform="translate(-639.605 -85.606)"/><path class="f" d="M658.825,122.59c-2.277,4.767-.08,8.815,5.02,8.815s10.786-4.048,12.65-8.815" transform="translate(-621.373 -85.606)"/><path class="f" d="M604.722,122.59c-3.2,4.767-1.771,8.815,3.329,8.815s11.565-4.048,14.308-8.815" transform="translate(-603.023 -85.606)"/></g><g transform="translate(86.26 179.88)"><path class="i" d="M690.851,311.18h33.922a4.72,4.72,0,0,1,4.614,4.248l5.553,63.462a3.828,3.828,0,0,1-3.385,4.225,3.886,3.886,0,0,1-.49.023H697.15a4.734,4.734,0,0,1-4.594-4.248L687,315.428a3.827,3.827,0,0,1,3.848-4.248Z" transform="translate(-677.617 -311.179)"/><path class="i" d="M749.488,392.79h3.995a1.012,1.012,0,0,1,.992.905l1.931,22.13a.812.812,0,0,1-.714.9.775.775,0,0,1-.112.005h-3.995a1,1,0,0,1-.985-.905l-1.937-22.13a.812.812,0,0,1,.714-.9A.775.775,0,0,1,749.488,392.79Z" transform="translate(-698.231 -338.455)"/><path class="i" d="M694.539,392.79h3.995a1.012,1.012,0,0,1,.985.905l1.944,22.124a.819.819,0,0,1-.728.9.778.778,0,0,1-.1,0h-3.995a1,1,0,0,1-.985-.905l-1.937-22.131a.819.819,0,0,1,.735-.895A.682.682,0,0,1,694.539,392.79Z" transform="translate(-679.866 -338.455)"/><path class="f" d="M718.271,311.18H684.356a4.727,4.727,0,0,0-4.621,4.248l-5.553,63.462a3.828,3.828,0,0,0,3.385,4.225,3.891,3.891,0,0,0,.49.023h33.915a4.727,4.727,0,0,0,4.621-4.248l5.553-63.462a3.828,3.828,0,0,0-3.385-4.225A3.9,3.9,0,0,0,718.271,311.18Z" transform="translate(-673.332 -311.179)"/><path class="f" d="M679.866,392.79h-3.995a1,1,0,0,0-.985.905l-1.964,22.124a.812.812,0,0,0,.714.9.775.775,0,0,0,.112.005h3.995a1,1,0,0,0,.985-.905l1.931-22.131a.812.812,0,0,0-.721-.894C679.914,392.792,679.89,392.791,679.866,392.79Z" transform="translate(-672.917 -338.455)"/><path class="f" d="M734.793,392.79H730.8a1.012,1.012,0,0,0-.992.905l-1.924,22.124a.812.812,0,0,0,.714.9.777.777,0,0,0,.112.005H732.7a1,1,0,0,0,.985-.905l1.938-22.131a.813.813,0,0,0-.72-.895A.779.779,0,0,0,734.793,392.79Z" transform="translate(-691.286 -338.455)"/><path class="g" d="M679.072,382.288a2.3,2.3,0,0,1-2.324-2.543l5.553-63.462a2.83,2.83,0,0,1,2.763-2.543h33.915a2.29,2.29,0,0,1,2.337,2.242,2.164,2.164,0,0,1-.013.3l-5.539,63.462A2.836,2.836,0,0,1,713,382.288Z" transform="translate(-674.193 -312.035)"/><path class="f" d="M689.064,335.832l2.184-.133a1.589,1.589,0,0,0,.22.806,1.091,1.091,0,0,0,.965.446,1.221,1.221,0,0,0,.772-.226.765.765,0,0,0,.313-.533.626.626,0,0,0-.206-.513,2.609,2.609,0,0,0-1.132-.433,4.47,4.47,0,0,1-2.064-.892,1.683,1.683,0,0,1-.519-1.425,2.087,2.087,0,0,1,.426-1.079,2.458,2.458,0,0,1,1.059-.792,4.836,4.836,0,0,1,1.844-.293,3.473,3.473,0,0,1,2.111.526,2.064,2.064,0,0,1,.739,1.678l-2.164.126a1.046,1.046,0,0,0-.293-.726,1.076,1.076,0,0,0-.739-.226.992.992,0,0,0-.619.166.571.571,0,0,0-.233.413.354.354,0,0,0,.14.313,1.715,1.715,0,0,0,.739.273,8.812,8.812,0,0,1,2.084.666,1.844,1.844,0,0,1,1.072,1.911,2.556,2.556,0,0,1-.506,1.332,2.808,2.808,0,0,1-1.178.905,4.664,4.664,0,0,1-1.8.313,3.42,3.42,0,0,1-2.55-.726A2.662,2.662,0,0,1,689.064,335.832Z" transform="translate(-678.313 -317.722)"/><path class="f" d="M701.188,330.97h2.284l-.226,2.583h2.5l.226-2.583h2.3l-.666,7.384h-2.3l.266-2.989h-2.49l-.26,2.989h-2.284Z" transform="translate(-682.147 -317.794)"/><path class="f" d="M713.477,334.6a3.861,3.861,0,0,1,3.892-3.832q.125,0,.25.01a3.569,3.569,0,0,1,2.756.992,3.461,3.461,0,0,1,.752,2.77,4.79,4.79,0,0,1-.619,2.124,3.6,3.6,0,0,1-1.371,1.292,4.4,4.4,0,0,1-2.091.459,4.509,4.509,0,0,1-2.037-.4,2.746,2.746,0,0,1-1.212-1.258A3.9,3.9,0,0,1,713.477,334.6Zm2.277,0a2.342,2.342,0,0,0,.273,1.6,1.292,1.292,0,0,0,1.092.486,1.559,1.559,0,0,0,1.178-.473,2.92,2.92,0,0,0,.553-1.718,2.15,2.15,0,0,0-.286-1.525,1.332,1.332,0,0,0-1.1-.479,1.51,1.51,0,0,0-1.152.486,2.665,2.665,0,0,0-.559,1.631Z" transform="translate(-686.461 -317.725)"/><path class="f" d="M726.981,330.965h3.795a2.437,2.437,0,0,1,1.8.586,2.058,2.058,0,0,1,.466,1.678,2.475,2.475,0,0,1-.826,1.751,3.118,3.118,0,0,1-2.1.626h-1.252l-.24,2.743h-2.27Zm2,3.149h.559a1.521,1.521,0,0,0,.945-.233.8.8,0,0,0,.32-.586.752.752,0,0,0-.18-.586,1.134,1.134,0,0,0-.852-.246H729.1Z" transform="translate(-690.777 -317.789)"/><path class="f" d="M687.355,350.442l.446-5.113h2.663a3.642,3.642,0,0,1,1.112.126,1.045,1.045,0,0,1,.586.466,1.331,1.331,0,0,1,.16.826,1.428,1.428,0,0,1-.246.732,1.642,1.642,0,0,1-.539.506,2.16,2.16,0,0,1-.573.2,1.661,1.661,0,0,1,.393.186,1.633,1.633,0,0,1,.233.273,2.219,2.219,0,0,1,.193.32l.633,1.478h-1.784l-.712-1.565a1.1,1.1,0,0,0-.246-.393.613.613,0,0,0-.38-.12h-.14l-.18,2.077Zm1.858-3.043h.666a2.36,2.36,0,0,0,.426-.067.448.448,0,0,0,.266-.16.5.5,0,0,0,.126-.3.439.439,0,0,0-.12-.38.918.918,0,0,0-.579-.133h-.666Z" transform="translate(-677.742 -322.592)"/><path class="f" d="M696.121,345.38h4.234l-.093,1.092H697.6l-.073.812h2.463l-.093,1.045h-2.443l-.087,1.005h2.73l-.1,1.158h-4.341Z" transform="translate(-680.516 -322.61)"/><path class="f" d="M703.436,347.838a2.663,2.663,0,0,1,2.654-2.672c.074,0,.148,0,.222.009a2.463,2.463,0,0,1,1.911.666,2.4,2.4,0,0,1,.519,1.917,3.372,3.372,0,0,1-.426,1.471,2.4,2.4,0,0,1-.952.892,3.053,3.053,0,0,1-1.451.32,3.1,3.1,0,0,1-1.411-.273,1.9,1.9,0,0,1-.839-.872A2.758,2.758,0,0,1,703.436,347.838Zm1.585,0a1.612,1.612,0,0,0,.186,1.112.9.9,0,0,0,.759.34,1.051,1.051,0,0,0,.812-.333,2,2,0,0,0,.386-1.192,1.5,1.5,0,0,0-.2-1.052.9.9,0,0,0-.759-.34,1.05,1.05,0,0,0-.8.34,1.862,1.862,0,0,0-.386,1.132Z" transform="translate(-683.111 -322.538)"/><path class="f" d="M712.794,345.376h2.663a1.663,1.663,0,0,1,1.252.406,1.443,1.443,0,0,1,.326,1.165,1.757,1.757,0,0,1-.573,1.212,2.2,2.2,0,0,1-1.458.433h-.866l-.166,1.9h-1.618Zm1.4,2.177h.386a1.121,1.121,0,0,0,.666-.153.574.574,0,0,0,.22-.413.517.517,0,0,0-.127-.406.759.759,0,0,0-.586-.166H714.3Z" transform="translate(-686.098 -322.606)"/><path class="f" d="M720.544,345.38h4.241l-.1,1.092h-2.663l-.073.812h2.463l-.093,1.045h-2.463l-.087,1.005h2.73l-.1,1.158h-4.314Z" transform="translate(-688.681 -322.61)"/><path class="f" d="M728.328,345.38h1.478l1.678,2.83.246-2.83h1.491l-.446,5.113h-1.491l-1.671-2.81-.246,2.81h-1.491Z" transform="translate(-691.285 -322.61)"/><path class="f" d="M713.034,392.361l-3.728-1.551c.539,2.157-1.571,3.715-3.329,4.607-.839.426-.666,1.525.353,1.931l2.43,1.012C711.7,399.585,713.034,392.361,713.034,392.361Z" transform="translate(-683.788 -337.793)"/><path class="f" d="M713.294,387.851l-6.838-2.816a4.208,4.208,0,0,1-2.146-5.551c.045-.1.1-.2.148-.3h0a4.881,4.881,0,0,1,6.078-2.51l6.831,2.843a4.214,4.214,0,0,1,2.144,5.561q-.068.152-.146.3h0A4.874,4.874,0,0,1,713.294,387.851Z" transform="translate(-683.289 -332.971)"/><path class="m" d="M713.294,387.851l-6.838-2.816a4.208,4.208,0,0,1-2.146-5.551c.045-.1.1-.2.148-.3h0a4.881,4.881,0,0,1,6.078-2.51l6.831,2.843a4.214,4.214,0,0,1,2.144,5.561q-.068.152-.146.3h0A4.874,4.874,0,0,1,713.294,387.851Z" transform="translate(-683.289 -332.971)"/><path class="f" d="M688.8,380.146l12.537,2.763c1.045.433,6.585-10.9,5.539-11.318L696.32,364.76C694.822,364.121,687.3,379.527,688.8,380.146Z" transform="translate(-678.159 -329.081)"/></g></svg>