<svg xmlns="http://www.w3.org/2000/svg" width="36.469" height="29.619" viewBox="0 0 36.469 29.619">
  <path id="Icon_awesome-twitter" data-name="Icon awesome-twitter" d="M32.72,10.762c.023.324.023.648.023.972C32.744,21.615,25.223,33,11.478,33A21.122,21.122,0,0,1,0,29.645a15.462,15.462,0,0,0,1.8.093,14.969,14.969,0,0,0,9.279-3.193A7.487,7.487,0,0,1,4.1,21.361a9.426,9.426,0,0,0,1.412.116,7.905,7.905,0,0,0,1.967-.254,7.475,7.475,0,0,1-5.993-7.335v-.093a7.527,7.527,0,0,0,3.378.949,7.485,7.485,0,0,1-2.314-10,21.245,21.245,0,0,0,15.411,7.821,8.438,8.438,0,0,1-.185-1.712A7.481,7.481,0,0,1,30.707,5.741a14.716,14.716,0,0,0,4.744-1.8,7.454,7.454,0,0,1-3.286,4.119,14.984,14.984,0,0,0,4.3-1.157,16.067,16.067,0,0,1-3.749,3.864Z" transform="translate(0 -3.381)" fill="#fff"/>
</svg>
